<?xml version="1.0" encoding="UTF-8"?>
<!DOCTYPE svg PUBLIC "-//W3C//DTD SVG 1.1//EN" "http://www.w3.org/Graphics/SVG/1.1/DTD/svg11.dtd">
<!-- Creator: CorelDRAW -->
<svg xmlns="http://www.w3.org/2000/svg" xml:space="preserve" width="178.476mm" height="46.573mm" version="1.1" style="shape-rendering:geometricPrecision; text-rendering:geometricPrecision; image-rendering:optimizeQuality; fill-rule:evenodd; clip-rule:evenodd"
viewBox="0 0 18132.48 4731.65"
 xmlns:xlink="http://www.w3.org/1999/xlink"
 xmlns:xodm="http://www.corel.com/coreldraw/odm/2003">
 <defs>
  <style type="text/css">
   <![CDATA[
    .fil1 {fill:#2B2A29}
    .fil0 {fill:#2B2A29}
    .fil2 {fill:#F15022}
   ]]>
  </style>
 </defs>
 <g id="Plan_x0020_1">
  <metadata id="CorelCorpID_0Corel-Layer"/>
  <path class="fil0" d="M2460.76 1.82l2838.43 0 0 4621.53 -1577.74 0 0 -318.36c-383.88,268.88 -851.33,426.66 -1355.64,426.66 -1306.59,0 -2365.81,-1059.22 -2365.81,-2365.86 0,-1345.84 1117.62,-2415.72 2460.76,-2363.96zm-1266.28 2661.39l334.13 0 0 574.95c481.42,463.12 1247.08,448.24 1710.2,-33.18 226.9,-235.92 338.99,-540.09 337.68,-843.41l-1211.42 3.16 -23.47 -1207.51c-308.82,6.49 -615.16,130.56 -846.17,370.8 -300.32,312.2 -399.55,743.98 -300.95,1135.2zm447.6 -1632.87l-571.9 546.89c-362.62,-378.82 213.97,-920.75 571.9,-546.89z"/>
  <path class="fil1" d="M16507.35 11.07c622.95,0 1188,247.59 1602.48,649.55l-1037.9 1073.37c-146.25,-141.45 -345.37,-228.49 -564.9,-228.49 -448.87,0 -812.72,363.85 -812.72,812.72 0,448.87 363.85,812.72 812.72,812.72 224.48,0 427.62,-90.99 574.72,-238.01l1050.72 1050.72c-416.41,415.02 -990.82,671.57 -1625.12,671.57 -1271.49,0 -2302.19,-1030.69 -2302.19,-2302.03 0,-1271.49 1030.7,-2302.11 2302.19,-2302.11z"/>
  <path class="fil0" d="M12474.49 1718.14c788.35,32.23 1417.63,681.46 1417.63,1477.71 0,816.94 -662.26,1479.14 -1479.14,1479.14 -117.11,0 -231.11,-13.65 -340.36,-39.4l-9.07 -1448.49 -1166.79 -0.06 0 -3185.27 1577.73 0 0 1716.37z"/>
  <path class="fil2" d="M6064.84 10.79l2003.99 -5.96c1107.06,-10.24 2012.04,904.13 2012.04,2006.29 0,553.96 -224.57,1055.54 -587.56,1418.58l557.7 557.76 1216.12 -0.43 -3.75 636.41 -576.48 0 -2066.97 8.76 -955.78 -955.73 -1.58 946.97 -1597.73 0c0,-1539.49 -3.59,-3073.59 0,-4612.66zm3846.27 3451.2l1903.8 0.21 7.59 1157.97 -292.51 1.75 -0.79 -897.28 -1308.23 0 -309.87 -262.66zm-2272.75 -1891.25c-1.75,6.33 799.52,803.32 874.69,878.49 112.05,-112.15 181.36,-266.97 181.36,-438.05 0,-342.37 -277.53,-619.9 -619.84,-619.9 -163.38,0 -320.37,64.3 -436.21,179.46z"/>
 </g>
</svg>
