<?xml version="1.0" encoding="UTF-8"?>
<!DOCTYPE svg PUBLIC "-//W3C//DTD SVG 1.1//EN" "http://www.w3.org/Graphics/SVG/1.1/DTD/svg11.dtd">
<!-- Creator: CorelDRAW -->
<svg xmlns="http://www.w3.org/2000/svg" xml:space="preserve" width="174.525mm" height="129.291mm" version="1.1" style="shape-rendering:geometricPrecision; text-rendering:geometricPrecision; image-rendering:optimizeQuality; fill-rule:evenodd; clip-rule:evenodd"
viewBox="0 0 17010.53 12601.67"
 xmlns:xlink="http://www.w3.org/1999/xlink"
 xmlns:xodm="http://www.corel.com/coreldraw/odm/2003">
 <defs>
  <style type="text/css">
   <![CDATA[
    .fil1 {fill:#2B2A29}
    .fil0 {fill:#2B2A29}
    .fil2 {fill:#F15022}
   ]]>
  </style>
 </defs>
 <g id="Plan_x0020_1">
  <metadata id="CorelCorpID_0Corel-Layer"/>
  <path class="fil0" d="M3540.61 2.59l4084 0 0 6649.57 -2270.08 0 0 -458.07c-552.35,386.87 -1224.91,613.9 -1950.54,613.9 -1879.95,0 -3403.99,-1524.04 -3403.99,-3404.07 0,-1936.41 1608.07,-3475.79 3540.61,-3401.33zm-1821.96 3829.27l480.77 0 0 827.25c692.68,666.35 1794.33,644.94 2460.67,-47.74 326.46,-339.44 487.75,-777.09 485.86,-1213.53l-1743.02 4.55 -33.78 -1737.4c-444.32,9.34 -885.09,187.86 -1217.47,533.52 -432.11,449.19 -574.88,1070.45 -433.03,1633.34zm644.04 -2349.4l-822.86 786.87c-521.75,-545.05 307.86,-1324.8 822.86,-786.87z"/>
  <path class="fil1" d="M14652.85 7758.46c646.9,0 1233.67,257.11 1664.08,674.51l-1077.78 1114.64c-151.87,-146.9 -358.64,-237.28 -586.62,-237.28 -466.13,0 -843.96,377.83 -843.96,843.96 0,466.13 377.83,843.96 843.96,843.96 233.11,0 444.06,-94.48 596.81,-247.15l1091.12 1091.11c-432.42,430.97 -1028.9,697.39 -1687.61,697.39 -1320.36,0 -2390.68,-1070.32 -2390.68,-2390.52 0,-1320.36 1070.32,-2390.61 2390.68,-2390.61z"/>
  <path class="fil0" d="M10401.6 9531.14c818.65,33.47 1472.13,707.66 1472.13,1534.53 0,848.34 -687.72,1536 -1536,1536 -121.62,0 -239.99,-14.19 -353.45,-40.93l-9.43 -1504.17 -1211.65 -0.06 0 -3307.72 1638.39 0 0 1782.35z"/>
  <path class="fil2" d="M8726.26 15.5l2883.38 -8.58c1592.88,-14.73 2894.99,1300.89 2894.99,2886.71 0,797.05 -323.11,1518.73 -845.4,2041.08l802.44 802.52 1749.77 -0.6 -5.39 915.69 -829.46 0 -2974 12.59 -1375.2 -1375.12 -2.28 1362.53 -2298.85 0c0,-2215.05 -5.17,-4422.37 0,-6636.82zm5534.11 4965.67l2739.23 0.31 10.93 1666.13 -420.87 2.5 -1.14 -1291.02 -1882.3 0 -445.85 -377.92zm-3270.1 -2721.17c-2.5,9.11 1150.38,1155.85 1258.54,1264.01 161.21,-161.37 260.95,-384.14 260.95,-630.29 0,-492.61 -399.32,-891.92 -891.86,-891.92 -235.06,0 -460.95,92.52 -627.63,258.21z"/>
 </g>
</svg>
