<?xml version="1.0" encoding="UTF-8"?>
<!DOCTYPE svg PUBLIC "-//W3C//DTD SVG 1.1//EN" "http://www.w3.org/Graphics/SVG/1.1/DTD/svg11.dtd">
<!-- Creator: CorelDRAW -->
<svg xmlns="http://www.w3.org/2000/svg" xml:space="preserve" width="714.377mm" height="125.73mm" version="1.1" style="shape-rendering:geometricPrecision; text-rendering:geometricPrecision; image-rendering:optimizeQuality; fill-rule:evenodd; clip-rule:evenodd"
viewBox="0 0 54225.16 9543.61"
 xmlns:xlink="http://www.w3.org/1999/xlink"
 xmlns:xodm="http://www.corel.com/coreldraw/odm/2003">
 <defs>
  <style type="text/css">
   <![CDATA[
    .fil0 {fill:white}
   ]]>
  </style>
 </defs>
 <g id="Plan_x0020_1">
  <metadata id="CorelCorpID_0Corel-Layer"/>
  <path class="fil0" d="M3351.26 6592.03c-0.44,-0.65 -1.01,-2.5 -1.18,-2.04 -0.16,0.46 -0.94,-1.6 -1.15,-2.06 -18.32,-38.49 -61.86,-231.48 -70.36,-274.03 -42.1,-210.51 -56.04,-379.6 -56.04,-606.99 0,-17.71 -1.5,-36.46 0.87,-53.84l6.03 -103.41c27.92,-256.83 65.58,-431.53 170.16,-666.68l57.26 -110.1c94.84,-156.56 142.8,-223.63 268.58,-349.4 61.54,-61.54 109.11,-101.42 179.89,-154.83 10.57,-7.98 21.35,-15.63 31.76,-22.97 11.7,-8.26 21.26,-15.36 34.08,-23.85 45.51,-30.14 89.28,-57.47 137.5,-84.67 17.61,-9.94 21.47,-7.69 37.09,2.79 12.31,8.25 19.84,17.22 30.29,27.66 19.56,19.57 36.76,36.77 56.33,56.34 19.44,19.44 33.91,36.97 53.07,56.34l119.69 105.62c23.14,17.28 41.54,31.04 65.57,47.08 77.55,51.73 207.84,112.01 335.38,112.01 109,0 177.63,-9.73 275.89,-49.19 34.12,-13.69 61.34,-26.21 93.17,-42.01 80.16,-39.74 97.84,-67.2 216.88,0.9l95.44 68.71c18.64,15.61 37.82,38.62 49.23,60.2 -25.45,0 -37.84,3.25 -61.19,3.18 -15.09,-0.04 -43.59,2.29 -59.8,4.58 -127.62,17.97 -201.35,25.04 -332.82,59.86 -112.48,29.79 -187.98,51.34 -297.51,95.16 -16.68,6.66 -29.75,11.36 -45.81,18.57 -16.92,7.58 -30.92,12.14 -47.21,20.37l-174.61 86.1c-100.3,59.87 -183.75,107.16 -276.77,180.28l-127.7 104.04c-49.96,44.01 -153.09,148.71 -194.6,198.06l-103.06 128.68 -177.77 279.27 -65.61 130.72c-7.53,14.95 -13.29,28.82 -20.37,44l-57.79 141.75c-25.7,72.17 -43.88,118.88 -65.95,194.76l-28.97 103c-10,33.67 -16.87,69.83 -26.02,105.94 -3.99,15.72 -8.15,36.65 -11.39,52.97 -3.73,18.74 -10.49,37.47 -10.49,57.11zm16793.25 560.85l0 2339.32 674.8 0 0 -2339.32c0,-14.8 -4.47,-19.28 -19.28,-19.28l-636.24 0c-14.81,0 -19.28,4.48 -19.28,19.28zm24093.6 2339.32l1619.52 0 0 -552.7 -951.14 0 0 -1805.9 -668.38 0 0 2358.6zm-16053.83 -2339.32l0 533.42 700.51 0 0 1805.9 674.8 0 0 -1805.9 700.51 0 0 -552.7 -2056.54 0c-14.81,0 -19.28,4.48 -19.28,19.28zm24414.94 1458.86l0 880.46 674.8 0 0 -880.46c0,-31.96 90.71,-155.39 113.15,-188.91 161.1,-240.72 318.56,-495.53 479.37,-735.27 20.94,-31.21 37.83,-56.7 59.15,-88.67l299.48 -465.3 -758.35 0c-42.78,80.86 -526.48,836.82 -533.41,841.9l-129.77 -210.85c-57.58,-89.75 -355.95,-553.05 -397.22,-631.05l-758.35 0c4.9,18.33 42.27,73.17 55.26,92.56l422.37 644.46c37.82,64.1 78.97,119.57 118.8,183.26l238.97 365.13c20.9,31.46 115.75,162.7 115.75,192.73zm-30108.97 -449.87c2.03,24.39 42.14,116.58 54.13,145.1l190.09 420.45 -507.71 0c56.54,-106.86 195.96,-409.53 242.2,-529 7.23,-18.68 7.25,-26.26 21.29,-36.55zm-1330.32 1330.33l713.36 0 163.14 -326.52 884.41 -1.24 173.52 327.76 700.51 0c-2.67,-32.09 -92.8,-185.32 -111.38,-222.81l-473.45 -895.43c-12.93,-26.01 -24.38,-50.57 -39.79,-75.88 -58.85,-96.64 -170.99,-333.29 -234.49,-446.74 -15.36,-27.42 -26.86,-47.37 -40.62,-75.06 -13.58,-27.33 -347.75,-650.22 -353.47,-674.8l-115.68 0c-13.03,24.61 -26.42,47.12 -38.64,70.61l-119.89 227.15c-115.96,233.87 -278.55,510.69 -394.16,743.37l-237.74 449.91c-12.77,25.76 -25.88,44.84 -38.66,70.6l-398.41 751.97c-9.5,19.11 -33.84,59.46 -38.55,77.13zm11548.74 -1214.65c0,139.58 2.83,230.2 39.87,365.01 40.37,146.9 115.54,315.17 215.53,427.14 100.86,112.93 210.79,222.62 350.83,291.83 162.03,80.08 287.73,135.41 481.7,160.98 251.12,33.11 476.34,26.78 722.68,-19.17 97.15,-18.13 256.14,-64.97 348.75,-113.97l0 -591.25 -151.81 53.83c-280.59,93.42 -625.48,137.5 -914.28,41.83 -103.34,-34.23 -207.75,-101.89 -276.18,-186.54 -66.99,-82.87 -104.19,-146.45 -126.72,-258.88 -39.78,-198.52 3.86,-369.86 130.31,-519.77 37.6,-44.57 86.27,-89.01 139,-118.08 21.81,-12.02 31.61,-18.89 53.49,-30.06 240.82,-122.93 574.19,-111.58 830.06,-47.94 54.65,13.59 112.92,30.57 162.89,49.19l112.39 43.29c16.08,6.38 28,14.79 28,-10.16l0 -552.69c0,-46.42 -280.94,-116.8 -313.29,-123.73 -97.43,-20.87 -183.57,-31.17 -285.33,-42.43l-313.05 -0.02c-144.25,15.53 -311.25,42.88 -448.02,98.24 -147.16,59.58 -226.25,94.27 -355.4,197.3 -269.81,215.25 -431.42,530.69 -431.42,886.04zm-2050.12 -1124.67l0 2339.32 1780.2 0 0 -552.7 -1105.39 0 0 -385.6 899.73 0 0 -520.56 -899.73 0 0 -347.04 1053.97 0 0 -552.7 -1709.5 0c-14.8,0 -19.28,4.48 -19.28,19.28zm-15610.39 0l0 2320.04c0,14.81 4.47,19.28 19.28,19.28l1767.33 0 0 -533.42c0,-14.81 -4.47,-19.28 -19.28,-19.28l-1092.53 0 0 -385.6 899.73 0 0 -520.56 -899.73 0 0 -347.04 1053.97 0 0 -552.7 -1709.49 0c-14.81,0 -19.28,4.48 -19.28,19.28zm34112.79 1163.23c0,208.76 53.31,397.13 124.16,537.79 18.1,35.94 39.88,72.85 60.88,106.21 11.99,19.02 21.84,29.92 34.7,48.86 62.71,92.35 205.45,227.3 300.45,284.37 112.05,67.32 205.56,119.03 338.47,162.81 354.95,116.91 697.54,104.29 1064.57,31.27 125.84,-25.03 197.19,-46.71 317.34,-87.53 36.06,-12.26 63.09,-27.91 98.75,-36.22 0,-314.99 -4.61,-663.3 0.38,-977.23 0.43,-27.29 6.35,-51.04 -19.66,-51.04l-623.39 0 0 578.41c0,27.88 -51.59,24.6 -98.2,30.33 -251.89,30.97 -512.4,-6.33 -699.72,-157.85 -122.69,-99.25 -217.49,-265.24 -217.49,-431.61 0,-130.92 7.53,-221.66 75.81,-335.49 44.16,-73.61 91.57,-123.7 159.14,-175.05 324.94,-246.88 891.87,-163.36 1243.25,-22.95 23.74,9.49 59.13,26.53 83.47,32.2l0 -591.25 -159.84 -65.09c-177.48,-63.8 -385.88,-103.07 -579.27,-101.96 -44.16,0.25 -67.23,-7.56 -102.74,-6.94 -28.87,0.51 -27.7,4.55 -51.8,6.56 -17.43,1.45 -39.71,0.4 -57.58,0.26 -109.99,-0.87 -288.47,35.42 -391.95,64.35 -137.75,38.51 -235.1,83.75 -356.18,157.95 -15.23,9.33 -22.97,13.35 -35.93,21.91 -151.01,99.58 -297.3,259.37 -376.95,419.95 -26.98,54.4 -48.6,100.76 -68.91,162.45 -36.65,111.29 -61.75,250.06 -61.75,394.54zm-10880.36 -1195.36l0 2371.45 661.95 0 0 -1137.53 91.97 68.69c16.87,13.78 30.53,22.38 47.42,36.13l606.04 480.07c63.09,48.2 733.14,584.76 751.99,584.76l83.55 0 0 -2371.45c0,-14.8 -4.47,-19.28 -19.28,-19.28l-629.81 0c-31.17,0 -19.29,60.63 -19.28,122.11l0 1021.84 -89.14 -71.53c-32.19,-25.65 -60.23,-47.75 -92.81,-74.28 -16.9,-13.76 -30.52,-22.36 -47.43,-36.12 -16.83,-13.72 -29.9,-24.47 -46.14,-37.41l-186.37 -147.82c-32.15,-25.62 -60.31,-47.33 -93.6,-73.5l-372.75 -295.63c-31.28,-24.57 -548,-439.79 -562.76,-439.79 -58.89,0 -83.55,-8.14 -83.55,19.28zm-12885.49 1703.07l0 -32.13c0,-94.13 126.93,-177.22 192.8,-212.08 21.31,18.52 39.28,33.82 62.35,53.34l373.05 321.03c22.3,20.73 43.9,32.97 59.46,56.22 -28.65,0.64 -110.89,32.13 -224.94,32.13 -128.05,0 -220.79,1.97 -336.41,-55.62 -62.11,-30.94 -126.31,-84.58 -126.31,-162.89zm385.6 -1240.35c62.53,0 121.03,8.52 168.24,43.84 80.32,60.12 93.38,146.36 30.28,225.37 -15.8,19.79 -44.91,46.22 -67.2,61.34 -15.59,10.58 -24.93,14.39 -40.09,24.18 -32.75,21.13 -94.28,61.16 -129.79,69.43 -268.83,-180.03 -171.39,-424.16 38.56,-424.16zm-514.13 674.8c-173.25,91.67 -376.51,226.33 -445.91,421.7 -28.4,79.97 -20.06,57.08 -32.55,141.01 -20.89,140.38 44.57,289.29 124.86,395 196.66,258.94 608.31,327.63 919.15,327.63 248.33,0 473.6,-68.19 636.24,-154.24 188.37,126.14 39.75,102.83 366.32,102.83 156.38,0 312.76,0 469.15,0l-345.45 -329.35c-19.1,-19.27 -34.89,-36.54 -54.54,-54.72 -13.85,-12.81 -18.51,-13.62 -32.11,-25.73 -13.58,-12.1 -15.58,-17.13 -30.63,-27.21 24.78,-37 54.14,-75.81 75.06,-117.74 21.97,-44.04 44.35,-93.3 59.21,-140.01 30.06,-94.44 52.1,-217.01 52.1,-339.93 0,-54.42 -6.43,-81.77 -6.43,-134.96l-559.12 0c0,185.35 12.58,82.56 -38.56,302.05l-168.01 -134.04c-20.81,-16.95 -150.29,-129.92 -172.6,-135.88l0 -12.85c96.3,-22.44 248.58,-143.22 326.17,-220.1 152.64,-151.26 212.32,-408.11 117.25,-621.76 -97.58,-219.32 -363.32,-366.27 -597.25,-398.89 -32.27,-4.5 -72.06,-3.35 -107.03,-8.81 -39.76,-6.21 -165.93,6.9 -201.99,15.52 -66.5,15.89 -115.24,28.31 -173.41,51.53 -198.66,79.32 -376.43,246.68 -419.58,467.29 -29.06,148.55 14.54,324.66 86.56,444.18 57.29,95.08 134.22,159.31 153.1,187.51zm10083.45 -1105.39l0 2339.32 674.8 0 0 -919.02 964.01 0 0 919.02 674.8 0 0 -2358.6 -674.8 0 0 886.89 -964.01 0 0 -886.89 -655.52 0c-14.81,0 -19.28,4.48 -19.28,19.28zm-23508.78 -32.13l0 2371.45 642.67 0 0 -1163.23 571.98 449.86c27.58,20.64 55.6,45.56 83.54,64.27l163.38 -125.82c94.11,-73.52 371.3,-278.42 448.87,-354.46 16.37,-16.05 20.6,-27.8 43.27,-33.85l0 1163.23 642.67 0 0 -2371.45c0,-26.83 -22.3,-19.28 -77.12,-19.28 -17.64,0 -565.89,459.66 -611.97,499.85 -50.43,43.98 -101.18,80.69 -151.15,125.19 -107.07,95.35 -266,215.8 -379.4,314.68 -14.34,12.5 -23.74,19.14 -38.54,32.15 -11.48,10.1 -28.38,22.91 -40.01,30.69l-152.59 -123.76c-88.58,-79 -212.94,-171.29 -302.05,-250.65 -51.2,-45.6 -102.65,-83.12 -154.47,-128.3 -58.36,-50.89 -598.54,-499.85 -611.97,-499.85 -54.82,0 -77.12,-7.55 -77.12,19.28zm6439.53 1818.75l-308.48 0 0 -1253.2c290.23,0 559.38,-25.46 798.77,152.38 115.41,85.74 216.64,246.81 216.64,445.3l0 64.27c0,192.09 -98.57,355.94 -210.22,438.87 -142.02,105.5 -310,152.38 -496.71,152.38zm-976.86 552.7c404.47,0 847.07,14.07 1240.54,-19.1 155.17,-13.08 270.37,-53.49 403.91,-97.36 69.04,-22.68 161.2,-70.08 224.5,-109.7 95.16,-59.57 154.09,-110.34 227.76,-189.96 189.6,-204.93 293.59,-513.66 268.65,-811.71 -6.4,-76.42 3.76,-41.5 -12.08,-155.02 -73.36,-525.47 -440.41,-798.91 -917.52,-920.51 -176.47,-44.97 -401.3,-55.23 -619.57,-55.23l-816.19 0 0 2358.6zm24363.52 -1156.81c0,-211.18 72.6,-372.04 201.12,-480.11 403.34,-339.18 1212.75,-160 1212.75,435.13 0,126.76 -8.98,198.2 -62.12,304.2 -50.67,101.09 -62.81,107.65 -138.59,182.75 -176.33,174.75 -568.25,213.54 -810.28,119.16 -233.3,-90.97 -402.88,-293.66 -402.88,-561.12zm706.93 1208.22c248.08,0 473.34,-45.38 676.69,-133.08 37.03,-15.97 75.84,-36.17 111.69,-55.4 69.9,-37.53 134.5,-86.59 194.08,-133.68 58.98,-46.62 115.32,-106.52 162.38,-165.38l97.68 -146.54c109.28,-216.29 139.57,-344.95 152.33,-587.18 1.81,-34.48 -5.2,-41.27 -6.7,-70.48 -13.81,-267.57 -77.72,-456.25 -236.83,-669.33l-73.15 -87.51c-123.74,-134.22 -338.78,-255.94 -508.51,-314.1 -77.92,-26.7 -176.27,-53.36 -262.16,-65.6 -77.04,-10.98 -146.1,-20.55 -224.08,-20.13 -37.27,0.2 -48.98,-6.13 -77.16,-6.82 -30.26,-0.73 -35.46,6.5 -70.26,6.92 -178.14,2.2 -320.34,26.01 -489.59,82.39 -131.26,43.72 -219.19,90.05 -326.87,161.55 -33.9,22.5 -62.74,45.96 -94.9,72.19 -78.11,63.69 -175.7,169.02 -230.17,258.25 -12.53,20.52 -19.01,31.8 -30.58,52.97 -11.54,21.14 -20.5,32.37 -29.89,53.66 -54.98,124.69 -93.51,234.95 -109.3,379.12 -31.3,285.7 14.54,548.68 164.4,793.22 43.22,70.53 56.01,84.32 103.62,140.59 41.55,49.13 73.51,82.73 125.51,125.13 178.14,145.27 306.36,207.78 540.96,275.23 58.59,16.84 212.86,41.93 280.5,47.26 53.57,4.21 104.82,6.68 157.81,6.76l2.53 0zm4344.43 -1227.5c0,-101.31 26.53,-199.53 57.91,-269.85 7.77,-17.41 16.12,-33.79 26.85,-50.27 147.34,-226.3 365.77,-309.69 641.46,-309.69 162.41,0 363.86,58.39 477.14,159.1 14.76,13.12 23.98,24.77 38.64,38.48 7.62,7.12 13.16,11.28 20.26,18.29 5.15,5.09 13.81,14.94 18.26,20.3 23.41,28.18 47.51,61.51 64.9,95.77 126.18,248.63 80.14,588.53 -131.68,759.69 -17.82,14.4 -21.44,20.32 -42.71,34.41 -50.86,33.69 -94.37,61.16 -154.73,83.06 -302.95,109.9 -693.91,53.82 -898.74,-208.43 -73.19,-93.7 -117.56,-244.97 -117.56,-370.87zm-674.8 -57.84c0,194.7 7.26,323.46 79.87,504.96 60.27,150.68 138.15,275.39 252.71,389.96 31.06,31.07 52.15,47.7 85.99,74.67 212.22,169.08 394.57,239.13 665.72,291.86 269.51,52.41 629.38,12.4 863.8,-65.26 34.8,-11.53 81.96,-31.16 114.79,-45.88l159.45 -84.77c134.2,-90.76 195.3,-132.51 307.77,-270.63 48.02,-58.96 90.43,-130.1 126.3,-201.46 163.51,-325.32 155.8,-728.72 4.41,-1062.78 -32.34,-71.38 -74.55,-137.31 -121.35,-199.98 -13.37,-17.91 -18.92,-25.92 -34.68,-42.45 -80.08,-83.95 -61.98,-75.96 -168.26,-159.5 -214.74,-168.78 -488.65,-261.96 -761.82,-285.72 -42.29,-3.68 -115.19,-2.28 -158.17,-9 -99.12,-15.51 -324.78,22.09 -431.63,42.95 -336.16,65.62 -694.54,295.36 -850,608.85 -77.24,155.74 -134.91,325.99 -134.91,514.18zm-34234.9 -2069.39l1767.34 0c15.88,-30.01 34.42,-58.59 52.63,-88.76l641.81 -1054.84c17.52,-29.28 34.44,-56.91 53.07,-88.32l216.87 -355.1c35.14,-59.08 70.55,-115.07 106.85,-175.92l644.7 -1064.8c-74.54,-111.31 -248.9,-409.02 -327.4,-540.2l-537.15 -889.57c-12.93,-16.3 -1.94,-10.79 -22.32,-16.23 -5.37,23.04 -62.21,112.42 -77.12,134.96l-1867.37 3068.31c-54.85,91.61 -109.56,178.03 -163.1,267.49l-488.79 802.97zm2885.58 -4742.89l45.35 70.33c15.01,25.09 29.81,49.71 45.84,76.27 30.83,51.08 58.37,97.64 90.01,147.77 31.4,49.77 59.24,98.84 89.08,148.71 29.31,48.97 59.95,99.56 89.26,148.53l1076.4 1783.48c120.41,200.23 238.09,393.66 358.32,592.82l986.47 1635.62c30.7,51.48 60.13,104.61 92.01,152.21l1760.91 0c-5.55,-23.82 -40.42,-74.84 -55.06,-99.19l-290.77 -480.43c-40.59,-67.24 -78.28,-127.86 -118.92,-195.99l-1054.73 -1740.88c-40.78,-67.81 -79.92,-130.68 -118.97,-195.93l-116.04 -192.44c-41.6,-62.9 -77.36,-129.81 -118.39,-196.52 -79.88,-129.84 -154.9,-252.91 -233.04,-383.91 -307.61,-515.66 -630.38,-1032.65 -938.3,-1548.83l-235.42 -387.97c-39.84,-66.79 -76.57,-125.46 -116.43,-192.04 -40.47,-67.59 -76.63,-131.16 -118.07,-196.84l-175.13 -287.59c-13.45,-22.48 -51.85,-79.01 -57.48,-103.19l-12.85 0c-5.27,19.74 -39.57,72.06 -51.42,89.97l-711.33 1171.68c-37.28,62.52 -78.14,121.72 -111.29,184.34zm31850.6 96.4l2320.03 0 0 4646.49 1529.55 0 0 -4646.49 2313.61 0c14.81,0 19.28,-4.47 19.28,-19.28l0 -1510.27 -6182.46 0 0 1529.55zm-19755.6 1484.57c0,301.68 19.82,508.6 86.1,800.78 44.28,195.19 111.79,365.28 186.54,546.11 85.01,205.67 245.72,448.52 377.35,625.21 65.79,88.32 138.98,168.59 216.13,246.58 18.19,18.38 23.42,30.61 41.4,48.58l144.84 131.51c127.56,118.59 273.12,219.09 420.6,312.04 316.25,199.31 679.89,343.03 1057.39,407.89 176.81,30.38 321.54,47.13 503.3,49.39 36.49,0.46 46.9,9.88 82.14,5.97 144.11,-15.99 230.88,-3.48 429.03,-34.13 110.42,-17.08 208.9,-35.96 306.06,-60.26 144.15,-36.05 275.79,-79.95 411.86,-134.41l130.41 -55.97c190.93,-78.8 403.66,-217.58 570.09,-342.5l298.7 -253.99 197.07 -214.24c9.21,-11.79 11.95,-13.32 20.98,-24 14.7,-17.39 25.97,-33.05 39.7,-50.27 110.89,-139.18 202.48,-285.94 293.75,-438.89 70.24,-117.68 124.3,-250.4 175.33,-377.37 36.42,-90.65 62.86,-176.09 91.64,-274.68 28.53,-97.71 46.64,-202.8 69.94,-302.81l-1587.39 0c-61.97,117.1 -47.68,141.38 -154.56,308.17l-66.62 94.04c-11.39,15.2 -22.48,28.11 -34.41,42.71l-109.13 122.24c-28.45,28.49 -52.51,46.24 -80.23,74 -25.19,25.22 -60.41,49.53 -89.39,71.28 -540.75,405.86 -1313.98,412.79 -1861.95,0.07 -26.82,-20.21 -47.79,-38.17 -75.3,-59.66 -51.58,-40.31 -97.77,-86.91 -139.54,-136.81l-122.09 -147.83c-201.27,-267.07 -327.13,-666.95 -282.06,-1063.44 48.85,-429.72 248.19,-801.35 580.39,-1064.83 76.76,-60.88 159.05,-111.02 245.44,-159.45 297.52,-166.79 689.24,-218.37 1021.39,-151.48 176.03,35.45 343.59,95.75 494.53,186.69l160.27 109.66c183.74,136.91 333.98,323.55 436.13,527.87l65.04 140.61c5.87,15.17 10.93,39.33 31.36,39.33l1568.11 0c-2.92,-131.09 -135.56,-538.15 -192.97,-668.2 -124.19,-281.31 -263.13,-518.11 -455.29,-759.36l-79.57 -93.95c-42.08,-44.18 -99.99,-117.76 -147.13,-154.92 -40.84,-32.2 -69.96,-73.97 -112.04,-106.47 -18.89,-14.59 -25.88,-25.88 -43.17,-40.38 -111.63,-93.62 -225.84,-182.38 -350.31,-260.22 -308.68,-193.04 -611.22,-324.66 -976.77,-411.4 -338.49,-80.32 -771.56,-97.57 -1129.73,-47.35 -463.99,65.05 -904.05,236.01 -1291.98,494.63l-164.05 118.73c-140.83,112.5 -273.78,230.13 -396.04,362.3 -16.7,18.05 -23.29,29.22 -41.77,48.21 -165.36,169.85 -392.99,536.61 -486.66,747.26 -170.62,383.7 -282.86,803.04 -282.86,1227.41zm-1066.83 610.53l-1593.81 0c-6.38,76.63 -130.17,278.47 -183.8,356.05 -12.66,18.32 -22.78,32.27 -34.68,48.86 -42.29,58.96 -96.85,110.44 -143.19,165.29l-80.82 73.42c-390.37,312.49 -823.6,453.58 -1377.94,334.9 -51.21,-10.96 -102.44,-26.19 -150.23,-42.57 -136.01,-46.6 -269.97,-112.41 -382.49,-195.91l-212.71 -179.32c-415.51,-415.51 -583.64,-1085.9 -340,-1686.39 50.24,-123.85 109.38,-228.95 186.36,-334.2l118.21 -145.28c15.29,-16.52 28.94,-28.72 45.07,-44.91 16.5,-16.55 25.67,-26.64 43.38,-40.17 49.15,-37.53 93.63,-82.69 145.19,-118.31 186.25,-128.63 374.47,-219.84 622.29,-264.58 485.95,-87.76 932.5,54.58 1230.34,293.8l70.63 57.9c11.16,8.98 13.16,8.8 25.12,19.86 58.04,53.68 122.28,119.15 171.42,182.04 55.15,70.6 97.9,129.74 143.03,210.44 37.4,66.87 93.33,165.38 111.23,242.23l1330.33 0c72.71,0 154.51,3.64 225.97,0.6 43.02,-1.84 29.82,-11.77 18.86,-65.45 -6.68,-32.75 -12.27,-64.98 -19.83,-95.9l-69.91 -257.85c-33.59,-110.3 -81.8,-218.55 -125.68,-324.18 -53.41,-128.58 -123.93,-245.56 -194.5,-364.62l-134.38 -199.81c-100.84,-146.5 -259.36,-318.77 -389.71,-439.33 -86.68,-80.17 -180.35,-155.33 -275.82,-225.46 -24.12,-17.72 -40.7,-31.1 -67.11,-48.57 -284.5,-188.22 -577.2,-339.87 -910.1,-433.07 -342.32,-95.85 -586.88,-117.03 -949.8,-117.03 -180.06,0 -351.47,30.35 -503.07,56.05 -150.34,25.49 -297.34,71.49 -439.3,119.82 -240.24,81.77 -532.06,227.69 -736.79,381.45l-198.42 148.62c-15.11,12.3 -21.84,21.08 -37.56,33.13 -110.02,84.3 -329.97,317.54 -411.38,424.1l-177.22 246.93c-159.15,242.84 -267.06,487.77 -360.13,764.54 -49.47,147.1 -83.55,299.26 -104.91,454.21 -10.13,73.45 -31.74,234.59 -32.72,314.32 -0.95,76.91 -6.19,279.23 2.01,339.12 4.49,32.73 8.87,93.72 11.1,130.29 22.32,365.74 170.2,790.26 317.05,1083.96 90.59,181.16 200.03,357.04 327.64,514.26 52.1,64.18 101.69,128.37 160.35,186.69 46.1,45.83 87.83,100.35 138.13,144.65l73.78 67.61c15.45,14.29 22.78,16.94 38.64,32.05 15.23,14.5 19.83,16.38 35.02,29.24l116.72 95.36c26,20.8 53.22,39.77 81.86,59.53 110.98,76.62 224.1,153.32 345.26,213.86 33.67,16.83 62.52,31.1 94.34,47.05 300.9,150.93 630.79,242.97 965.94,287.26 90.25,11.93 172.46,21.57 261.54,21.23 23.08,-0.08 48.07,-0.92 70.93,-0.23 32.28,0.98 33.52,7.61 63.87,6.88l128.76 -6.62c45.79,0.24 87.5,-3.2 134.56,-6.82 233.67,-18 482.67,-67.93 703.42,-144.91 171.67,-59.86 334.23,-120.67 485.58,-208.49l178.23 -104.55c87.28,-51.69 166.12,-111.57 246.22,-171.51 26.83,-20.08 52.78,-39.46 78.77,-62.61l389.43 -381.77c172.97,-214.81 289.98,-371.47 420.82,-633.15 204.04,-408.08 269.8,-821.46 280.63,-844.04zm18393.14 295.63c-36.98,-24.77 -2821.9,-2818.69 -2941.81,-2938.6l-732.64 -732.64c-18.39,-18.4 -231.5,-242.61 -252.25,-242.61l-237.78 0 0 6169.6 1535.97 0 0 -2705.63c40.72,27.27 2335.87,2332.65 2639.76,2636.55 16.4,16.39 70.71,81.94 91.58,81.94l1413.87 0c14.81,0 19.28,-4.48 19.28,-19.28l0 -6182.46 -1535.98 0 0 3933.13zm-10218.41 2268.62l5154.19 0 0 -1516.7c0,-30.94 -60.57,-19.33 -89.97,-19.28l-1715.93 0c-157.81,0 -295.79,-6.43 -449.87,-6.43 -456.29,0 -912.58,0 -1368.88,0l0 -771.2 3624.65 -6.43 0 -1516.69c0,-14.81 -4.47,-19.28 -19.28,-19.28l-3592.51 0 0 -796.91 3611.79 0 0 -1529.55 -5167.05 0 6.41 5989.68c-0.24,66.52 6.44,120.17 6.44,192.78zm-33896.9 -1463.62l6.34 350.93 14.82 184.73c5.88,41.55 8.14,83.69 13.26,121.91 36.94,275.81 66.38,411.89 131.03,670.41 22.86,91.43 54.16,173.01 76.63,254.89 24.84,90.55 111.6,300.02 148.76,388.76 7.04,16.81 14.63,31.94 20.69,46.89 18.75,46.14 41.52,91.25 63.8,135.76l45.02 90.15c79.9,160.07 170.96,314.95 270.14,463.71l81.09 118.47c63.59,95.42 159.29,216.42 233.4,304.11l94.21 108.55c10.71,13.88 18.97,20.9 29.85,34.54 19.76,24.77 43.44,46.31 65.72,69.45l32.12 35.47c45.32,45.29 88.26,88.26 133.57,133.57 23.01,23.01 44.4,41.16 67.55,64.42l141.68 125.46c43.15,42.91 169.61,138.63 222.91,179.42 12.27,9.39 23.04,18.26 36.25,28.12l39.1 28.49c14.36,10.32 24.9,18.57 39.17,28.42 223.41,154.18 428.74,278.36 671.86,399.93l135.95 63.59c98.56,40.91 183.02,79.37 287.34,118.21 129.27,48.15 268.18,96.38 403.48,130.81l269.05 65.69c50.22,11.86 40.02,16.08 70.68,-11.07 17.12,-15.17 36.45,-34.76 55.49,-47.51 -3.67,-44.11 -9.27,-94.12 -12.68,-138.58l-17.17 -288.61c-6.06,-44.24 -1.78,-101.94 -7.89,-146.6l-13.75 -684.69c-0.02,-31.52 3.34,-50.45 3.23,-80.45 -0.1,-27.9 -0.01,-55.8 -0.01,-83.69 0,-32.35 3.39,-54.17 3.24,-83.66 -0.36,-71.67 5.45,-134.68 6.29,-202.93l6.73 -122c4.08,-49.64 8.75,-105.73 12.52,-154.85 9.91,-129.27 21.18,-256.81 39.78,-385.08 37.79,-260.54 81.41,-518.94 167.65,-765.75 72.74,-208.21 188.75,-432.3 335.96,-597.44 13.66,-15.33 26.22,-28.9 38.89,-44.79 38.05,-47.69 171.48,-164.98 220.25,-201.38 17.46,-13.03 32.09,-24.79 49.95,-36.95 68.81,-46.89 136.67,-91.52 211.99,-129.18 19.68,-9.84 37.02,-18.51 55.79,-27.9l115.38 -52c60.56,-24.37 126.96,-49.71 190.39,-67.09 44.32,-12.15 87.16,-26.23 134.38,-36.21 117.63,-24.9 239.82,-49.98 361.56,-60.07l80.16 -6.75c54.65,-1.39 105.58,-6.41 164.18,-6.41 99.75,0 210.39,-0.99 306.26,9.16 33.82,3.58 61.57,3.78 94.71,8.29 75.9,10.35 191.89,20.68 264.2,44.8 35.77,11.94 74.55,27.39 104.6,49.9 29.09,21.79 55.99,43.68 79.22,72.05 16.48,20.12 28.34,37.73 41.59,61.41 19.97,35.71 32.25,71 44.84,109.65 44.1,135.38 35,368.76 57.87,392.73 13.67,14.33 39.65,-0.08 54.64,-5.84 17.39,-6.68 31.01,-12.07 48.29,-19.3 153.63,-64.31 273.79,-185.81 326.01,-343.46 82.59,-249.35 22.93,-525.21 -51.5,-768.43 -4.53,-14.82 -7.42,-26.23 -13.4,-41.31l-56.5 -152.71c-40.44,-100.48 -83.18,-193.84 -130.31,-288.11 -6.33,-12.66 -10.68,-21.69 -17.12,-34.38l-35.91 -67.09c-20.12,-33.06 -39.07,-66.93 -54.01,-103.69 -21.78,-53.6 -21.21,-123.8 -0.05,-177.66 25.53,-64.99 74.86,-124.1 121.82,-174.29l35.14 -38.89c60.66,-74.9 46.62,-89.48 3.83,-178.64 -7.01,-14.58 -13.64,-28.99 -21.78,-42.59 -52.74,-88.08 -87.02,-151.4 -150.38,-235.85l-114.41 -143.07c-6.49,-7.73 -7.11,-10.05 -14.63,-17.56l-45.66 -50.89c-14.12,-18.29 -33.24,-34.4 -47.87,-51.9l-181.67 -172.37c-7.54,-7.33 -10.32,-7.95 -17.69,-14.5 -85.89,-76.51 -178.71,-146.75 -272.86,-213.16l-157.5 -103.21c-67.24,-39.99 -134.98,-81.24 -205.05,-116.8l-131.98 -64.36c-8.72,-4.22 -13.81,-5.53 -22.58,-9.61l-66.8 -29.75c-31.9,-12.71 -59.81,-25.7 -91.59,-37.16 -182.04,-65.62 -320.03,-108.49 -509.83,-140.33 -413.59,-69.39 -868.09,-41.13 -1268.51,58.96 -152.77,38.19 -301.09,82.18 -446.1,139.68l-307.93 129.81c-34.32,15.91 -64.34,33.48 -98.66,49.38 -9.5,4.4 -16.46,6.35 -24.79,10.63l-260.03 142.29c-90.52,54.78 -180.77,109.87 -269.02,168.71l-360.56 260.64c-7.64,5.97 -12.87,9.29 -20.17,15.23l-100.76 82.71c-6.91,5.4 -14.22,10.87 -21.56,17.06l-38.84 31.98c-56.67,53.12 -117.79,100.72 -173.71,154.58l-96.62 90.05c-42.06,42.02 -107.03,125 -107.03,185.87 0,36.51 18.32,45.07 48.28,45.07l538.75 -204.75 189.07 -61.98c129.29,-39.58 258.69,-75.49 390.31,-108.58 182.73,-45.94 371.91,-81.07 559.35,-103.69 74.31,-8.97 153.75,-19.52 227.94,-23.11 24.22,-1.17 55.75,-0.84 79.59,-4.11l161.81 -5.56c319.06,0 586.79,27.43 890.91,110.08l115.31 35.96c90.52,30.19 180.18,65.36 265.12,108.24l100.83 50.45c17.33,9.69 31.71,17.91 49.1,28.15 16.59,9.74 30.51,18.28 46.27,27.75 79.75,47.91 147.38,102.68 219.5,160.3 7.33,5.86 11,11.12 18.06,17.35l59.56 56.31c16.8,16.71 63.52,67.91 63.52,87.75 0,73.74 -70.61,156.16 -112.65,212.42 -8.77,11.73 -38.42,51.34 -48.28,57.94 -4.3,-8.98 -12.09,-70.85 -16.05,-86.93 -7.25,-29.45 -13.67,-55.5 -22.96,-83.26 -8.17,-24.43 -18.51,-52.72 -29.63,-76.58l-77.08 -132.14c-37.27,-49.83 -80,-96.45 -125.4,-138.52 -68.28,-63.28 -172.58,-127.55 -258.59,-163.05 -38.88,-16.05 -71.84,-32.43 -112.01,-45.71 -59.08,-19.54 -197.1,-62.36 -256.28,-62.36 -13.56,28.26 -23.97,86.65 -30.81,120.46 -21.83,107.81 -18.76,239.01 27.54,333.41 88.99,181.4 298.7,241.34 492.51,241.34 68.54,0 106.71,-35.31 144.24,23.12 8.18,12.74 18.77,29.73 22.95,44.34 2.19,7.67 2.68,1.26 0.18,6.56 -16.01,7.69 -165.74,16.1 -199.56,16.1 -141.15,0 -281.59,-27.61 -395.92,-109.39 -60.25,-43.11 -102.23,-106.31 -132.01,-173.75 -13.69,-30.98 -23.77,-65.48 -30.75,-104.44 -11.76,-65.72 -12.11,-140.4 -4.3,-207.59 3.32,-28.52 6.56,-54.8 12.61,-80.74 -16.14,0 -39.36,-4.65 -55.02,-6.15 -53.12,-5.07 -115.38,-13.81 -167.06,-16.39 -358.27,-17.84 -612.51,-13.99 -974.78,45.53 -423.8,69.63 -816.8,219.08 -1181.54,427.77l-149.51 91.89c-17.36,11.59 -31.55,19.96 -48.91,31.55 -17.34,11.58 -30.92,20.62 -48.3,32.16 -9.45,6.28 -13.39,9.84 -22.48,16.15 -152.77,105.71 -246.71,187.27 -383.38,302.18 -67.05,56.37 -190.39,183.83 -244.76,238.03 -94.03,93.73 -257.25,290.71 -330.96,393.23 -76.21,105.99 -149.18,215.17 -217.1,326.84l-9.56 12.96c0,-26.92 -6.35,-57.39 -6.54,-83.57l-6.5 -173.75c-3.92,-47.38 -2.81,-104.69 -3.1,-154.7l16.16 -305.7c4.3,-99.96 27.55,-242.73 44.12,-342.11 6.45,-38.67 12.81,-73.06 19.98,-108.77 7.67,-38.16 15.32,-71.91 23.04,-108.92 42.26,-202.3 108.24,-397.96 181.82,-590.64 12.57,-32.92 24.58,-59.77 37.24,-91.5 45.98,-115.34 106.97,-241.35 167.93,-350.26 45.99,-82.16 90.21,-165.43 141.91,-244.32l129.97 -195.12c9.16,-13.76 17.72,-23.58 27.06,-37.32 17.37,-25.53 36.28,-48.68 54.99,-73.76l188.2 -230.21c75.65,-85.82 157.1,-166.67 238.15,-247.85l135.04 -122.45c6.76,-5.69 9.78,-10.2 16.57,-15.62 41.06,-32.87 80.94,-70.61 122.75,-102.55 24.57,-18.78 46.65,-37.41 72.22,-56.53 62.31,-46.58 123.67,-93.64 188.52,-136.58l156.32 -101.16c14.77,-8.84 25.89,-16.24 39.84,-24.53l164.19 -93.3c13.87,-8.02 27.02,-14.92 41.98,-22.38 73.01,-36.47 141.96,-74.67 217.94,-107.15 122.74,-52.47 241.39,-103.34 369.06,-145.91 66.14,-22.06 127.53,-41.38 196.25,-61.25 137.5,-39.73 277.94,-72.14 421.4,-96.79 73.46,-12.62 148.59,-24.65 224.42,-33.07 788.54,-87.56 1513.34,36.78 2169.4,331.46 100.67,45.22 200.86,92.86 296.19,147.96 13.52,7.81 28.03,15.59 41.72,22.67 93.79,48.42 222.39,135.68 314.77,196.98l408.92 321.7c7.86,6.29 9.81,7.1 17.42,14.76l66.74 62.01c33.62,25.66 121.44,120.17 160.13,158.51 12.35,12.23 18.54,21.97 30.54,33.83 31.77,31.4 59.61,67.15 90.12,99.77l58.15 67.37c10.63,12.65 18.36,22.86 28.97,35.41 78.46,92.82 151.89,191.34 219.14,292.62 51.02,76.82 104.67,152.85 148.9,234.12 7.95,14.6 14.19,24.48 22.62,38.53 57.32,95.6 104.47,196.19 154.48,296.13l39.2 86.32c62.75,154.17 126.91,303.36 172.9,464.4l55.43 202.05c53.41,213.64 90.11,432.65 107.07,655.73 13.34,175.36 20.88,398.38 6.39,576.52 -0.83,10.32 0.51,21.52 -0.33,31.84 -7.91,97.27 -15.75,192.28 -29.76,288.88 -21.51,148.25 -46.93,289.1 -81.43,427.11 -41.25,165.08 -90.59,325.32 -150.7,483.36 -12.07,31.72 -24.78,62.46 -36.84,91.91 -36.26,88.54 -75.67,176.48 -118.45,261.35 -7.33,14.55 -11.64,28.22 -19.33,41.83l-112.7 205.92c-15.22,27.36 -31.01,51.38 -47.07,78.46 -16.36,27.61 -32.79,52.25 -49.87,78.87 -17.11,26.67 -32.12,49.85 -49.54,76 -64.84,97.27 -192.32,275.67 -276.96,360.32 -43.92,43.91 -93.37,77.95 -149.35,104.92 -107.69,51.86 -258.99,61.83 -376.53,23.45l-89.9 -35.61c-67.72,-28.21 -192.97,-85.77 -251.82,-121.54l-105.01 -59.14c-114.37,-68.79 -214.78,-139.7 -317.7,-223.03l-44.61 -39.07c-26.38,-20.13 -87.34,-81.7 -104.86,-104.35l-74.01 -90.15c-152.71,-203.72 -200.93,-376.04 -200.93,-642.34 0,-333.85 33.44,-619.4 95.22,-928.29 9.91,-49.57 19.06,-92.67 30.96,-139.63 6.55,-25.87 34.32,-119.54 34.75,-139.05 -41.29,9.62 -197.22,112.31 -237.45,145.56 -44.76,37 -146.98,117.79 -183.24,161.15l-54.8 61.07c-13.74,14.16 -23.75,26.13 -35.84,41.4l-67.4 87.09c-21.13,31.25 -42.38,60.78 -61.6,92.89 -102.38,170.97 -177.46,355.11 -217.14,552.11 -30.62,152.02 -42.64,308.66 -40.63,471.39l7.04 121.71c24.21,217.31 34.29,295.58 87.09,508.36l37.57 133.02c6.69,21.85 13.34,43.4 20.93,65.97 69.4,206.53 157.35,400.52 261.61,591.32 89.34,163.48 193.32,316.58 301.79,467.46 46.61,64.82 97.66,131.03 150.67,190.5l98.27 114.16c30.4,30.37 69.45,79.26 102.95,112.7 42.38,42.31 83.15,86.53 127.1,127.18 22.73,21.02 48.09,49.65 81.81,32.06 11.46,-5.97 16.04,-8.11 28.72,-13.34 20.7,-8.55 38.54,-18.45 59.25,-27.65 37.81,-16.81 75.65,-37.76 113.77,-56.82 166.82,-83.4 327.22,-180.25 482.36,-283.67 18.12,-12.08 34.29,-22.06 51.76,-35.14l148.08 -106.18c65.34,-48.75 128.17,-102.37 192.17,-152.23 16.24,-12.65 31.58,-25.37 47.59,-39.32 52.88,-46.08 106.02,-90.76 155.95,-140.16 9.17,-9.07 15.1,-11.73 24.27,-20.8 14.7,-14.55 26.78,-27.6 41.72,-41.97l170.09 -171.08c30.61,-39.63 70.69,-71.74 101.14,-111.29 31.12,-40.4 66.83,-77.14 99.03,-116.61 169.07,-207.32 317,-423.64 452.7,-654.5 11.09,-18.85 22.1,-35.39 31.94,-54.96 5.73,-11.38 9.36,-17.57 14.84,-27.01 124.17,-213.69 244.53,-506.53 328.85,-739.73 34.78,-96.19 95.25,-299.01 116.82,-398.16 15.74,-72.27 33.63,-136.04 48.27,-209.23 19.47,-97.36 37.88,-194.28 49.58,-291.59l32.84 -308.32c0.56,-22.87 0.92,-57.04 4.02,-79.68 7.77,-56.82 1.95,-131.53 6.03,-167.77 15.35,-136.69 -13.71,-523.32 -28.84,-644.79 -11.33,-90.97 -22.1,-173.37 -36.45,-259.67 -59.54,-357.97 -164.81,-701.75 -298.39,-1034.11l-139.96 -304.21c-40.78,-81.57 -82.23,-162.62 -129.49,-240.65 -32.54,-53.75 -62.19,-108.31 -96.64,-160.85 -44.03,-67.18 -85.4,-137.07 -133.75,-200.99l-93.8 -128.28c-52.59,-70.07 -105.86,-140.71 -164.06,-206.08 -6.8,-7.64 -9.42,-11.82 -16.09,-19.31 -46.45,-52.16 -90.39,-107.06 -140.02,-156.11 -8.78,-8.68 -10.21,-11.7 -17.82,-20.8l-147.92 -148.2c-13.12,-13.13 -23.9,-23.89 -37.01,-37.02l-173.81 -157.72c-7.89,-7.52 -12.66,-10.3 -20.93,-17.67l-80.66 -67.41c-14.6,-11.82 -27.07,-21.16 -41.28,-32.74 -88.59,-72.15 -181.01,-139.4 -275.03,-204.54 -8.71,-6.04 -14.81,-9.66 -23.24,-15.39 -88.68,-60.21 -180.47,-116.17 -272.36,-171.8 -16.82,-10.18 -30.3,-17.85 -46.71,-27.32l-143.94 -78.14c-18.18,-9.02 -29.87,-16.59 -48.27,-25.76l-149.18 -72.91c-67.8,-30.15 -136.08,-62.4 -205.94,-90.17 -106.87,-42.48 -215.14,-82.99 -324.68,-119.5 -192,-63.98 -389.58,-111.68 -588.61,-151.67 -39.46,-7.93 -83.81,-15.17 -125.85,-22.19 -78.71,-13.15 -181.5,-30.06 -261.19,-34.93 -22.72,-1.4 -44.28,-5.46 -67.56,-6.46l-137.54 -10.51c-98.12,-13.29 -289.39,-8.78 -387.11,-8.78 -97.21,0 -190.37,5.83 -280.24,12.67 -93.39,7.1 -177.12,15.21 -265.97,26.92 -41.33,5.46 -84.58,12.9 -126.32,18.51 -223.49,30.13 -607.81,125.88 -819.06,207.68 -17.95,6.95 -34.26,12.5 -52.12,18.69 -20.13,6.98 -34.64,12.46 -54.11,19.93l-313.02 131.14c-33.25,16.65 -65.39,31.15 -97.59,47.25 -96.93,48.47 -195.02,96.9 -287.86,153.08 -31.32,18.96 -59.61,35.34 -90.93,53.92 -91.94,54.51 -180.97,114.48 -268.17,175.99l-228.06 171.06c-41.07,32.79 -83.93,63.93 -121.94,100.13 -44.18,42.07 -94.05,77.39 -136.81,120.67 -6.3,6.38 -11.14,11.91 -17.71,17.69l-58.23 54.42c-27.92,22.27 -49.99,47.43 -75.31,72.74l-107.86 111.01c-7.23,7.81 -8.35,11.48 -15.99,19.41l-35.8 38.24c-5.85,7.33 -11.12,11 -17.35,18.05l-51.49 57.93c-74.66,84.45 -144.99,173.76 -212.57,263.79 -74.08,98.7 -145.32,199.3 -210.89,304.1 -46.73,74.71 -93.67,149.74 -136.8,226.9l-127.76 242.39c-8.31,16.63 -14.8,32.96 -23.56,50.46l-68.88 149.98c-172.88,404.64 -292.23,821.71 -350.75,1264.99 -11.45,86.76 -32.97,280.32 -33.04,369.29l-6.08 106.57c-2.3,20.49 -0.47,51.89 -0.47,73.56z"/>
 </g>
</svg>
