<?xml version="1.0" encoding="UTF-8"?>
<svg version="1.1" xmlns="http://www.w3.org/2000/svg" width="512" height="277">
<path d="M0 0 C1.66303921 1.94329212 3.21248835 3.8976763 4.75 5.9375 C9.0629228 11.54893719 13.47862164 17.05514559 18 22.5 C22.69371384 28.16533038 27.2979068 33.88573782 31.81640625 39.69140625 C35.464851 44.36099005 39.22013828 48.93640885 43 53.5 C47.69293817 59.16598799 52.29788888 64.88571479 56.81640625 70.69140625 C60.46485292 75.36099252 64.22020723 79.93634863 68 84.5 C75.18870473 93.18172071 82.27437377 101.95217058 89 111 C95.22625684 110.42458022 100.72504225 108.99865545 106.64453125 107.0234375 C108.47329051 106.42963581 110.30206705 105.83588734 112.13085938 105.2421875 C114.98676485 104.30527477 117.84166547 103.36537942 120.69604492 102.42382812 C123.4681999 101.51217507 126.24364298 100.61114635 129.01953125 99.7109375 C129.87577591 99.42455414 130.73202057 99.13817078 131.61421204 98.84310913 C132.40901474 98.58599152 133.20381744 98.3288739 134.02270508 98.06396484 C134.7202742 97.83381683 135.41784332 97.60366882 136.1365509 97.36654663 C138 97 138 97 141 98 C122.56147721 129.526794 122.56147721 129.526794 115 142 C118.71497528 147.02023686 122.51651454 151.9648024 126.375 156.875 C126.84695801 157.47618652 127.31891602 158.07737305 127.80517578 158.69677734 C131.35996552 163.21363762 134.97570042 167.67800211 138.63671875 172.109375 C140 174 140 174 140 176 C139.30889665 176.00146656 138.61779329 176.00293312 137.90574741 176.00444412 C120.91990306 176.04184844 103.93428364 176.10129564 86.94860172 176.18390274 C78.73371713 176.22334815 70.51892354 176.25591246 62.30395508 176.27099609 C55.12570877 176.28419506 47.94766566 176.31160791 40.76953405 176.35461307 C36.98513783 176.3768285 33.20098826 176.39293564 29.41652107 176.39188385 C9.44697027 176.39212015 -9.8962682 177.83906539 -29.68071556 180.56740189 C-36.37242907 181.43952439 -43.07536677 181.89614535 -49.8125 182.25 C-51.14729955 182.32517092 -52.48209769 182.40036689 -53.81689453 182.47558594 C-68.62183555 183.26156079 -83.14447125 183.25284362 -97.9375 182.25 C-98.92476074 182.18844727 -99.91202148 182.12689453 -100.92919922 182.06347656 C-105.83849151 181.6828623 -110.61863429 181.12098988 -115.42700195 180.05566406 C-131.06154279 176.61526891 -146.34472466 176.33491922 -162.3125 176.25 C-165.01111445 176.22388989 -167.70965207 176.19208617 -170.40820312 176.16015625 C-176.93873399 176.0871428 -183.46916043 176.0350135 -190 176 C-188.70971906 172.6579109 -187.44526219 169.99817487 -185.21484375 167.1875 C-184.68439453 166.50429687 -184.15394531 165.82109375 -183.60742188 165.1171875 C-182.49264087 163.70382773 -181.37544367 162.29237043 -180.25585938 160.8828125 C-176.30033427 155.99648213 -176.30033427 155.99648213 -175 150 C-175.69371124 148.10307069 -175.69371124 148.10307069 -176.875 146.375 C-179.61047829 141.45113908 -179.79621479 136.54295781 -180 131 C-179.34 131 -178.68 131 -178 131 C-177.46375 131.721875 -176.9275 132.44375 -176.375 133.1875 C-174.2032507 135.75930838 -172.66875603 136.97575067 -169.8515625 138.67578125 C-169.13049316 139.11446533 -168.40942383 139.55314941 -167.66650391 140.00512695 C-167.11655762 140.33343506 -166.56661133 140.66174316 -166 141 C-165.6690332 140.50822266 -165.33806641 140.01644531 -164.99707031 139.50976562 C-158.68937659 130.15892442 -152.29432445 120.91793603 -145.46533203 111.93945312 C-141.2360279 106.36376225 -137.18671334 100.67272906 -133.18334961 94.93310547 C-131.79729851 92.94928798 -130.40215141 90.97246901 -129 89 C-128.46729492 88.24847656 -127.93458984 87.49695313 -127.38574219 86.72265625 C-126.85368164 85.98917969 -126.32162109 85.25570312 -125.7734375 84.5 C-125.29052246 83.8296875 -124.80760742 83.159375 -124.31005859 82.46875 C-123.87773926 81.9840625 -123.44541992 81.499375 -123 81 C-122.34 81 -121.68 81 -121 81 C-119.29377081 82.9844852 -117.70218981 84.97852382 -116.125 87.0625 C-115.14268936 88.33782708 -114.1595868 89.6125445 -113.17578125 90.88671875 C-112.66096191 91.55622559 -112.14614258 92.22573242 -111.61572266 92.91552734 C-108.88830017 96.43422381 -106.09977903 99.90366194 -103.3125 103.375 C-102.78350098 104.03508057 -102.25450195 104.69516113 -101.70947266 105.37524414 C-100.47359568 106.91732164 -99.23689462 108.45873864 -98 110 C-94.28601048 108.50282382 -92.50259241 106.44574726 -90.0625 103.3125 C-86.37023361 98.67598187 -82.58368731 94.15397369 -78.6875 89.6875 C-77.56760158 88.4011346 -76.44781048 87.11467576 -75.328125 85.828125 C-74.77318359 85.19068359 -74.21824219 84.55324219 -73.64648438 83.89648438 C-71.06362591 80.92144811 -68.49943086 77.9305594 -65.9375 74.9375 C-65.20116333 74.07741333 -65.20116333 74.07741333 -64.44995117 73.19995117 C-63.46114797 72.04469482 -62.47245951 70.88934024 -61.48388672 69.73388672 C-59.49104529 67.40529839 -57.49635582 65.07829738 -55.50146484 62.75146484 C-54.50287817 61.58660944 -53.50450472 60.42157121 -52.50634766 59.25634766 C-49.97287723 56.29911478 -47.43642376 53.34452942 -44.89453125 50.39453125 C-40.30393447 45.06164678 -35.74238602 39.71814055 -31.3125 34.25 C-27.76488154 29.87779995 -24.04903082 25.70015578 -20.2578125 21.5390625 C-17.10540601 17.9939687 -14.134949 14.31062898 -11.14453125 10.62890625 C-9.13894595 8.17032901 -7.11997969 5.72780224 -5.0625 3.3125 C-4.51722656 2.66925781 -3.97195313 2.02601562 -3.41015625 1.36328125 C-2 0 -2 0 0 0 Z " fill="#087741" transform="translate(283,0)"/>
<path d="M0 0 C-0.87178061 1.48171515 -1.74372111 2.96333636 -2.61630249 4.44458008 C-3.39609723 5.76838838 -4.17531769 7.09253512 -4.95401001 8.41699219 C-7.11521812 12.08612529 -9.29510522 15.74214662 -11.51000977 19.37915039 C-16.96221405 28.23133941 -16.96221405 28.23133941 -21.4453125 37.59375 C-24.13971289 43.81236487 -26.87222751 47.64809834 -33.24560547 50.40283203 C-42.97208094 53.83874194 -53.18991299 55.58992871 -63.30090332 57.48168945 C-67.96141242 58.37665221 -72.60006126 59.37427386 -77.2421875 60.359375 C-117.13537969 68.74991946 -158.1260967 76.38973235 -199 77 C-200.08974121 77.02046387 -201.17948242 77.04092773 -202.30224609 77.06201172 C-235.47250654 77.61845169 -276.1141523 77.02477368 -302 53 C-306.84186115 47.9644644 -309.2284337 42.71330386 -311 36 C-308.66934897 37.14269783 -306.38578939 38.33698582 -304.109375 39.5859375 C-290.32397044 46.92746691 -276.03408747 50.12347772 -260.38671875 50.203125 C-259.46880051 50.21022995 -258.55088226 50.2173349 -257.60514832 50.22465515 C-237.84607653 50.34258403 -218.55074598 50.11287895 -199 47 C-197.46915778 46.77033348 -195.93805097 46.54242635 -194.40673828 46.31591797 C-131.49508237 36.98662171 -69.03401326 21.29911019 -8.84375 0.73901367 C-3.31601206 -1.10533735 -3.31601206 -1.10533735 0 0 Z " fill="#EC3545" transform="translate(418,103)"/>
<path d="M0 0 C8.25 0 16.5 0 25 0 C29.29 9.24 33.58 18.48 38 28 C39.5675 25.050625 41.135 22.10125 42.75 19.0625 C43.2356543 18.15250244 43.72130859 17.24250488 44.22167969 16.30493164 C44.61774414 15.55590576 45.01380859 14.80687988 45.421875 14.03515625 C45.81987305 13.2862915 46.21787109 12.53742676 46.62792969 11.76586914 C48.54390745 7.90357162 50.24896789 3.93982226 52 0 C59.92 0 67.84 0 76 0 C76 22.44 76 44.88 76 68 C69.4 68 62.8 68 56 68 C55.67 58.1 55.34 48.2 55 38 C49.72 49.55 44.44 61.1 39 73 C35.86024388 69.86024388 34.38986838 66.90332178 32.64453125 62.92578125 C32.33803146 62.2419487 32.03153168 61.55811615 31.71574402 60.8535614 C30.74152584 58.67602803 29.77691516 56.49439017 28.8125 54.3125 C28.15232253 52.83240121 27.49152226 51.35258004 26.83007812 49.87304688 C25.21162487 46.25234155 23.6062394 42.62623928 22 39 C21.67 48.57 21.34 58.14 21 68 C14.07 68 7.14 68 0 68 C0 45.56 0 23.12 0 0 Z " fill="#788188" transform="translate(98,191)"/>
<path d="M0 0 C8.25 0 16.5 0 25 0 C29.29 9.24 33.58 18.48 38 28 C39.90850069 25.13724896 41.34035728 22.33988952 42.8203125 19.23828125 C43.35527344 18.12001953 43.89023437 17.00175781 44.44140625 15.84960938 C44.99699219 14.68236328 45.55257812 13.51511719 46.125 12.3125 C46.68832031 11.13365234 47.25164062 9.95480469 47.83203125 8.74023438 C49.22339751 5.82779821 50.61196472 2.91402514 52 0 C59.92 0 67.84 0 76 0 C76 22.44 76 44.88 76 68 C69.4 68 62.8 68 56 68 C55.67 58.1 55.34 48.2 55 38 C52.916875 42.475625 50.83375 46.95125 48.6875 51.5625 C48.03612061 52.96056885 47.38474121 54.3586377 46.71362305 55.79907227 C46.19324463 56.91854248 45.67286621 58.0380127 45.13671875 59.19140625 C44.60780029 60.32779541 44.07888184 61.46418457 43.53393555 62.63500977 C41.96823617 66.06968022 40.47378117 69.52512147 39 73 C35.70818554 70.30114814 34.31310419 66.72837983 32.64453125 62.92578125 C32.33803146 62.2419487 32.03153168 61.55811615 31.71574402 60.8535614 C30.74152584 58.67602803 29.77691516 56.49439017 28.8125 54.3125 C28.15232253 52.83240121 27.49152226 51.35258004 26.83007812 49.87304688 C25.21162487 46.25234155 23.6062394 42.62623928 22 39 C21.67 48.57 21.34 58.14 21 68 C14.07 68 7.14 68 0 68 C0 45.56 0 23.12 0 0 Z " fill="#788188" transform="translate(436,191)"/>
<path d="M0 0 C-18.43852279 31.526794 -18.43852279 31.526794 -26 44 C-22.28502472 49.02023686 -18.48348546 53.9648024 -14.625 58.875 C-14.15304199 59.47618652 -13.68108398 60.07737305 -13.19482422 60.69677734 C-9.64003448 65.21363762 -6.02429958 69.67800211 -2.36328125 74.109375 C-1 76 -1 76 -1 78 C-2.03665503 78.00219984 -2.03665503 78.00219984 -3.09425259 78.00444412 C-20.08009694 78.04184844 -37.06571636 78.10129564 -54.05139828 78.18390274 C-62.26628287 78.22334815 -70.48107646 78.25591246 -78.69604492 78.27099609 C-85.87429123 78.28419506 -93.05233434 78.31160791 -100.23046595 78.35461307 C-104.01486217 78.3768285 -107.79901174 78.39293564 -111.58347893 78.39188385 C-131.55302973 78.39212015 -150.8962682 79.83906539 -170.68071556 82.56740189 C-177.37242907 83.43952439 -184.07536677 83.89614535 -190.8125 84.25 C-192.14729955 84.32517092 -193.48209769 84.40036689 -194.81689453 84.47558594 C-209.62183555 85.26156079 -224.14447125 85.25284362 -238.9375 84.25 C-239.92476074 84.18844727 -240.91202148 84.12689453 -241.92919922 84.06347656 C-246.83849151 83.6828623 -251.61863429 83.12098988 -256.42700195 82.05566406 C-272.06154279 78.61526891 -287.34472466 78.33491922 -303.3125 78.25 C-306.01111445 78.22388989 -308.70965207 78.19208617 -311.40820312 78.16015625 C-317.93873399 78.0871428 -324.46916043 78.0350135 -331 78 C-329.70971906 74.6579109 -328.44526219 71.99817487 -326.21484375 69.1875 C-325.68439453 68.50429687 -325.15394531 67.82109375 -324.60742188 67.1171875 C-323.49264087 65.70382773 -322.37544367 64.29237043 -321.25585938 62.8828125 C-317.30033427 57.99648213 -317.30033427 57.99648213 -316 52 C-316.69371124 50.10307069 -316.69371124 50.10307069 -317.875 48.375 C-320.61047829 43.45113908 -320.79621479 38.54295781 -321 33 C-320.34 33 -319.68 33 -319 33 C-318.195625 34.051875 -318.195625 34.051875 -317.375 35.125 C-306.94373206 47.75232435 -289.75407246 50.84615689 -274.23046875 52.56640625 C-190.32196094 60.42315672 -96.32369694 29.29070948 -17.59765625 3.58984375 C-16.5509375 3.24993408 -15.50421875 2.91002441 -14.42578125 2.55981445 C-12.59583412 1.96236667 -10.76867372 1.35626907 -8.9453125 0.73901367 C-3.32891487 -1.10963829 -3.32891487 -1.10963829 0 0 Z M-15.33203125 5.8515625 C-16.6769632 6.28853076 -18.02193609 6.725373 -19.36694336 7.16210938 C-20.08719696 7.39953857 -20.80745056 7.63696777 -21.54953003 7.8815918 C-76.39278178 25.89814693 -132.79453302 40.65406134 -189.8125 49.8125 C-190.72499512 49.95997681 -191.63749023 50.10745361 -192.57763672 50.25939941 C-211.93654955 53.3642133 -231.01277654 55.37395704 -250.63623047 55.37060547 C-253.49896987 55.37499842 -256.36018469 55.41157395 -259.22265625 55.44921875 C-278.93812314 55.56855551 -298.90297308 53.24773787 -315 41 C-315.66 41 -316.32 41 -317 41 C-314.18578306 52.33727398 -307.70254708 59.60115632 -297.8984375 65.796875 C-269.96340499 82.22924707 -236.42041274 82.55337443 -205 82 C-204.09830078 81.99129883 -203.19660156 81.98259766 -202.26757812 81.97363281 C-159.75001139 81.49236449 -116.3044969 72.81135188 -74.93659973 63.50143433 C-70.35555212 62.4813787 -65.77045084 61.58070235 -61.14743042 60.7729187 C-43.78755678 58.30079972 -43.78755678 58.30079972 -30.45263672 48.17822266 C-28.57959603 44.92881739 -27.02682501 41.58710542 -25.51464844 38.15673828 C-22.63160383 32.14807182 -19.00226198 26.55244372 -15.51507568 20.88018799 C-13.48837527 17.56767147 -11.50208411 14.2312809 -9.515625 10.89453125 C-8.8311112 9.74711798 -8.14654674 8.59973492 -7.46191406 7.45239258 C-6.7382666 6.23845825 -6.7382666 6.23845825 -6 5 C-9.89319185 3.70226938 -11.4544246 4.56775118 -15.33203125 5.8515625 Z " fill="#FAF2F1" transform="translate(424,98)"/>
<path d="M0 0 C168.96 0 337.92 0 512 0 C512 2.64 512 5.28 512 8 C343.04 8 174.08 8 0 8 C0 5.36 0 2.72 0 0 Z " fill="#077741" transform="translate(0,269)"/>
<path d="M0 0 C-5.2719616 12.69338173 -10.54810437 25.38268579 -16 38 C-16.73935791 38.06993164 -17.47871582 38.13986328 -18.24047852 38.21191406 C-42.09460535 40.52031809 -63.51781361 44.08395105 -83 59 C-83.721875 59.5465625 -84.44375 60.093125 -85.1875 60.65625 C-95.67910798 69.25353987 -106.19938145 83.5947921 -109 97 C-109.66 97 -110.32 97 -111 97 C-117.32442362 84.49036963 -121.02903099 73.35453903 -117.31640625 59.4375 C-110.85689622 41.06378258 -93.06962053 29.95548774 -76.46875 21.71484375 C-54.18150457 11.04481073 -24.98733607 -0.22708641 0 0 Z " fill="#EB3646" transform="translate(215,29)"/>
<path d="M0 0 C21 0 21 0 24.8828125 3.80859375 C25.63003073 5.52155629 26.33367629 7.25397925 27 9 C28.11012054 10.84455397 29.25501 12.66852772 30.4296875 14.47265625 C31.58002198 16.33476696 32.72811773 18.19826108 33.875 20.0625 C35.89625 23.341875 37.9175 26.62125 40 30 C40.33 20.1 40.66 10.2 41 0 C47.93 0 54.86 0 62 0 C62 22.44 62 44.88 62 68 C42 68 42 68 37.5 63.625 C36.65389492 62.07312939 35.81248141 60.51764891 35.03125 58.93212891 C33.36305327 55.80662964 31.33355019 52.93245024 29.3359375 50.01049805 C26.85484999 46.36442117 24.43354855 42.67797679 22 39 C21.67 48.57 21.34 58.14 21 68 C14.07 68 7.14 68 0 68 C0 45.56 0 23.12 0 0 Z " fill="#788188" transform="translate(229,191)"/>
<path d="M0 0 C8.25 0 16.5 0 25 0 C27.55803881 7.38880342 30.11431442 14.77821135 32.66759205 22.16866112 C33.85357356 25.60125762 35.04029004 29.03359615 36.22875977 32.46533203 C37.37821125 35.7844931 38.52563598 39.10434871 39.67172813 42.42467117 C40.31671162 44.29159439 40.96372825 46.15781481 41.61079407 48.02401733 C42.01098251 49.18446564 42.41117096 50.34491394 42.82348633 51.54052734 C43.34644035 53.05276382 43.34644035 53.05276382 43.87995911 54.59555054 C45.34079318 59.0358668 46.65680785 63.52269282 48 68 C40.41 68 32.82 68 25 68 C24.34 65.69 23.68 63.38 23 61 C16.07 61 9.14 61 2 61 C1.67 62.98 1.34 64.96 1 67 C0 68 0 68 -2.22485352 68.11352539 C-3.66235962 68.10567017 -3.66235962 68.10567017 -5.12890625 68.09765625 C-6.68061523 68.09282227 -6.68061523 68.09282227 -8.26367188 68.08789062 C-9.35228516 68.07951172 -10.44089844 68.07113281 -11.5625 68.0625 C-13.2012207 68.05573242 -13.2012207 68.05573242 -14.87304688 68.04882812 C-17.58208759 68.03699825 -20.29100822 68.01967721 -23 68 C-20.69975257 60.02098775 -18.05194268 52.18043403 -15.33203125 44.3359375 C-14.88773751 43.04991652 -14.4436235 41.76383343 -13.99967957 40.47769165 C-12.84249187 37.12676166 -11.68289861 33.77666922 -10.52276611 30.42675781 C-9.33465906 26.99465273 -8.14887901 23.5617439 -6.96289062 20.12890625 C-4.64417683 13.41849149 -2.32270016 6.70903618 0 0 Z M12 26 C11.32844651 28.26949102 10.6626037 30.5403961 10 32.8125 C9.62875 34.07707031 9.2575 35.34164062 8.875 36.64453125 C7.87383491 39.90587415 7.87383491 39.90587415 8 43 C10.97 43 13.94 43 17 43 C16.35729017 37.0870696 14.80996216 31.65755469 13 26 C12.67 26 12.34 26 12 26 Z " fill="#788188" transform="translate(385,191)"/>
<path d="M0 0 C4.38772855 3.47035905 7.78902781 6.44428531 9 12 C6.71584679 14.17470605 4.42149089 16.33833245 2.125 18.5 C1.47402344 19.12003906 0.82304688 19.74007812 0.15234375 20.37890625 C-0.47285156 20.96542969 -1.09804688 21.55195313 -1.7421875 22.15625 C-2.3182373 22.70087891 -2.89428711 23.24550781 -3.48779297 23.80664062 C-5 25 -5 25 -7 25 C-7.45375 24.236875 -7.9075 23.47375 -8.375 22.6875 C-10.08054322 19.86679391 -11.20853215 18.69047006 -14 17 C-18.80185417 16.27006092 -23.44587059 16.41720147 -28 18.125 C-32.03250466 21.90547312 -33.18789346 25.59018041 -33.375 31 C-33.2250062 35.33677729 -32.5570467 38.38486501 -30 42 C-26.25355661 45.01796829 -22.76414829 45.75357854 -18 46 C-13.70696577 45.27236708 -11.64154315 44.67530858 -8.625 41.5 C-7.01913876 39.13201836 -7.01913876 39.13201836 -6 37 C-1.84848662 38.44202476 1.29978445 40.5010438 4.8125 43.125 C5.78832031 43.84945312 6.76414063 44.57390625 7.76953125 45.3203125 C8.50558594 45.87460938 9.24164063 46.42890625 10 47 C9.17290879 52.88153748 6.36567962 56.12026677 2 60 C-8.63098095 66.54585362 -20.3883637 67.94854905 -32.5390625 65.19921875 C-41.89806819 61.68052281 -48.6226437 55.5166236 -53.0625 46.5625 C-56.66608998 36.73110296 -56.65131181 25.18634807 -53 15.375 C-48.16700113 5.58716195 -40.43485729 -0.13325112 -30.20703125 -3.609375 C-20.37118397 -5.35023293 -8.73596918 -5.16411971 0 0 Z " fill="#788188" transform="translate(55,194)"/>
<path d="M0 0 C4.51488151 3.57092735 7.58431653 6.33726612 9 12 C4.38 16.29 -0.24 20.58 -5 25 C-6.65 23.35 -8.3 21.7 -10 20 C-13.99287634 16.37873789 -17.15033015 16.55190802 -22.37109375 16.71875 C-25.7048064 17.07540277 -27.53975379 17.69351917 -30 20 C-33.54115685 25.00646313 -33.81520364 30.07806092 -33 36 C-31.96114707 39.50204509 -30.39711411 42.04069124 -27.3046875 44.1640625 C-22.4829865 46.40898402 -18.29940747 46.12658248 -13.20703125 44.875 C-9.30457942 43.32783326 -7.7992705 40.598541 -6 37 C-1.6426774 38.47130373 1.71934134 40.83080615 5.3125 43.625 C5.86228516 44.04523438 6.41207031 44.46546875 6.97851562 44.8984375 C8.32292168 45.92720039 9.66201413 46.9629009 11 48 C6.96196531 56.24432082 0.85459522 62.20988933 -7.8984375 65.33984375 C-17.93937807 67.47702128 -30.15520126 67.72673705 -39 62 C-47.04742483 56.16353679 -53.16983612 49.01207296 -55 39 C-55.84293184 26.60475633 -55.13122292 16.56169307 -46.875 6.625 C-35.37421849 -5.33201086 -14.54835885 -8.60001508 0 0 Z " fill="#788188" transform="translate(352,194)"/>
<path d="M0 0 C13.53 0 27.06 0 41 0 C41 5.94 41 11.88 41 18 C34.73 18 28.46 18 22 18 C22 20.31 22 22.62 22 25 C28.27 25 34.54 25 41 25 C41 30.94 41 36.88 41 43 C34.73 43 28.46 43 22 43 C22 45.31 22 47.62 22 50 C28.27 49.67 34.54 49.34 41 49 C41 55.27 41 61.54 41 68 C27.47 68 13.94 68 0 68 C0 45.56 0 23.12 0 0 Z " fill="#788188" transform="translate(181,191)"/>
<path d="M0 0 C4.24164221 1.54152275 6.38822462 4.70386858 9 8.1875 C9.96384029 9.44738289 10.92872345 10.70646849 11.89453125 11.96484375 C12.39678223 12.62210449 12.8990332 13.27936523 13.41650391 13.95654297 C15.04544986 16.05865176 16.70879258 18.12822477 18.38671875 20.19140625 C18.93779297 20.86985596 19.48886719 21.54830566 20.05664062 22.24731445 C21.13164208 23.5674098 22.20970142 24.88502173 23.29101562 26.19995117 C27 30.77892142 27 30.77892142 27 33 C-17.55 33 -62.1 33 -108 33 C-108 32.67 -108 32.34 -108 32 C-106.58920166 31.76047607 -106.58920166 31.76047607 -105.14990234 31.51611328 C-84.83729135 28.04808685 -64.63503198 24.20059417 -44.5 19.8125 C-43.53294128 19.60280579 -42.56588257 19.39311157 -41.56951904 19.17706299 C-32.4677125 17.19783688 -23.37316867 15.17671105 -14.34375 12.88671875 C-12.59868164 12.44718872 -12.59868164 12.44718872 -10.81835938 11.9987793 C-6.35387599 10.41664126 -4.70216847 7.75222369 -2.3125 3.8125 C-1.87550781 3.09707031 -1.43851562 2.38164062 -0.98828125 1.64453125 C-0.66214844 1.10183594 -0.33601563 0.55914062 0 0 Z " fill="#087740" transform="translate(396,143)"/>
<path d="M0 0 C7.26 0 14.52 0 22 0 C22 22.44 22 44.88 22 68 C14.74 68 7.48 68 0 68 C0 45.56 0 23.12 0 0 Z " fill="#788188" transform="translate(69,191)"/>
<path d="M0 0 C-18.24925583 31.3498188 -18.24925583 31.3498188 -24.95703125 41.7421875 C-27.02895915 44.95056618 -27.02895915 44.95056618 -28.69921875 48.2578125 C-32.48683685 55.28278941 -32.48683685 55.28278941 -36.46777344 57.16967773 C-46.87619698 60.08145573 -57.38287255 62.49287147 -67.9375 64.8125 C-68.91023865 65.02766266 -69.88297729 65.24282532 -70.88519287 65.46450806 C-85.08923817 68.59942093 -99.32494321 71.52455724 -113.625 74.1875 C-114.44249725 74.34183502 -115.25999451 74.49617004 -116.1022644 74.65518188 C-118.39217219 75.08502806 -120.68377836 75.50377364 -122.9765625 75.91796875 C-124.26643066 76.15281982 -125.55629883 76.3876709 -126.88525391 76.62963867 C-130 77 -130 77 -133 76 C-132.67 75.34 -132.34 74.68 -132 74 C-129.03703843 73.26743513 -126.1230892 72.65476647 -123.125 72.10546875 C-122.22386475 71.93299118 -121.32272949 71.76051361 -120.39428711 71.58280945 C-118.51500134 71.22365546 -116.63501988 70.8681245 -114.75439453 70.51605225 C-110.68691457 69.75398561 -106.62488778 68.96445181 -102.5625 68.17578125 C-101.7889064 68.02694489 -101.01531281 67.87810852 -100.21827698 67.72476196 C-96.08023439 66.92559512 -91.94922644 66.10020688 -87.82397461 65.23730469 C-86.51669151 64.96389755 -86.51669151 64.96389755 -85.18299866 64.68496704 C-83.41404579 64.31457052 -81.64527673 63.94329505 -79.87669373 63.57113647 C-74.75074788 62.50977544 -69.62903065 61.60784146 -64.45181274 60.83691406 C-45.20338603 58.29203849 -45.20338603 58.29203849 -30.40234375 46.90234375 C-26.45617937 41.15691344 -23.49765452 34.89565941 -20.65673828 28.55029297 C-18.15726831 23.19407541 -15.06524427 18.25596025 -11.9375 13.25 C-10.96372609 11.63244306 -9.99323464 10.01290145 -9.02734375 8.390625 C-8.35832031 7.27171875 -7.68929687 6.1528125 -7 5 C-13.77903805 6.75921562 -20.48507928 8.73222627 -27.1796875 10.78515625 C-28.0231926 11.0437442 -28.86669769 11.30233215 -29.73576355 11.5687561 C-30.60663101 11.83578339 -31.47749847 12.10281067 -32.37475586 12.37792969 C-54.13386067 19.04955755 -75.97067619 25.28582164 -98 31 C-98.75154358 31.19551453 -99.50308716 31.39102905 -100.27740479 31.59246826 C-129.91600611 39.29570515 -159.56687904 45.96189603 -189.8125 50.8125 C-190.72427002 50.95979553 -191.63604004 51.10709106 -192.57543945 51.2588501 C-202.30070268 52.81868242 -212.02451708 54.19700051 -221.82421875 55.19921875 C-222.62938431 55.28242874 -223.43454987 55.36563873 -224.26411438 55.45137024 C-229.19919794 55.92521782 -234.04240267 56.07241236 -239 56 C-239 55.67 -239 55.34 -239 55 C-240.98 54.67 -242.96 54.34 -245 54 C-245 53.67 -245 53.34 -245 53 C-244.36425049 52.96036133 -243.72850098 52.92072266 -243.07348633 52.87988281 C-166.30085909 47.92989776 -90.45148554 27.37367014 -17.59765625 3.58984375 C-16.5509375 3.24993408 -15.50421875 2.91002441 -14.42578125 2.55981445 C-12.59583412 1.96236667 -10.76867372 1.35626907 -8.9453125 0.73901367 C-3.32891487 -1.10963829 -3.32891487 -1.10963829 0 0 Z " fill="#FAF3F3" transform="translate(424,98)"/>
<path d="M0 0 C1.4540625 1.2684375 1.4540625 1.2684375 2.9375 2.5625 C4.29003014 3.71026462 5.64430523 4.85597505 7 6 C7.65226562 6.56460938 8.30453125 7.12921875 8.9765625 7.7109375 C17.75672438 14.97841232 28.09946798 19.80501648 39 23 C39 23.33 39 23.66 39 24 C20.85 24 2.7 24 -16 24 C-14.4994332 20.24858301 -13.57595685 18.14890343 -11.25 15.1171875 C-10.7240625 14.42496094 -10.198125 13.73273438 -9.65625 13.01953125 C-9.1096875 12.31183594 -8.563125 11.60414063 -8 10.875 C-6.91607399 9.45618175 -5.8327179 8.03692788 -4.75 6.6171875 C-4.27046875 5.99440918 -3.7909375 5.37163086 -3.296875 4.72998047 C-2.144103 3.19222776 -1.06605912 1.59908868 0 0 Z " fill="#08773F" transform="translate(109,152)"/>
<path d="M0 0 C-2.52917133 3.793757 -5.00013441 4.18169031 -9.1796875 5.3125 C-9.92246948 5.52251648 -10.66525146 5.73253296 -11.43054199 5.94891357 C-13.90875104 6.64503041 -16.39144324 7.32322857 -18.875 8 C-20.62587004 8.48449734 -22.37668281 8.96920169 -24.12744141 9.45410156 C-62.65063058 20.05719668 -101.35114374 29.47406968 -140.8125 35.8125 C-141.72499512 35.95997681 -142.63749023 36.10745361 -143.57763672 36.25939941 C-153.30215037 37.81903271 -163.02528839 39.19707939 -172.82421875 40.19921875 C-173.62938431 40.28242874 -174.43454987 40.36563873 -175.26411438 40.45137024 C-180.19919794 40.92521782 -185.04240267 41.07241236 -190 41 C-190 40.67 -190 40.34 -190 40 C-191.98 39.67 -193.96 39.34 -196 39 C-196 38.67 -196 38.34 -196 38 C-195.36425049 37.96036133 -194.72850098 37.92072266 -194.07348633 37.87988281 C-141.54029455 34.49275744 -90.3827959 22.94948467 -39.5625 9.75 C-38.59626709 9.49964996 -37.63003418 9.24929993 -36.63452148 8.99136353 C-26.59248924 6.3813582 -16.59829291 3.72634934 -6.76625061 0.39715576 C-2.21062131 -1.10531066 -2.21062131 -1.10531066 0 0 Z " fill="#EFEBE8" transform="translate(375,113)"/>
<path d="M0 0 C0 0.66 0 1.32 0 2 C-21.95733931 7.29407496 -43.92900824 12.36252209 -66.125 16.5625 C-67.01491638 16.73185059 -67.90483276 16.90120117 -68.82171631 17.07568359 C-71.36196235 17.55703679 -73.90326679 18.03215737 -76.4453125 18.50390625 C-77.54906219 18.71105003 -77.54906219 18.71105003 -78.67510986 18.92237854 C-83.76750771 19.85096523 -88.85038581 20.47210272 -94 21 C-93.505 19.515 -93.505 19.515 -93 18 C-74.77357257 14.3416965 -74.77357257 14.3416965 -65.68515015 12.56785583 C-61.64338213 11.7788886 -57.60273686 10.98426772 -53.5625 10.1875 C-52.28493835 9.93578537 -52.28493835 9.93578537 -50.98156738 9.6789856 C-38.10381799 7.13123266 -25.33596694 4.30415441 -12.63110352 0.99487305 C-10.99612915 0.57782104 -10.99612915 0.57782104 -9.328125 0.15234375 C-8.3887207 -0.09523682 -7.44931641 -0.34281738 -6.48144531 -0.59790039 C-3.93845655 -1.00997265 -2.4139295 -0.82832994 0 0 Z " fill="#EBE2DF" transform="translate(385,154)"/>
<path d="M0 0 C1.54879007 3.09758013 0.16198657 5.22186849 -0.8125 8.5 C-4.01702262 20.06054975 -4.32862678 32.07903163 -5 44 C-7 43 -7 43 -8.625 39.5 C-11.58054951 30.02708489 -11.58029476 18.10842497 -7.2890625 9.09375 C-5.19214214 5.68784299 -2.76397926 2.88961468 0 0 Z " fill="#E93545" transform="translate(90,72)"/>
<path d="M0 0 C0.66 0.33 1.32 0.66 2 1 C1.52433594 2.45599609 1.52433594 2.45599609 1.0390625 3.94140625 C-0.1936337 8.25584296 -0.44134595 12.47241088 -0.625 16.9375 C-0.66367188 17.71673828 -0.70234375 18.49597656 -0.7421875 19.29882812 C-0.83544127 21.19887379 -0.91875962 23.09940278 -1 25 C-3.77743622 22.46407997 -4.85971294 20.56743807 -5.203125 16.73046875 C-5.33149954 9.76614999 -3.87961393 5.81942089 0 0 Z " fill="#E63444" transform="translate(75,82)"/>
<path d="M0 0 C-3.16597571 0.34011625 -6.3328688 0.67083187 -9.5 1 C-10.386875 1.09539062 -11.27375 1.19078125 -12.1875 1.2890625 C-17.49234474 1.83514946 -22.66737152 2.0996753 -28 2 C-28 1.67 -28 1.34 -28 1 C-30.97 0.505 -30.97 0.505 -34 0 C-34 -0.33 -34 -0.66 -34 -1 C-29.75084331 -1.36481305 -25.5006055 -1.71500852 -21.25 -2.0625 C-20.0434375 -2.16626953 -18.836875 -2.27003906 -17.59375 -2.37695312 C-16.43359375 -2.47041016 -15.2734375 -2.56386719 -14.078125 -2.66015625 C-13.00981445 -2.74918213 -11.94150391 -2.83820801 -10.84082031 -2.92993164 C-6.57681299 -3.03510267 -3.72993297 -1.99817837 0 0 Z " fill="#EBDCD9" transform="translate(213,152)"/>
<path d="M0 0 C0.33 0.66 0.66 1.32 1 2 C-2.26988299 2.67138621 -5.54105049 3.33629263 -8.8125 4 C-9.74126953 4.19078125 -10.67003906 4.3815625 -11.62695312 4.578125 C-12.9659668 4.84882813 -12.9659668 4.84882813 -14.33203125 5.125 C-15.15421143 5.29257813 -15.9763916 5.46015625 -16.82348633 5.6328125 C-19 6 -19 6 -22 6 C-22 5.34 -22 4.68 -22 4 C-22.66 3.67 -23.32 3.34 -24 3 C-20.75290806 2.29825244 -17.50199748 1.61611931 -14.25 0.9375 C-13.32960938 0.73833984 -12.40921875 0.53917969 -11.4609375 0.33398438 C-10.57148438 0.15029297 -9.68203125 -0.03339844 -8.765625 -0.22265625 C-7.94868164 -0.39547119 -7.13173828 -0.56828613 -6.29003906 -0.74633789 C-3.8607884 -1.01542013 -2.2782887 -0.86964562 0 0 Z " fill="#EBE0DD" transform="translate(276,139)"/>
<path d="M0 0 C7.26 0.99 14.52 1.98 22 3 C22.33 3.99 22.66 4.98 23 6 C17.12123504 6.16032995 11.76611905 5.6092534 6 4.5 C5.22527344 4.35691406 4.45054687 4.21382812 3.65234375 4.06640625 C1.76704421 3.71727671 -0.11665939 3.35954684 -2 3 C-1.34 2.67 -0.68 2.34 0 2 C0 1.34 0 0.68 0 0 Z " fill="#F5E0DF" transform="translate(133,148)"/>
<path d="M0 0 C0 0.66 0 1.32 0 2 C-2.56149628 2.50567729 -5.12399465 3.00470132 -7.6875 3.5 C-8.7693457 3.71462891 -8.7693457 3.71462891 -9.87304688 3.93359375 C-13.63841359 4.65571887 -17.14473813 5.1824976 -21 5 C-20.67 4.01 -20.34 3.02 -20 2 C-13.25846717 0.74158054 -6.86515862 -0.26404456 0 0 Z " fill="#EAE9E5" transform="translate(254,143)"/>
<path d="M0 0 C0 0.66 0 1.32 0 2 C-5.94 3.32 -11.88 4.64 -18 6 C-16 2 -16 2 -13.3203125 0.91796875 C-12.26585937 0.67691406 -11.21140625 0.43585938 -10.125 0.1875 C-9.07570313 -0.06644531 -8.02640625 -0.32039062 -6.9453125 -0.58203125 C-4.17923655 -0.97456457 -2.59637478 -0.92190119 0 0 Z " fill="#E5DDD9" transform="translate(385,154)"/>
<path d="M0 0 C0 0.66 0 1.32 0 2 C-5.28 3.32 -10.56 4.64 -16 6 C-16 5.34 -16 4.68 -16 4 C-16.66 3.67 -17.32 3.34 -18 3 C-15.565036 2.30215669 -13.12772895 1.61646178 -10.6875 0.9375 C-9.65206055 0.63875977 -9.65206055 0.63875977 -8.59570312 0.33398438 C-3.33984375 -1.11328125 -3.33984375 -1.11328125 0 0 Z " fill="#E8E3DF" transform="translate(356,119)"/>
<path d="M0 0 C-0.33 0.66 -0.66 1.32 -1 2 C-3.16467461 2.62669199 -5.35864524 3.15427374 -7.5625 3.625 C-8.76003906 3.88539063 -9.95757812 4.14578125 -11.19140625 4.4140625 C-12.58166016 4.70410156 -12.58166016 4.70410156 -14 5 C-14 4.34 -14 3.68 -14 3 C-14.66 2.67 -15.32 2.34 -16 2 C-14.08654673 1.46748234 -12.1690705 0.94940517 -10.25 0.4375 C-9.18265625 0.14746094 -8.1153125 -0.14257812 -7.015625 -0.44140625 C-4.15664073 -0.97098494 -2.68402617 -0.98370862 0 0 Z " fill="#EAE3DF" transform="translate(319,129)"/>
<path d="M0 0 C0.66 0 1.32 0 2 0 C1.46726685 4.52823181 -0.06769772 7.51293783 -3 11 C-6.25 11.875 -6.25 11.875 -9 12 C-8.67 11.01 -8.34 10.02 -8 9 C-7.01 8.67 -6.02 8.34 -5 8 C-3.62322215 6.13692349 -3.62322215 6.13692349 -2.4375 3.9375 C-1.18359375 1.71484375 -1.18359375 1.71484375 0 0 Z " fill="#F2E9E7" transform="translate(393,143)"/>
<path d="M0 0 C4.54991515 0.4014631 8.77938576 2.35467581 13 4 C13 4.99 13 5.98 13 7 C2.44191344 3.92482916 2.44191344 3.92482916 -2 2 C-1.34 1.34 -0.68 0.68 0 0 Z " fill="#EDE7E4" transform="translate(134,168)"/>
<path d="M0 0 C0 0.66 0 1.32 0 2 C-4.53701494 3.45184478 -8.18061476 4.23509196 -13 4 C-11 1 -11 1 -9.3125 0.3125 C-6.19641489 -0.10859258 -3.13969957 -0.06037884 0 0 Z " fill="#EFEBE8" transform="translate(288,136)"/>
<path d="M0 0 C-2.24784424 0.24942657 -4.49847506 0.47383488 -6.75 0.6875 C-8.00296875 0.81511719 -9.2559375 0.94273437 -10.546875 1.07421875 C-14.23931642 0.99485632 -15.41596392 0.53835868 -18 -2 C-16.41773035 -2.19627391 -14.83410729 -2.38165538 -13.25 -2.5625 C-12.36828125 -2.66691406 -11.4865625 -2.77132812 -10.578125 -2.87890625 C-6.44808425 -3.07289301 -3.60758096 -1.93263266 0 0 Z " fill="#E3D5D0" transform="translate(213,152)"/>
<path d="M0 0 C-2.39763185 2.39763185 -3.33273498 2.34280586 -6.625 2.625 C-7.44226563 2.69976562 -8.25953125 2.77453125 -9.1015625 2.8515625 C-9.72804688 2.90054688 -10.35453125 2.94953125 -11 3 C-11 2.34 -11 1.68 -11 1 C-3.57142857 -1.42857143 -3.57142857 -1.42857143 0 0 Z " fill="#F8EBEA" transform="translate(369,158)"/>
<path d="M0 0 C0 0.66 0 1.32 0 2 C-3.47325181 3.1577506 -6.36067448 3.06866652 -10 3 C-7.29536552 -0.8183075 -4.37912428 -0.24787496 0 0 Z " fill="#F2EDEA" transform="translate(340,164)"/>
<path d="M0 0 C0.33 0.66 0.66 1.32 1 2 C-1.64 2.33 -4.28 2.66 -7 3 C-7 2.34 -7 1.68 -7 1 C-7.66 0.67 -8.32 0.34 -9 0 C-5.67032582 -0.83241855 -3.24733335 -1.2757381 0 0 Z " fill="#E5D6D1" transform="translate(261,142)"/>
<path d="M0 0 C0 0.66 0 1.32 0 2 C-1.98 2.33 -3.96 2.66 -6 3 C-6 2.34 -6 1.68 -6 1 C-6.66 0.67 -7.32 0.34 -8 0 C-4.94736336 -0.98120464 -3.05263664 -0.98120464 0 0 Z " fill="#E4DCD7" transform="translate(294,135)"/>
<path d="M0 0 C2.31 0.33 4.62 0.66 7 1 C6.01 1.495 6.01 1.495 5 2 C5 2.66 5 3.32 5 4 C2.69 3.67 0.38 3.34 -2 3 C-1.34 2.67 -0.68 2.34 0 2 C0 1.34 0 0.68 0 0 Z " fill="#E7D8D4" transform="translate(133,148)"/>
<path d="M0 0 C-0.33 0.66 -0.66 1.32 -1 2 C-3.5625 2.625 -3.5625 2.625 -6 3 C-6 2.34 -6 1.68 -6 1 C-6.66 0.67 -7.32 0.34 -8 0 C-4.94736336 -0.98120464 -3.05263664 -0.98120464 0 0 Z " fill="#E1DFD9" transform="translate(319,129)"/>
</svg>
