<?xml version="1.0" encoding="UTF-8"?>
<svg version="1.1" xmlns="http://www.w3.org/2000/svg" width="2563" height="518">
<path d="M0 0 C10.23 0 20.46 0 31 0 C36.23354023 10.34657132 41.24649102 20.73887317 46 31.3125 C46.97681406 33.47572006 47.95477772 35.63841796 48.93284607 37.80107117 C49.60682392 39.29140478 50.28045718 40.78189429 50.95375061 42.27253723 C53.27459504 47.40792558 55.61362311 52.53470381 57.96484375 57.65625 C58.29171677 58.36844696 58.61858978 59.08064392 58.95536804 59.81442261 C59.28277481 60.52776764 59.61018158 61.24111267 59.94750977 61.97607422 C66.42649453 76.09239141 72.7907292 90.25407114 79.06710815 104.46157837 C84.03715918 115.70116766 89.17046973 126.85190326 94.42752075 137.95980835 C99.80070779 149.32220423 104.93478177 160.77967186 110.00521851 172.27993774 C115.0965603 183.81935234 120.35719468 195.26616031 125.74905396 206.66796875 C131.7400195 219.34286032 137.44174945 232.12863206 143 245 C146.00159049 239.21211068 148.520437 233.38137114 150.84375 227.29296875 C151.3858889 225.8875029 151.3858889 225.8875029 151.9389801 224.4536438 C152.72004336 222.42780143 153.49936946 220.40128862 154.27713013 218.37417603 C156.39385231 212.85821069 158.52410028 207.34746536 160.65234375 201.8359375 C161.09339951 200.69270523 161.53445526 199.54947296 161.98887634 198.37159729 C166.63570389 186.33445877 171.34486672 174.32202708 176.0625 162.3125 C176.902221 160.17384384 177.74190194 158.03517194 178.58154297 155.89648438 C179.83249574 152.71022479 181.08349351 149.52398295 182.3347168 146.33782959 C186.6069185 135.45781799 190.86675976 124.57298179 195.125 113.6875 C195.86652425 111.79231293 196.60806068 109.89713063 197.34960938 108.00195312 C200.69858591 99.44242352 204.04627142 90.88239164 207.39134216 82.32133484 C215.41592446 61.78470318 223.46136964 41.2565746 231.5625 20.75 C231.93456573 19.8074234 232.30663147 18.8648468 232.68997192 17.89370728 C233.73109569 15.25685816 234.77350353 12.62052094 235.81640625 9.984375 C236.1259021 9.2002977 236.43539795 8.4162204 236.75427246 7.60838318 C238.88475925 2.2304815 238.88475925 2.2304815 240 0 C250.23 0 260.46 0 271 0 C267.62500927 11.24996912 267.62500927 11.24996912 265.87792969 15.67285156 C265.48551086 16.67213684 265.09309204 17.67142212 264.68878174 18.70098877 C264.27070251 19.75356873 263.85262329 20.80614868 263.421875 21.890625 C262.97882019 23.01555359 262.53576538 24.14048218 262.07928467 25.29949951 C260.88718394 28.32405991 259.69154168 31.34718872 258.49423218 34.36968994 C257.23598685 37.54865939 255.98250134 40.72950472 254.72851562 43.91015625 C252.25952669 50.17051214 249.78566384 56.42892822 247.31030273 62.68676758 C245.53294504 67.18099551 243.75833808 71.6763063 241.984375 76.171875 C240.24524304 80.57875791 238.50588506 84.98554974 236.76464844 89.39160156 C231.15609545 103.58641069 225.57837561 117.79331004 220 132 C213.84632866 147.67182043 207.68834611 163.34183664 201.5 179 C195.93084589 193.09278935 190.3827714 207.19379561 184.84283447 221.2980957 C183.44140868 224.86505151 182.03892536 228.43158997 180.63623047 231.99804688 C176.23439515 243.19381678 171.84200916 254.39297419 167.48493958 265.60623169 C165.75231918 270.06502656 164.01471809 274.52187566 162.27603054 278.97830772 C161.09582774 282.00442141 159.91934832 285.03190226 158.74801636 288.0614624 C148.67270347 314.11625687 137.44765242 338.47719281 118 359 C117.15566406 359.90878906 116.31132812 360.81757813 115.44140625 361.75390625 C100.49070855 377.35557772 78.04709705 391.31958996 55.74853516 392.07641602 C53.20629057 392.09809562 50.66724698 392.08719262 48.125 392.0625 C45.11375 392.041875 42.1025 392.02125 39 392 C39 382.76 39 373.52 39 364 C42.96 363.9071875 42.96 363.9071875 47 363.8125 C60.11282785 363.22736284 72.2655015 359.79231868 83 352 C84.31871094 351.04673828 84.31871094 351.04673828 85.6640625 350.07421875 C105.39598297 334.87230256 116.29994266 312.39780585 126 290 C126.43602539 289.04077637 126.87205078 288.08155273 127.32128906 287.09326172 C128.2088472 283.0481676 127.08315354 280.57131032 125.36328125 276.98046875 C125.05726486 276.30200394 124.75124847 275.62353912 124.43595886 274.92451477 C123.41324884 272.66990368 122.36310546 270.42923175 121.3125 268.1875 C120.58036899 266.5879994 119.84993473 264.98772119 119.12109375 263.38671875 C117.17123171 259.11797394 115.19684246 254.86106605 113.2144165 250.60736084 C111.61896545 247.18191613 110.03167646 243.75271711 108.44415283 240.32359314 C105.65995598 234.30971787 102.87228942 228.29748989 100.07373047 222.2902832 C94.57285522 210.47172556 89.22416657 198.59359294 83.96337891 186.66650391 C78.7644979 174.88636543 73.42085554 163.17955048 68 151.5 C62.24020291 139.09018012 56.5838141 126.6427462 51.0625 114.125 C44.96843965 100.30955758 38.67279415 86.59662966 32.29309082 72.91094971 C25.84787224 59.07784452 19.56592752 45.18015886 13.42578125 31.20898438 C12.82187788 29.83712365 12.2177161 28.46537664 11.61328125 27.09375 C11.32385651 26.43620728 11.03443176 25.77866455 10.73623657 25.10119629 C8.09590415 19.14010401 5.31118678 13.24917433 2.47224426 7.38024902 C0 2.21457936 0 2.21457936 0 0 Z " fill="#FEFEFE" transform="translate(2292,123)"/>
<path d="M0 0 C0.76828125 0.60328125 1.5365625 1.2065625 2.328125 1.828125 C23.50430016 19.45025677 33.7257864 46.89961112 36.52903748 73.62495422 C37.24593922 81.75355816 37.1314965 89.89540481 37.11352539 98.04760742 C37.11324287 99.85216266 37.11340252 101.65671802 37.1139679 103.46127319 C37.11425333 108.33031144 37.10839772 113.19932475 37.10139394 118.06835723 C37.09511806 123.16791007 37.09455326 128.26746355 37.09336853 133.36701965 C37.09026766 143.01042669 37.08207111 152.65382232 37.07201904 162.29722434 C37.06081918 173.28154942 37.05533771 184.26587507 37.05032361 195.25020444 C37.0398874 217.83347616 37.02210934 240.41673696 37 263 C27.43 263 17.86 263 8 263 C7.99413376 260.76208176 7.98826752 258.52416351 7.98222351 256.21842957 C7.92540161 235.07717445 7.85224344 213.93602015 7.76428509 192.79487133 C7.71945783 181.92730369 7.68001355 171.05976787 7.65356445 160.19213867 C7.63047797 150.71192462 7.59696259 141.23181237 7.55129844 131.75167924 C7.52750886 126.73928087 7.50868718 121.72698243 7.50238609 116.71452904 C7.49626995 111.9809388 7.4760396 107.24760377 7.44572449 102.51410866 C7.4370475 100.79183358 7.43319974 99.06952501 7.43499184 97.347229 C7.45368132 71.05946629 3.12697492 45.996977 -15.671875 26.20703125 C-32.36351031 10.38358503 -54.59055686 5.34805389 -76.97631836 5.59301758 C-100.95214978 6.31555352 -122.92316995 14.00008639 -140.625 30.4375 C-141.40875 31.283125 -142.1925 32.12875 -143 33 C-143.58007812 33.57492188 -144.16015625 34.14984375 -144.7578125 34.7421875 C-165.15106961 55.93518018 -170.09881785 86.88279452 -170.20532227 115.07641602 C-170.21491551 116.69348899 -170.22492641 118.31055954 -170.23532104 119.92762756 C-170.26221959 124.29470828 -170.28331006 128.66179963 -170.30332303 133.0289166 C-170.32527607 137.60132333 -170.35261893 142.17369782 -170.37937927 146.74607849 C-170.42918072 155.39434029 -170.4741658 164.04262011 -170.51740164 172.69091696 C-170.56688164 182.54102001 -170.62175966 192.39109071 -170.67708123 202.24116242 C-170.7907085 222.49407827 -170.89739759 242.74702556 -171 263 C-180.57 263 -190.14 263 -200 263 C-200 170.6 -200 78.2 -200 -17 C-190.43 -17 -180.86 -17 -171 -17 C-170.67 -1.16 -170.34 14.68 -170 31 C-166.535 25.555 -166.535 25.555 -163 20 C-160.16237441 16.18578898 -157.12243716 12.58377022 -154 9 C-153.18982422 8.06220703 -153.18982422 8.06220703 -152.36328125 7.10546875 C-114.94646963 -33.13880975 -41.42855804 -33.19431048 0 0 Z " fill="#FEFEFE" transform="translate(1393,140)"/>
<path d="M0 0 C0.65597672 0.00141495 1.31195343 0.0028299 1.98780823 0.00428772 C4.05572327 0.00982594 6.12352467 0.02236623 8.19140625 0.03515625 C9.60481613 0.04017926 11.01822773 0.04474075 12.43164062 0.04882812 C15.87247343 0.05891854 19.31306463 0.078505 22.75390625 0.09765625 C22.75390625 9.33765625 22.75390625 18.57765625 22.75390625 28.09765625 C18.75265625 28.20078125 14.75140625 28.30390625 10.62890625 28.41015625 C-9.33816411 29.10383512 -27.87377054 32.57523554 -42.5 47.37890625 C-59.62736658 67.3987503 -58.71414785 92.82054887 -60.24609375 118.09765625 C-32.85609375 118.09765625 -5.46609375 118.09765625 22.75390625 118.09765625 C22.75390625 127.33765625 22.75390625 136.57765625 22.75390625 146.09765625 C-4.63609375 146.09765625 -32.02609375 146.09765625 -60.24609375 146.09765625 C-60.24609375 229.25765625 -60.24609375 312.41765625 -60.24609375 398.09765625 C-70.14609375 398.09765625 -80.04609375 398.09765625 -90.24609375 398.09765625 C-90.24609375 314.93765625 -90.24609375 231.77765625 -90.24609375 146.09765625 C-106.08609375 146.09765625 -121.92609375 146.09765625 -138.24609375 146.09765625 C-138.24609375 136.85765625 -138.24609375 127.61765625 -138.24609375 118.09765625 C-122.40609375 118.09765625 -106.56609375 118.09765625 -90.24609375 118.09765625 C-90.24609375 110.83765625 -90.24609375 103.57765625 -90.24609375 96.09765625 C-87.98139153 66.4678022 -80.27798198 39.14482107 -56.87890625 19.06640625 C-40.66006871 7.05245251 -20.2057689 -0.08672004 0 0 Z " fill="#FEFEFE" transform="translate(2145.24609375,4.90234375)"/>
<path d="M0 0 C10.23 0 20.46 0 31 0 C32.07894531 2.58199219 33.15789062 5.16398438 34.26953125 7.82421875 C42.31263015 27.06379458 50.37938874 46.29300182 58.5 65.5 C65.0709997 81.04207819 71.60731966 96.59819534 78.11474609 112.16699219 C84.2724739 126.89703165 90.47246257 141.60886289 96.68969727 156.31387329 C103.41469696 172.22178884 110.09896289 188.14643182 116.75341797 204.08398438 C119.99945401 211.8551532 123.2536654 219.62194121 126.5703125 227.36328125 C126.97120087 228.30103645 126.97120087 228.30103645 127.38018799 229.25773621 C128.58212501 232.06887993 129.78888694 234.87769913 131.00585938 237.68237305 C131.61010742 239.09256714 131.61010742 239.09256714 132.2265625 240.53125 C132.57283691 241.33111328 132.91911133 242.13097656 133.27587891 242.95507812 C134 245 134 245 134 248 C134.66 248 135.32 248 136 248 C136.08652832 247.36449219 136.17305664 246.72898437 136.26220703 246.07421875 C137.29537543 241.76923646 139.04915052 237.86820728 140.8046875 233.8125 C141.19524323 232.89940063 141.58579895 231.98630127 141.9881897 231.04553223 C142.83500766 229.06713817 143.68399983 227.08967365 144.53491211 225.11303711 C146.36122843 220.87048666 148.17720313 216.62353507 149.99383545 212.37683105 C150.93604548 210.17453332 151.87880117 207.97246896 152.82208252 205.77062988 C157.02988091 195.94561699 161.1919217 186.10168461 165.34088135 176.25170898 C172.60853672 158.99853775 179.92227101 141.76535538 187.26025391 124.54199219 C193.75848465 109.28790574 200.22159871 94.01934194 206.66314697 78.74124146 C213.87564989 61.63660756 221.13637311 44.55272256 228.41601562 27.4765625 C229.0210643 26.05664757 229.0210643 26.05664757 229.63833618 24.60804749 C230.38152883 22.86407561 231.12511827 21.12027273 231.86923218 19.37669373 C234.61554791 12.9320295 237.30531855 6.46723549 240 0 C249.9 0 259.8 0 270 0 C269.14548278 5.12710334 267.86250939 9.14791568 265.81640625 13.82421875 C265.48974976 14.58586334 265.16309326 15.34750793 264.82653809 16.13223267 C264.11719321 17.78441682 263.40489279 19.43533451 262.68997192 21.08511353 C261.14203088 24.65801034 259.60901599 28.23724693 258.07530212 31.81626892 C257.26857664 33.69877197 256.46116209 35.58097986 255.65309143 37.46290588 C251.39480742 47.38714878 247.22364592 57.34722711 243.0625 67.3125 C242.31003991 69.11290055 241.55751679 70.91327477 240.80493164 72.71362305 C239.29153414 76.33444423 237.7786647 79.95548546 236.26611328 83.57666016 C232.51603208 92.55331989 228.75740025 101.52640211 225 110.5 C223.49861249 114.08590174 221.99731371 117.67184061 220.49609375 121.2578125 C220.12463226 122.14511551 219.75317078 123.03241852 219.37045288 123.9466095 C217.12915076 129.30091906 214.88931006 134.65583736 212.65063477 140.01124573 C204.28996138 160.01160414 195.89572052 179.99712469 187.4513855 199.96231079 C178.58835233 220.92342224 169.83759816 241.93105558 161.10205078 262.94555664 C158.73737695 268.63148491 156.36847711 274.31565494 154 280 C142.12 280 130.24 280 118 280 C113.77734375 270.0859375 113.77734375 270.0859375 112.31108093 266.64337158 C110.07265676 261.38789367 107.83419484 256.13243185 105.59559345 250.87702942 C104.25641522 247.73313318 102.91726353 244.58922565 101.578125 241.4453125 C101.3061347 240.80675827 101.0341444 240.16820404 100.75391197 239.51029968 C96.82938189 230.29650379 92.90640961 221.08204598 88.984375 211.8671875 C80.34425809 191.56894247 71.69882267 171.27316732 63 151 C53.79534215 129.54795115 44.65037323 108.07059395 35.50880432 86.59159851 C32.1715453 78.75077053 28.83207174 70.91088851 25.49111366 63.0716362 C23.67990215 58.82170986 21.86896843 54.57166513 20.05795288 50.32165527 C19.07795515 48.02204139 18.09783667 45.72247895 17.11758423 43.42297363 C14.89088 38.19933526 12.66587741 32.97499406 10.44580078 27.74853516 C8.8287108 23.94196164 7.20117949 20.14010862 5.56591797 16.34130859 C4.82379386 14.60648782 4.08176373 12.87162684 3.33984375 11.13671875 C2.9987709 10.35077835 2.65769806 9.56483795 2.30628967 8.75508118 C0 3.3396461 0 3.3396461 0 0 Z " fill="#FEFEFE" transform="translate(398,123)"/>
<path d="M0 0 C0 25.74 0 51.48 0 78 C27.39 78 54.78 78 83 78 C83 87.24 83 96.48 83 106 C55.61 106 28.22 106 0 106 C0.04036169 130.8878557 0.09722648 155.77549726 0.18390274 180.6632309 C0.22362862 192.2203137 0.25605382 203.77732904 0.27099609 215.33447266 C0.28404611 225.41346724 0.31109596 235.49231299 0.35461307 245.57122374 C0.37715267 250.90269488 0.3929152 256.23398297 0.39188385 261.56550598 C0.39113279 266.5954395 0.4092612 271.62496952 0.44116783 276.65479851 C0.44960696 278.48959954 0.45145806 280.32444616 0.44580269 282.15925789 C0.40899339 295.95077428 0.58580144 311.01676835 10 322 C10 322.66 10 323.32 10 324 C10.59167969 324.29003906 11.18335938 324.58007812 11.79296875 324.87890625 C13.66833207 325.83152443 15.49683479 326.87550714 17.3125 327.9375 C36.68190761 337.34046696 62.26142055 333.16020025 83 332 C83 340.58 83 349.16 83 358 C53.51622229 362.91396295 19.46394182 365.43034744 -6.50390625 347.8671875 C-20.8131534 337.16324362 -26.75726378 321.93326824 -29.56846237 304.72873688 C-30.45221964 297.09255847 -30.2588334 289.41432909 -30.22705078 281.73730469 C-30.2264857 279.81437689 -30.22680511 277.89144866 -30.22793579 275.96852112 C-30.22850653 270.78134222 -30.21679758 265.59425697 -30.20278788 260.40709972 C-30.19023381 254.97389903 -30.18910634 249.54069587 -30.18673706 244.10748291 C-30.18053599 233.83368987 -30.16414383 223.55993969 -30.14403808 213.28616548 C-30.12163625 201.58357656 -30.1106749 189.88098553 -30.10064721 178.17838049 C-30.07977632 154.11889113 -30.04311731 130.05946049 -30 106 C-50.13 106 -70.26 106 -91 106 C-91 96.76 -91 87.52 -91 78 C-70.87 78 -50.74 78 -30 78 C-30 54.9 -30 31.8 -30 8 C-4.4 0 -4.4 0 0 0 Z " fill="#FEFEFE" transform="translate(1648,45)"/>
<path d="M0 0 C9.57 0 19.14 0 29 0 C29 92.4 29 184.8 29 280 C19.43 280 9.86 280 0 280 C0 187.6 0 95.2 0 0 Z " fill="#BF7E1D" transform="translate(1856,123)"/>
<path d="M0 0 C1.02515923 -0.00538554 2.05031846 -0.01077108 3.10654312 -0.01631981 C6.54039435 -0.03062301 9.97386138 -0.02348966 13.4077301 -0.01637268 C15.8701356 -0.02207498 18.33253846 -0.0290387 20.79493713 -0.03717041 C26.78831524 -0.05326657 32.78154249 -0.05519937 38.77492743 -0.04995751 C43.64697031 -0.04591381 48.51898223 -0.04736173 53.39102364 -0.05270576 C54.08480531 -0.05345419 54.77858698 -0.05420261 55.49339234 -0.05497371 C56.90287002 -0.05650521 58.3123477 -0.05804356 59.72182537 -0.05958868 C72.93535864 -0.07331211 86.14883268 -0.06787711 99.3623646 -0.05640347 C111.44648431 -0.04647089 123.53045091 -0.0594124 135.61454701 -0.08333766 C148.02797292 -0.10772945 160.44132752 -0.11733636 172.85477692 -0.11068493 C179.82181346 -0.10719292 186.78873225 -0.1094235 193.75575066 -0.12693596 C200.30654265 -0.14319818 206.85708966 -0.13847505 213.40789032 -0.11963081 C215.8125026 -0.11593856 218.21713646 -0.11907181 220.6217289 -0.1295166 C223.9035946 -0.14268397 227.18448503 -0.13121563 230.46630859 -0.11352539 C231.41845401 -0.1231304 232.37059942 -0.1327354 233.35159773 -0.14263147 C239.34575113 -0.07612639 242.89617552 0.8686942 247.79664612 4.38768005 C251.1705539 9.06761666 251.66199712 13.79692922 250.79664612 19.38768005 C249.49535916 23.20331809 247.69444408 25.79012646 244.28591824 28.05876255 C239.62437019 29.83415082 235.54040582 29.80651384 230.59329224 29.77536011 C229.05555339 29.78343841 229.05555339 29.78343841 227.48674911 29.79167992 C224.05289788 29.80598311 220.61943085 29.79884977 217.18556213 29.79173279 C214.72315663 29.79743509 212.26075378 29.8043988 209.7983551 29.81253052 C203.804977 29.82862668 197.81174975 29.83055947 191.81836481 29.82531761 C186.94632193 29.82127392 182.07431 29.82272183 177.2022686 29.82806587 C176.50848693 29.82881429 175.81470526 29.82956272 175.0998999 29.83033382 C173.69042221 29.83186532 172.28094454 29.83340366 170.87146687 29.83494879 C157.6579336 29.84867222 144.44445956 29.84323722 131.23092764 29.83176357 C119.14680793 29.82183099 107.06284133 29.83477251 94.97874523 29.85869776 C82.56531932 29.88308956 70.15196471 29.89269647 57.73851532 29.88604504 C50.77147878 29.88255303 43.80455999 29.88478361 36.83754158 29.90229607 C30.28674959 29.91855829 23.73620257 29.91383516 17.18540192 29.89499092 C14.78078963 29.89129867 12.37615577 29.89443192 9.97156334 29.90487671 C6.68969764 29.91804407 3.40880721 29.90657574 0.12698364 29.8888855 C-0.82516177 29.8984905 -1.77730718 29.90809551 -2.75830549 29.91799158 C-8.7524589 29.8514865 -12.30288328 28.90666591 -17.20335388 25.38768005 C-20.57726167 20.70774345 -21.06870488 15.97843088 -20.20335388 10.38768005 C-18.90206692 6.57204202 -17.10115185 3.98523365 -13.692626 1.71659756 C-9.03107795 -0.05879071 -4.94711358 -0.03115373 0 0 Z " fill="#FEFEFE" transform="translate(813.2033538818359,375.61231994628906)"/>
<path d="M0 0 C1.02909392 -0.00538554 2.05818785 -0.01077108 3.11846644 -0.01631981 C6.57157619 -0.03064316 10.02430497 -0.02348471 13.47743225 -0.01637268 C15.95116485 -0.02207393 18.42489481 -0.02903724 20.89862061 -0.03717041 C26.92321614 -0.05327637 32.94766162 -0.055197 38.97226398 -0.04995751 C43.86912957 -0.04591589 48.76596434 -0.04735926 53.66282845 -0.05270576 C54.35980969 -0.05345419 55.05679094 -0.05420261 55.77489283 -0.05497371 C57.19081478 -0.05650519 58.60673672 -0.05804354 60.02265865 -0.05958868 C73.30053765 -0.07331626 86.57835773 -0.06787422 99.85623539 -0.05640347 C112.00252594 -0.04647071 124.14866417 -0.05941196 136.29493123 -0.08333766 C148.76821123 -0.1077223 161.24142028 -0.11733811 173.71472365 -0.11068493 C180.71695451 -0.1071913 187.71906821 -0.1094342 194.72128105 -0.12693596 C201.30488737 -0.14318736 207.88824979 -0.13848618 214.4718647 -0.11963081 C216.88979663 -0.11593578 219.30775 -0.11907985 221.72566223 -0.1295166 C225.02325733 -0.14266502 228.31987885 -0.13123256 231.61743164 -0.11352539 C232.57706296 -0.1231304 233.53669429 -0.1327354 234.52540535 -0.14263147 C241.39137789 -0.06663476 244.6370543 1.37564074 249.68470764 6.07518005 C252.26052691 11.09124915 252.32297968 15.8600637 250.74720764 21.20018005 C248.43100895 25.13771784 245.93655957 27.35550409 241.87220764 29.38768005 C240.4865105 29.48377496 239.09631575 29.51863869 237.70729446 29.52190113 C236.82919688 29.52635897 235.95109929 29.53081682 235.04639268 29.53540975 C233.59049183 29.5351332 233.59049183 29.5351332 232.10517883 29.53485107 C231.07864818 29.53852776 230.05211753 29.54220445 228.99447989 29.54599255 C225.53216803 29.55706332 222.06988615 29.56087897 218.6075592 29.56468201 C216.13427128 29.57094407 213.6609843 29.57759063 211.18769836 29.58459473 C203.74906277 29.60384737 196.31043514 29.61442666 188.87178195 29.62332252 C185.36992658 29.62770415 181.86807273 29.6330713 178.36621857 29.63831139 C166.7270349 29.65532488 155.08785218 29.66981928 143.44865799 29.67706013 C140.4274063 29.67897007 137.40615462 29.68089039 134.38490295 29.68284607 C133.6339729 29.68332981 132.88304284 29.68381355 132.10935733 29.68431195 C119.943488 29.69261308 107.77771698 29.71795082 95.61189058 29.75042675 C83.12515928 29.78348789 70.63847795 29.80150805 58.15170264 29.80470437 C51.13934978 29.8068704 44.12714025 29.81563243 37.11483002 29.84116554 C30.51897657 29.86512656 23.92333491 29.86870415 17.32743073 29.85840416 C14.90465437 29.8579072 12.48186556 29.86427445 10.05912781 29.87796021 C6.75482996 29.8955834 3.45146859 29.88861943 0.14717102 29.87542725 C-0.81450666 29.88639649 -1.77618434 29.89736574 -2.76700377 29.90866739 C-8.54376099 29.85287882 -11.68571201 29.15388237 -16.12779236 25.38768005 C-19.7283651 21.42705004 -19.63110118 17.17272347 -19.47935486 12.0478363 C-18.85640411 7.33417565 -16.72310581 4.68200081 -13.11624813 1.75566006 C-8.75123472 -0.24244583 -4.74773161 -0.02966546 0 0 Z " fill="#FEFEFE" transform="translate(19.127792358398438,375.61231994628906)"/>
<path d="M0 0 C1.33879481 -0.01358496 1.33879481 -0.01358496 2.70463598 -0.02744436 C3.68108371 -0.02211644 4.65753144 -0.01678851 5.6635685 -0.01129913 C6.70405865 -0.01739024 7.74454881 -0.02348134 8.81656897 -0.02975702 C12.31423221 -0.0464485 15.81153386 -0.04160234 19.3092289 -0.03681183 C21.81237099 -0.04414859 24.31550969 -0.05273366 26.81864357 -0.06247711 C32.91890199 -0.08242928 39.01901746 -0.0880714 45.11929582 -0.08628923 C50.07768517 -0.08498203 55.03604486 -0.08878357 59.99442863 -0.09621429 C61.42224395 -0.09831347 62.85005927 -0.10041108 64.27787459 -0.10250711 C64.98852398 -0.10355064 65.69917336 -0.10459417 66.43135758 -0.10566932 C79.87470953 -0.12457586 93.31800694 -0.12352031 106.76136668 -0.11669999 C119.05971125 -0.11112489 131.35784748 -0.1319477 143.65614335 -0.16506046 C156.28307549 -0.19879424 168.90990781 -0.21396615 181.53688586 -0.20934343 C188.62635405 -0.20709833 195.71562972 -0.21234765 202.80505943 -0.23723602 C209.4716301 -0.26044047 216.13769585 -0.25767033 222.8042984 -0.2373085 C225.25287206 -0.23388879 227.70147465 -0.23902858 230.15000916 -0.25329208 C233.48943085 -0.27140482 236.82736647 -0.25879306 240.16674232 -0.23834991 C241.13872861 -0.25086776 242.1107149 -0.26338561 243.11215532 -0.27628279 C247.54874902 -0.21794164 250.58164805 -0.0607225 254.10588455 2.79450989 C258.25757471 7.20581658 258.94779592 10.21232694 258.79213905 16.1370163 C258.30411728 20.52158691 256.51032294 23.33512986 253.56896305 26.51891232 C249.17640492 29.22425524 245.36669192 28.94065837 240.30045509 28.89777374 C239.25911051 28.90471927 238.21776593 28.9116648 237.14486545 28.9188208 C233.65020134 28.93713918 230.15621237 28.92681261 226.66152382 28.91655731 C224.15823291 28.9236133 221.65494627 28.93235696 219.15166664 28.9426651 C213.05484191 28.96286277 206.95828307 28.96417753 200.86145205 28.95603956 C195.90594044 28.94973963 190.95048326 28.9508765 185.99497223 28.95731163 C185.2896649 28.95821329 184.58435757 28.95911494 183.85767729 28.96004392 C182.42484433 28.96189512 180.99201139 28.96375768 179.55917846 28.96563148 C166.12247708 28.98221104 152.68588069 28.97348957 139.24918561 28.9566459 C126.95736484 28.94194997 114.66578853 28.95657543 102.37399925 28.98541606 C89.75154677 29.01481188 77.12920712 29.02578175 64.50672191 29.01623386 C63.07885518 29.01521131 61.65098842 29.0142167 60.22312164 29.01325035 C59.16932828 29.01253577 59.16932828 29.01253577 58.09424617 29.01180675 C53.14567174 29.00964278 48.19720415 29.01944572 43.24865341 29.03402138 C36.58615719 29.05337162 29.92418782 29.04646184 23.26168633 29.02182198 C20.81473011 29.01680317 18.36773942 29.02033136 15.9208107 29.03297043 C12.58361579 29.04884591 9.24792971 29.03400001 5.91080666 29.01129913 C4.93950249 29.02313486 3.96819832 29.03497059 2.96746069 29.04716498 C-1.45842931 28.98588216 -4.49900202 28.82563083 -8.01996517 25.98447323 C-12.22072365 21.50204271 -12.91793389 17.59767014 -12.77817345 11.5979538 C-12.15640086 7.29862384 -9.76765119 4.53681611 -6.59585226 1.74299192 C-4.14758302 0.18575596 -2.87372602 0.00586498 0 0 Z " fill="#FEFEFE" transform="translate(805.4578609466553,248.61688995361328)"/>
<path d="M0 0 C1.33879481 -0.01358496 1.33879481 -0.01358496 2.70463598 -0.02744436 C3.68108371 -0.02211644 4.65753144 -0.01678851 5.6635685 -0.01129913 C6.70405865 -0.01739024 7.74454881 -0.02348134 8.81656897 -0.02975702 C12.31423221 -0.0464485 15.81153386 -0.04160234 19.3092289 -0.03681183 C21.81237099 -0.04414859 24.31550969 -0.05273366 26.81864357 -0.06247711 C32.91890199 -0.08242928 39.01901746 -0.0880714 45.11929582 -0.08628923 C50.07768517 -0.08498203 55.03604486 -0.08878357 59.99442863 -0.09621429 C61.42224395 -0.09831347 62.85005927 -0.10041108 64.27787459 -0.10250711 C64.98852398 -0.10355064 65.69917336 -0.10459417 66.43135758 -0.10566932 C79.87470953 -0.12457586 93.31800694 -0.12352031 106.76136668 -0.11669999 C119.05971125 -0.11112489 131.35784748 -0.1319477 143.65614335 -0.16506046 C156.28307549 -0.19879424 168.90990781 -0.21396615 181.53688586 -0.20934343 C188.62635405 -0.20709833 195.71562972 -0.21234765 202.80505943 -0.23723602 C209.4716301 -0.26044047 216.13769585 -0.25767033 222.8042984 -0.2373085 C225.25287206 -0.23388879 227.70147465 -0.23902858 230.15000916 -0.25329208 C233.48943085 -0.27140482 236.82736647 -0.25879306 240.16674232 -0.23834991 C241.13872861 -0.25086776 242.1107149 -0.26338561 243.11215532 -0.27628279 C247.54874902 -0.21794164 250.58164805 -0.0607225 254.10588455 2.79450989 C258.2597776 7.20815722 258.93636582 10.20883329 258.79995155 16.13311005 C258.33580912 20.18380766 256.60057586 23.10416557 254.04213905 26.19561005 C251.27662586 28.38497466 248.61588224 28.50902809 245.23576736 28.51453781 C244.35157863 28.51837896 243.4673899 28.5222201 242.55640757 28.52617764 C241.58414678 28.52531116 240.61188598 28.52444468 239.61016273 28.52355194 C238.57798854 28.52652306 237.54581435 28.52949419 236.48236215 28.53255534 C233.00699973 28.54126046 229.53167168 28.54275212 226.05629921 28.54424286 C223.5713894 28.5488697 221.0864803 28.55389417 218.60157204 28.55928802 C211.83923162 28.57242575 205.07690471 28.57889602 198.31455469 28.58329868 C194.09308592 28.58606069 189.87161943 28.59029794 185.65015221 28.59480286 C173.96460107 28.60699504 162.27905177 28.61729483 150.59349442 28.62067795 C149.4715807 28.6210073 149.4715807 28.6210073 148.32700207 28.6213433 C147.57726183 28.62156158 146.82752158 28.62177986 146.05506194 28.62200475 C144.53578035 28.62244822 143.01649876 28.62289478 141.49721718 28.62334442 C140.36679096 28.62367657 140.36679096 28.62367657 139.21352784 28.62401542 C126.99856711 28.62796457 114.78366598 28.64542238 102.56872828 28.66870394 C90.0311192 28.69240789 77.49354004 28.70487934 64.95590818 28.70604587 C57.91512644 28.70696311 50.87442239 28.71272778 43.83366203 28.73086548 C37.2131965 28.74786028 30.5928526 28.74952627 23.97236252 28.74072647 C21.53949463 28.73995342 19.10661897 28.74433389 16.6737709 28.75418472 C13.35836351 28.76682421 10.04348578 28.76107078 6.72808266 28.75060272 C5.27638363 28.76268733 5.27638363 28.76268733 3.79535735 28.77501607 C-1.1103905 28.73866801 -4.48934567 28.60585796 -8.45786095 25.38311005 C-12.20163054 21.10451622 -12.80588641 17.19177583 -12.7430172 11.6682663 C-12.20055418 7.32113114 -9.79017578 4.55665651 -6.59585226 1.74299192 C-4.14758302 0.18575596 -2.87372602 0.00586498 0 0 Z " fill="#FEFEFE" transform="translate(805.4578609466553,123.61688995361328)"/>
<path d="M0 0 C0.89463892 -0.00644889 1.78927784 -0.01289778 2.71102703 -0.0195421 C4.18692749 -0.01489629 4.18692749 -0.01489629 5.69264412 -0.01015663 C6.73706897 -0.01468774 7.78149382 -0.01921886 8.85756791 -0.02388728 C12.37442518 -0.03659712 15.8911289 -0.03490666 19.40800667 -0.03325844 C21.92247404 -0.03923956 24.43693957 -0.04604414 26.95140266 -0.05361366 C33.08285047 -0.06948163 39.21424157 -0.07572388 45.345708 -0.07683842 C50.32891393 -0.0777882 55.31210715 -0.08189499 60.29530907 -0.08823967 C74.41867003 -0.10585618 88.54200057 -0.11507791 102.6653726 -0.11357872 C103.42703364 -0.11349881 104.18869468 -0.1134189 104.97343636 -0.11333656 C106.11732034 -0.11321392 106.11732034 -0.11321392 107.2843131 -0.1130888 C119.64479549 -0.1122758 132.00515605 -0.13141591 144.36560319 -0.1596133 C157.05238024 -0.18832712 169.73909784 -0.20215442 182.42590821 -0.20042574 C189.55054627 -0.19976132 196.67505662 -0.20527654 203.79966545 -0.22678185 C210.49898852 -0.24687357 217.19799674 -0.24633537 223.8973484 -0.23174858 C226.3592423 -0.22965092 228.82115282 -0.23441789 231.28301811 -0.2464695 C234.63798029 -0.26183213 237.99200011 -0.25267257 241.34694099 -0.23720741 C242.32641319 -0.24749454 243.30588539 -0.25778167 244.31503856 -0.26838052 C248.55674543 -0.22502519 250.98405886 -0.14381127 254.6733284 2.08895493 C257.78076488 5.50323219 259.54025093 8.81144863 259.74443245 13.49945641 C259.38559897 18.69816584 258.09797375 22.21443749 254.6467762 26.25726891 C251.75246093 28.03771975 249.58273192 28.50914295 246.20732594 28.52012444 C245.31889616 28.52780673 244.43046638 28.53548902 243.51511449 28.5434041 C242.54323982 28.54167114 241.57136516 28.53993817 240.57003975 28.53815269 C239.53433871 28.54409494 238.49863767 28.55003718 237.43155175 28.5561595 C233.95011948 28.57354654 230.46882465 28.57655104 226.98735237 28.57953453 C224.49568576 28.58878989 222.00402198 28.59883908 219.51236153 28.60962486 C212.73547979 28.63588486 205.95865193 28.6488382 199.18173194 28.65764618 C194.94968525 28.66317331 190.71764767 28.67164839 186.48560715 28.68065453 C174.7665683 28.70503697 163.04753675 28.72563669 151.32847309 28.73240471 C150.20366533 28.73306341 150.20366533 28.73306341 149.05613418 28.73373541 C148.30447801 28.73417197 147.55282184 28.73460852 146.7783882 28.73505831 C145.25526948 28.73594524 143.73215077 28.73683836 142.20903206 28.73773766 C141.45351409 28.73818052 140.69799611 28.73862337 139.91958366 28.73907965 C127.6768558 28.7469761 115.434366 28.78188665 103.1917301 28.8284567 C90.62017221 28.87589171 78.04873377 28.90080873 65.47708493 28.90314054 C58.41938802 28.90497356 51.36200136 28.9164652 44.30438995 28.95277977 C37.66657207 28.98681423 31.02923913 28.99008149 24.39132309 28.97250175 C21.95444475 28.97095785 19.51753511 28.97968816 17.08073616 28.99941826 C13.75460647 29.02477074 10.4305778 29.01315532 7.10446358 28.99225426 C5.65668983 29.01642347 5.65668983 29.01642347 4.17966813 29.04108095 C-1.709716 28.95447567 -4.83293055 27.86761098 -9.09197062 23.73924208 C-12.24935458 20.0293142 -11.67583181 15.91228164 -11.6422863 11.24945641 C-11.23678999 7.05202162 -10.18497156 5.3317379 -7.3532238 2.25726891 C-4.23003785 0.17514494 -3.546081 0.00645617 0 0 Z " fill="#FEFEFE" transform="translate(11.35322380065918,123.74273109436035)"/>
<path d="M0 0 C0.89314657 -0.00644889 1.78629314 -0.01289778 2.70650476 -0.0195421 C3.68363461 -0.01644489 4.66076446 -0.01334769 5.66750431 -0.01015663 C6.70870003 -0.01468774 7.74989576 -0.01921886 8.82264286 -0.02388728 C12.32257486 -0.03657966 15.82235221 -0.03490778 19.32230473 -0.03325844 C21.82706751 -0.0392406 24.33182845 -0.04604542 26.83658695 -0.05361366 C32.94049213 -0.06947181 39.04434037 -0.07572335 45.14826422 -0.07683842 C50.10903969 -0.07778861 55.06980241 -0.08189744 60.03057384 -0.08823967 C74.09268915 -0.10585213 88.15477393 -0.11507839 102.21690034 -0.11357872 C102.97500898 -0.11349881 103.73311763 -0.1134189 104.51419926 -0.11333656 C105.27323247 -0.1132548 106.03226567 -0.11317304 106.81429989 -0.1130888 C119.11975344 -0.11227563 131.42508467 -0.13142106 143.73050284 -0.1596133 C156.36307098 -0.18832694 168.99557943 -0.20215447 181.62818104 -0.20042574 C188.7215053 -0.19976137 195.81470128 -0.20527435 202.90799618 -0.22678185 C209.57696423 -0.24687311 216.24561599 -0.24633562 222.91461277 -0.23174858 C225.36521963 -0.22965096 227.81584319 -0.23441766 230.26642132 -0.2464695 C233.60600474 -0.26183252 236.9446415 -0.25267238 240.28420353 -0.23720741 C241.74655222 -0.2526381 241.74655222 -0.2526381 243.23844332 -0.26838052 C247.47021099 -0.2249288 249.88287848 -0.14039571 253.56310463 2.08895493 C256.67368648 5.50185736 258.43277747 8.81046143 258.63700199 13.49945641 C258.27816851 18.69816584 256.99054329 22.21443749 253.53934574 26.25726891 C250.64503047 28.03771975 248.47530146 28.50914295 245.09989548 28.52012444 C244.2114657 28.52780673 243.32303592 28.53548902 242.40768403 28.5434041 C241.43580936 28.54167114 240.4639347 28.53993817 239.46260929 28.53815269 C238.42690825 28.54409494 237.39120721 28.55003718 236.3241213 28.5561595 C232.84268903 28.57354654 229.3613942 28.57655104 225.87992191 28.57953453 C223.3882553 28.58878989 220.89659153 28.59883908 218.40493107 28.60962486 C211.62804933 28.63588486 204.85122147 28.6488382 198.07430148 28.65764618 C193.84225479 28.66317331 189.61021722 28.67164839 185.37817669 28.68065453 C173.65913784 28.70503697 161.9401063 28.72563669 150.22104263 28.73240471 C149.09623487 28.73306341 149.09623487 28.73306341 147.94870372 28.73373541 C147.19704755 28.73417197 146.44539138 28.73460852 145.67095774 28.73505831 C144.14783903 28.73594524 142.62472031 28.73683836 141.1016016 28.73773766 C140.34608363 28.73818052 139.59056565 28.73862337 138.8121532 28.73907965 C126.56942534 28.7469761 114.32693554 28.78188665 102.08429965 28.8284567 C89.51274176 28.87589171 76.94130331 28.90080873 64.36965448 28.90314054 C57.31195757 28.90497356 50.25457091 28.9164652 43.1969595 28.95277977 C36.55914161 28.98681423 29.92180867 28.99008149 23.28389263 28.97250175 C20.84701429 28.97095785 18.41010466 28.97968816 15.9733057 28.99941826 C12.64717601 29.02477074 9.32314734 29.01315532 5.99703312 28.99225426 C4.54925937 29.01642347 4.54925937 29.01642347 3.07223767 29.04108095 C-2.81714646 28.95447567 -5.940361 27.86761098 -10.19940108 23.73924208 C-13.35681282 20.02928156 -12.784948 15.91240898 -12.74581051 11.24945641 C-12.34269892 7.01954579 -11.36416927 5.32209031 -8.46065426 2.25726891 C-5.5477569 0.4856593 -3.38936832 0.00619822 0 0 Z " fill="#FEFEFE" transform="translate(12.460654258728027,248.74273109436035)"/>
<path d="M0 0 C4.63781003 3.47237068 7.45691376 8.26136629 9.26953125 13.69921875 C10.19578306 21.65175215 9.17938301 28.22816989 4.26953125 34.69921875 C-1.75850917 39.97643563 -7.35289017 42.10324965 -15.29296875 41.97265625 C-21.21992324 41.30777353 -26.06207039 38.8120955 -30.10546875 34.44921875 C-34.47292633 28.77152389 -36.50129812 22.89362624 -35.73046875 15.69921875 C-34.25707897 9.12869675 -30.77734671 4.10763624 -25.73046875 -0.30078125 C-17.61464287 -5.33528735 -8.11229842 -4.45857031 0 0 Z " fill="#BF7E1E" transform="translate(1883.73046875,14.30078125)"/>
</svg>
