<?xml version="1.0" encoding="UTF-8"?>
<!DOCTYPE svg PUBLIC "-//W3C//DTD SVG 1.1//EN" "http://www.w3.org/Graphics/SVG/1.1/DTD/svg11.dtd">
<!-- Creator: CorelDRAW -->
<svg xmlns="http://www.w3.org/2000/svg" xml:space="preserve" width="287.969mm" height="355.532mm" version="1.1" style="shape-rendering:geometricPrecision; text-rendering:geometricPrecision; image-rendering:optimizeQuality; fill-rule:evenodd; clip-rule:evenodd"
viewBox="0 0 2627.13 3243.51"
 xmlns:xlink="http://www.w3.org/1999/xlink"
 xmlns:xodm="http://www.corel.com/coreldraw/odm/2003">
 <defs>
  <style type="text/css">
   <![CDATA[
    .fil0 {fill:#E9E8E0}
   ]]>
  </style>
 </defs>
 <g id="Plan_x0020_1">
  <metadata id="CorelCorpID_0Corel-Layer"/>
  <path class="fil0" d="M2626.94 753.51c-93.78,166.49 -202.81,291.98 -323.04,387.29 107.74,0 215.49,0 323.24,0 0,487.37 0,974.72 0,1462.09 -223.09,2.77 -446.18,5.54 -669.27,8.31 0,-280.37 0,-560.74 0,-841.11 -420.09,0 -840.2,0 -1260.29,0 0,280.37 0,560.74 0,841.11 -223.09,0 -446.18,0 -669.27,0 0,-490.13 0,-980.27 0,-1470.4 107.68,0 215.36,0 323.04,0 -120.23,-95.31 -229.26,-220.8 -323.04,-387.29 0,-247.04 0,-494.09 0,-741.13 150.87,0 301.74,0 452.61,0 0,467.68 379.13,846.81 846.81,846.81 467.68,0 846.81,-379.13 846.81,-846.81 150.87,0 301.73,0 452.6,0 -0.07,247.04 -0.13,494.09 -0.19,741.13zm-2626.94 2483.54l0 -355.27 71.95 0 0 139.92 139.92 0 0 -139.92 71.95 0 0 355.27 -71.95 0 0 -155.31 -139.92 0 0 155.31 -71.95 0zm368.41 -94.77l0 -67.98 133.97 0 0 67.98 -133.97 0zm419.43 -36.22l69.47 21.34c-10.67,39.12 -28.45,68.14 -53.26,87.16 -24.81,18.94 -56.23,28.45 -94.36,28.45 -47.22,0 -86,-16.13 -116.44,-48.38 -30.35,-32.25 -45.57,-76.33 -45.57,-132.32 0,-59.13 15.3,-105.11 45.81,-137.86 30.52,-32.75 70.71,-49.12 120.49,-49.12 43.5,0 78.81,12.9 105.93,38.62 16.21,15.22 28.28,37.05 36.39,65.58l-70.95 16.87c-4.22,-18.36 -12.98,-32.91 -26.3,-43.58 -13.4,-10.67 -29.61,-15.96 -48.63,-15.96 -26.38,0 -47.8,9.43 -64.17,28.37 -16.46,18.85 -24.64,49.45 -24.64,91.79 0,44.82 8.1,76.83 24.23,95.85 16.21,19.1 37.21,28.61 63.1,28.61 19.1,0 35.56,-6.04 49.29,-18.19 13.73,-12.16 23.65,-31.18 29.61,-57.23zm149.59 130.99l0 -355.27 71.95 0 0 139.92 139.92 0 0 -139.92 71.95 0 0 355.27 -71.95 0 0 -155.31 -139.92 0 0 155.31 -71.95 0zm361.96 -175.48c0,-36.22 5.46,-66.65 16.29,-91.3 8.02,-18.11 19.1,-34.4 33.08,-48.79 13.98,-14.39 29.27,-25.06 45.9,-32.09 22.16,-9.34 47.72,-14.06 76.66,-14.06 52.43,0 94.27,16.29 125.78,48.79 31.42,32.58 47.14,77.82 47.14,135.79 0,57.47 -15.63,102.46 -46.81,134.88 -31.18,32.5 -72.94,48.71 -125.12,48.71 -52.84,0 -94.94,-16.13 -126.11,-48.46 -31.18,-32.25 -46.81,-76.74 -46.81,-133.47zm73.93 -2.4c0,40.27 9.34,70.79 27.95,91.63 18.61,20.76 42.26,31.18 70.87,31.18 28.7,0 52.18,-10.34 70.62,-30.93 18.36,-20.67 27.54,-51.6 27.54,-92.87 0,-40.77 -8.93,-71.2 -26.88,-91.22 -17.86,-20.1 -41.6,-30.1 -71.29,-30.1 -29.61,0 -53.51,10.17 -71.62,30.43 -18.11,20.34 -27.21,50.94 -27.21,91.88zm342.94 177.88l0 -355.27 71.95 0 0 355.27 -71.95 0zm386.1 -130.99l69.47 21.34c-10.67,39.12 -28.45,68.14 -53.26,87.16 -24.81,18.94 -56.23,28.45 -94.36,28.45 -47.22,0 -86,-16.13 -116.44,-48.38 -30.35,-32.25 -45.57,-76.33 -45.57,-132.32 0,-59.13 15.3,-105.11 45.81,-137.86 30.52,-32.75 70.71,-49.12 120.49,-49.12 43.5,0 78.81,12.9 105.93,38.62 16.21,15.22 28.28,37.05 36.39,65.58l-70.95 16.87c-4.22,-18.36 -12.98,-32.91 -26.3,-43.58 -13.4,-10.67 -29.61,-15.96 -48.63,-15.96 -26.38,0 -47.8,9.43 -64.17,28.37 -16.46,18.85 -24.64,49.45 -24.64,91.79 0,44.82 8.1,76.83 24.23,95.85 16.21,19.1 37.21,28.61 63.1,28.61 19.1,0 35.56,-6.04 49.29,-18.19 13.73,-12.16 23.65,-31.18 29.61,-57.23zm149.59 130.99l0 -355.27 262.98 0 0 60.04 -191.03 0 0 78.89 177.63 0 0 60.04 -177.63 0 0 96.26 197.98 0 0 60.04 -269.92 0zm-439.41 -3237.05c0,267.75 -217.06,484.81 -484.81,484.81 -267.75,0 -484.81,-217.06 -484.81,-484.81 323.21,0 646.41,0 969.62,0z"/>
 </g>
</svg>
