<?xml version="1.0" encoding="UTF-8"?>
<svg version="1.1" xmlns="http://www.w3.org/2000/svg" width="1915" height="1188">
<path d="M0 0 C1.63113361 1.51425301 3.25619256 3.03507685 4.875 4.5625 C6.07382813 5.64724609 6.07382813 5.64724609 7.296875 6.75390625 C15.13709313 14.1322007 24.4257252 24.21467561 27.875 34.5625 C27.40602295 34.85495605 26.9370459 35.14741211 26.45385742 35.44873047 C24.32310835 36.7778455 22.19279997 38.10766528 20.0625 39.4375 C18.95551758 40.12779297 18.95551758 40.12779297 17.82617188 40.83203125 C16.75786133 41.49912109 16.75786133 41.49912109 15.66796875 42.1796875 C15.0133667 42.58815918 14.35876465 42.99663086 13.68432617 43.41748047 C12.0657533 44.4417831 10.46875623 45.49999584 8.875 46.5625 C7.885 46.5625 6.895 46.5625 5.875 46.5625 C4.1484375 44.10546875 4.1484375 44.10546875 2.25 40.75 C-1.61859266 34.14685309 -6.05580336 28.31068995 -11.125 22.5625 C-11.65222656 21.95148437 -12.17945313 21.34046875 -12.72265625 20.7109375 C-32.87132129 -1.03519203 -65.1120069 -12.50158908 -94.203125 -13.640625 C-127.73902672 -14.26914793 -162.23499923 -4.28385023 -186.81616211 19.31347656 C-188.25755281 20.72461557 -189.69157644 22.14326875 -191.125 23.5625 C-192.13626953 24.48289062 -192.13626953 24.48289062 -193.16796875 25.421875 C-207.30722996 38.49341168 -217.28107045 59.19384523 -222.125 77.5625 C-222.31819824 78.2416748 -222.51139648 78.92084961 -222.71044922 79.62060547 C-228.89318447 101.9137823 -228.49016594 128.37594789 -222.125 150.5625 C-221.94308105 151.22797852 -221.76116211 151.89345703 -221.57373047 152.57910156 C-215.86212305 173.06738769 -204.77183593 190.375589 -190.125 205.5625 C-189.12339844 206.65884766 -189.12339844 206.65884766 -188.1015625 207.77734375 C-168.43531618 228.72977917 -136.38339402 240.51580317 -108.07910156 241.6887207 C-92.88002171 242.03138533 -77.98470029 242.01966865 -63.125 238.5625 C-62.4045752 238.39621094 -61.68415039 238.22992187 -60.94189453 238.05859375 C-41.286027 233.32118314 -23.72496221 223.50798114 -9.125 209.5625 C-8.52171875 209.03398438 -7.9184375 208.50546875 -7.296875 207.9609375 C9.88329833 192.30610666 17.39191034 167.91030692 19.875 145.5625 C-20.385 145.5625 -60.645 145.5625 -102.125 145.5625 C-102.125 138.3025 -102.125 131.0425 -102.125 123.5625 C-53.615 123.5625 -5.105 123.5625 44.875 123.5625 C44.875 165.62629175 34.81746202 199.47575677 4.60546875 229.84375 C-22.56311771 255.435387 -59.87457121 265.78115701 -96.4375 265.8125 C-97.14642395 265.81317474 -97.8553479 265.81384949 -98.58575439 265.81454468 C-110.31533369 265.79686721 -121.64912934 265.11861629 -133.125 262.5625 C-133.86250488 262.40152832 -134.60000977 262.24055664 -135.35986328 262.07470703 C-158.52812679 256.8121798 -180.16932521 246.12817029 -198.125 230.5625 C-199.35089844 229.51835938 -199.35089844 229.51835938 -200.6015625 228.453125 C-228.95707245 203.69692127 -245.57190809 169.75059843 -250.125 132.5625 C-250.23698976 129.91190588 -250.3113225 127.28718744 -250.328125 124.63671875 C-250.33518463 123.89605667 -250.34224426 123.15539459 -250.34951782 122.39228821 C-250.57632785 91.61118607 -250.57632785 91.61118607 -247.125 78.5625 C-246.92632324 77.78132812 -246.72764648 77.00015625 -246.52294922 76.1953125 C-240.18109292 51.79697995 -229.2938324 30.1016416 -212.125 11.5625 C-211.62629395 11.01996582 -211.12758789 10.47743164 -210.61376953 9.91845703 C-156.60055213 -48.18537955 -59.20621722 -52.38182458 0 0 Z " fill="#D7BE7C" transform="translate(1250.125,702.4375)"/>
<path d="M0 0 C0.94770264 0.42273193 0.94770264 0.42273193 1.91455078 0.85400391 C18.24114805 8.20361058 32.23029409 18.52183989 45 31 C45.71285156 31.66257812 46.42570312 32.32515625 47.16015625 33.0078125 C69.67002125 54.39889694 84.10858706 86.4246126 88 117 C88.10957031 117.79019531 88.21914062 118.58039063 88.33203125 119.39453125 C92.94088092 159.39934643 81.92188876 199.26391353 57.390625 231.0859375 C53.14613076 236.25978178 48.64818155 241.18578372 44 246 C43.18994507 246.84510132 43.18994507 246.84510132 42.36352539 247.70727539 C16.35672608 274.34812025 -21.88726787 288.67767084 -58.70874023 289.35351562 C-71.3935546 289.42539815 -83.61984491 288.82911326 -96 286 C-96.74217773 285.83371094 -97.48435547 285.66742187 -98.24902344 285.49609375 C-136.30246196 276.67305519 -169.2193602 252.35611685 -190.17578125 219.609375 C-211.38041179 185.52873094 -219.04461983 143.28534182 -210 104 C-209.83371094 103.25927246 -209.66742187 102.51854492 -209.49609375 101.75537109 C-203.08574935 74.10185761 -188.60507366 50.30537396 -169 30 C-168.45996338 29.43659912 -167.91992676 28.87319824 -167.36352539 28.29272461 C-125.18460855 -14.91451387 -54.07103057 -24.716508 0 0 Z M-158.61181641 51.42089844 C-183.42590929 79.64769281 -191.42399475 114.15618171 -190 151 C-188.62401479 170.79468487 -181.26166843 190.16572223 -171 207 C-170.63600098 207.59828613 -170.27200195 208.19657227 -169.89697266 208.81298828 C-151.90085974 237.59875286 -122.57154795 255.92236057 -90.0625 263.75 C-71.40033435 267.97910737 -50.54372435 267.67854945 -32 263 C-31.35627441 262.83902832 -30.71254883 262.67805664 -30.04931641 262.51220703 C3.16987377 253.92914002 31.28938377 232.41892142 48.71484375 203.03515625 C65.62280021 173.61009655 70.79873127 138.2812662 62.29980469 105.28125 C55.87285111 82.77478616 45.16538464 63.90691604 29 47 C28.39027344 46.32710937 27.78054688 45.65421875 27.15234375 44.9609375 C7.18560793 23.68004285 -24.90573911 10.03293234 -54 9 C-55.20140625 8.9484375 -56.4028125 8.896875 -57.640625 8.84375 C-96.28074107 7.72770638 -132.39358638 22.95645674 -158.61181641 51.42089844 Z " fill="#D5BC79" transform="translate(1546,679)"/>
<path d="M0 0 C6.6 0 13.2 0 20 0 C26.41585884 6.69480923 26.41585884 6.69480923 28.22265625 10.109375 C30.91923089 14.95245147 33.95857721 19.51051219 37.06152344 24.1015625 C39.09996484 27.12036594 41.10432118 30.15952385 43.10546875 33.203125 C46.31723936 38.04144712 49.68504656 42.74292089 53.12231445 47.42285156 C55.8323327 51.14238772 58.41941879 54.9400668 61 58.75 C65.91364093 65.96913814 70.87802489 73.15081398 75.875 80.3125 C81.75588493 88.74552016 87.57192999 97.21982943 93.35058594 105.72314453 C98.56307986 113.38318481 103.84933496 120.99031249 109.14916992 128.59008789 C114.99344544 136.97572585 120.76945548 145.40669576 126.53125 153.84912109 C133.26187272 163.70563476 140.05236582 173.51947275 146.875 183.3125 C153.47046845 192.78026385 160.00521853 202.28765932 166.50927734 211.81835938 C169.75535304 216.56892151 173.01917991 221.30728965 176.28125 226.046875 C178.22229784 228.86737121 180.15905042 231.69077062 182.09375 234.515625 C182.60083496 235.25530518 183.10791992 235.99498535 183.63037109 236.75708008 C184.60809881 238.18342542 185.58501992 239.6103241 186.56103516 241.0378418 C188.60165136 244.16210134 188.60165136 244.16210134 191 247 C191.495 124.735 191.495 124.735 192 0 C199.59 0 207.18 0 215 0 C215 96.69 215 193.38 215 293 C208.4 293 201.8 293 195 293 C188.58414116 286.30519077 188.58414116 286.30519077 186.77734375 282.890625 C184.08076911 278.04754853 181.04142279 273.48948781 177.93847656 268.8984375 C175.90003516 265.87963406 173.89567882 262.84047615 171.89453125 259.796875 C168.68960723 254.96908188 165.32956702 250.2776607 161.8996582 245.60791016 C159.07731248 241.73330574 156.37918369 237.7784766 153.6875 233.8125 C152.55221594 232.14704501 151.4167973 230.48168176 150.28125 228.81640625 C149.72566406 228.00059082 149.17007812 227.18477539 148.59765625 226.34423828 C141.8324202 216.417619 134.99186519 206.54401527 128.125 196.6875 C121.52953155 187.21973615 114.99478147 177.71234068 108.49072266 168.18164062 C104.78078395 162.75222492 101.04864405 157.33802687 97.32080078 151.92089844 C96.02354442 150.03424168 94.72825495 148.14625084 93.43359375 146.2578125 C88.0292461 138.37867154 82.58701823 130.52678309 77.125 122.6875 C70.52229117 113.20944309 63.98021987 103.6917603 57.46875 94.15087891 C50.56882394 84.04643266 43.60956385 73.98360591 36.625 63.9375 C35.60732544 62.47328613 35.60732544 62.47328613 34.5690918 60.97949219 C33.91980713 60.0465332 33.27052246 59.11357422 32.6015625 58.15234375 C32.02744629 57.32726318 31.45333008 56.50218262 30.86181641 55.65209961 C28.59368222 52.42121295 26.29446022 49.21224431 24 46 C23.67 127.51 23.34 209.02 23 293 C15.41 293 7.82 293 0 293 C0 196.31 0 99.62 0 0 Z " fill="#D4B976" transform="translate(1689,670)"/>
<path d="M0 0 C1.00023193 0.00523682 2.00046387 0.01047363 3.03100586 0.01586914 C4.1105957 0.0190918 5.19018555 0.02231445 6.30249023 0.02563477 C8.00695312 0.03820312 8.00695312 0.03820312 9.74584961 0.05102539 C11.45611328 0.05779297 11.45611328 0.05779297 13.20092773 0.06469727 C16.02845312 0.07652792 18.85587601 0.09301129 21.68334961 0.11352539 C31.70827105 25.93725985 41.71441174 51.76812277 51.68334961 77.61352539 C58.50016662 95.28662808 65.32982191 112.95462583 72.18334961 130.61352539 C79.03687735 148.27242506 85.86648289 165.94044182 92.68334961 183.61352539 C99.70915888 201.82802886 106.7478488 220.03743998 113.80834961 238.23852539 C114.59261266 240.26066004 115.37687377 242.28279544 116.16113281 244.30493164 C119.30928991 252.421225 122.45860825 260.53706143 125.61322021 268.65084839 C126.76987566 271.62648432 127.92532783 274.60258645 129.08050537 277.57879639 C129.84743989 279.55325742 130.61619182 281.52700418 131.38500977 283.50073242 C131.8276416 284.6413916 132.27027344 285.78205078 132.72631836 286.95727539 C133.10812256 287.93889648 133.48992676 288.92051758 133.88330078 289.93188477 C134.68334961 292.11352539 134.68334961 292.11352539 134.68334961 293.11352539 C126.43334961 293.11352539 118.18334961 293.11352539 109.68334961 293.11352539 C108.41620117 289.84317383 107.14905273 286.57282227 105.84350586 283.20336914 C104.58244628 279.94950957 103.3212581 276.69569987 102.06005859 273.44189453 C101.19989896 271.22254526 100.33986786 269.00314617 99.47998047 266.78369141 C98.22651487 263.54844463 96.97252509 260.31340136 95.71850586 257.07836914 C95.30444489 256.00920258 94.89038391 254.94003601 94.46377563 253.83847046 C92.34086934 248.36257565 90.20502874 242.89223877 88.04614258 237.43041992 C87.62715195 236.36827774 87.20816132 235.30613556 86.776474 234.21180725 C85.97776932 232.1893602 85.17626125 230.16801741 84.37159729 228.14793396 C84.01742233 227.25042923 83.66324738 226.3529245 83.29833984 225.42822266 C82.98533432 224.64020767 82.6723288 223.85219269 82.34983826 223.04029846 C81.68334961 221.11352539 81.68334961 221.11352539 81.68334961 219.11352539 C33.50334961 219.11352539 -14.67665039 219.11352539 -64.31665039 219.11352539 C-64.81165039 222.08352539 -64.81165039 222.08352539 -65.31665039 225.11352539 C-65.74527965 226.50319575 -66.21787258 227.88032928 -66.74023438 229.23754883 C-67.02853622 229.99488312 -67.31683807 230.75221741 -67.61387634 231.53250122 C-67.92700272 232.33783295 -68.24012909 233.14316467 -68.56274414 233.97290039 C-68.88984879 234.82745819 -69.21695343 235.68201599 -69.55397034 236.56246948 C-70.61537523 239.3315656 -71.6846645 242.09754152 -72.75415039 244.86352539 C-73.48316934 246.76095578 -74.2116832 248.65858031 -74.93969727 250.55639648 C-76.73154993 255.22396951 -78.52955835 259.88914134 -80.32952881 264.55358887 C-81.7575606 268.25695309 -83.18008425 271.96242282 -84.60180664 275.66821289 C-86.83391725 281.4857316 -89.07513324 287.29959028 -91.31665039 293.11352539 C-99.56665039 293.11352539 -107.81665039 293.11352539 -116.31665039 293.11352539 C-115.49768649 288.19974197 -114.34396286 284.19594691 -112.50024414 279.65649414 C-112.21260193 278.93399979 -111.92495972 278.21150543 -111.62860107 277.46711731 C-111.00412703 275.90038284 -110.3769623 274.33471873 -109.74740601 272.77001953 C-108.38093361 269.3732984 -107.02782425 265.97130188 -105.67378235 262.5696106 C-104.96129911 260.78002003 -104.24814367 258.99069695 -103.53434753 257.20162964 C-99.80824842 247.85810969 -96.15311862 238.48737343 -92.50415039 229.11352539 C-91.16468743 225.67587693 -89.82466785 222.23844555 -88.48461914 218.80102539 C-88.14692001 217.93459915 -87.80922089 217.06817291 -87.46128845 216.17549133 C-83.42326953 205.81751476 -79.36950834 195.46570235 -75.31665039 185.11352539 C-67.62588287 165.46687305 -59.95139595 145.81390772 -52.28442383 126.15795898 C-50.29825585 121.06613532 -48.31144713 115.97456182 -46.32446289 110.88305664 C-45.9939241 110.03606201 -45.66338531 109.18906738 -45.3228302 108.31640625 C-43.65479517 104.04218874 -41.98664541 99.76801603 -40.31835938 95.49389648 C-36.97042611 86.91618243 -33.6242824 78.33777713 -30.28149414 69.75805664 C-23.83772919 53.2214637 -17.3836292 36.68885697 -10.88577271 20.1734314 C-10.21844411 18.47637138 -9.55199103 16.77896681 -8.88644409 15.08120728 C-7.97118294 12.74722315 -7.05260055 10.41457488 -6.13305664 8.08227539 C-5.72490219 7.03864082 -5.72490219 7.03864082 -5.3085022 5.97392273 C-3.00347448 0.14718259 -3.00347448 0.14718259 0 0 Z M8.68334961 30.11352539 C4.4844277 38.80974533 1.10037016 47.75391325 -2.24395752 56.80105591 C-3.89939908 61.27720911 -5.56938469 65.74793499 -7.23852539 70.21899414 C-7.58066071 71.13611679 -7.92279602 72.05323944 -8.27529907 72.99815369 C-11.60582571 81.91336941 -15.01371542 90.79789517 -18.44165039 99.67602539 C-19.67511131 102.8724904 -20.90817338 106.06910897 -22.14086914 109.26586914 C-22.62305153 110.51626984 -22.62305153 110.51626984 -23.11497498 111.79193115 C-27.85608103 124.09671199 -32.55246402 136.41864333 -37.25415039 148.73852539 C-37.69704407 149.89885284 -38.13993774 151.0591803 -38.59625244 152.25466919 C-40.70835003 157.78828237 -42.8196345 163.32220323 -44.92944336 168.85668945 C-46.52343295 173.03726467 -48.12176053 177.21614433 -49.72338867 181.39379883 C-50.28673668 182.86567154 -50.28673668 182.86567154 -50.86146545 184.36727905 C-51.56784729 186.21269874 -52.27549744 188.0576336 -52.98460388 189.90200806 C-53.29341995 190.70963593 -53.60223602 191.51726379 -53.92041016 192.34936523 C-54.19152115 193.0560434 -54.46263214 193.76272156 -54.74195862 194.49081421 C-55.37228999 195.98371867 -55.37228999 195.98371867 -55.31665039 197.11352539 C-13.07665039 197.11352539 29.16334961 197.11352539 72.68334961 197.11352539 C70.88284521 191.11184407 69.12193506 185.33626359 66.84741211 179.53930664 C66.5762709 178.83855515 66.3051297 178.13780365 66.02577209 177.41581726 C65.43507939 175.89019483 64.84272463 174.36521507 64.24887085 172.84082031 C62.5718642 168.53509391 60.90814131 164.22422445 59.24194336 159.91430664 C58.8807692 158.98111603 58.51959503 158.04792542 58.1474762 157.0864563 C53.51542487 145.11072506 48.94598301 133.11108545 44.37084961 121.11352539 C42.58211678 116.42459748 40.79299515 111.73581804 39.00366211 107.04711914 C38.56148849 105.88842316 38.11931488 104.72972717 37.66374207 103.53591919 C34.63153744 95.59221756 31.59321071 87.6508789 28.55053711 79.71118164 C28.1415065 78.64378754 27.73247589 77.57639343 27.31105042 76.47665405 C25.38942655 71.46268458 23.46696039 66.44903975 21.54345703 61.43579102 C17.54577869 51.0113685 13.58435999 40.57452665 9.68334961 30.11352539 C9.35334961 30.11352539 9.02334961 30.11352539 8.68334961 30.11352539 Z " fill="#D7BE7D" transform="translate(850.316650390625,669.886474609375)"/>
<path d="M0 0 C55.11 0 110.22 0 167 0 C167 7.26 167 14.52 167 22 C119.48 22 71.96 22 23 22 C23 58.96 23 95.92 23 134 C67.22 134 111.44 134 157 134 C157 141.26 157 148.52 157 156 C112.78 156 68.56 156 23 156 C23 193.95 23 231.9 23 271 C71.18 271 119.36 271 169 271 C169 278.26 169 285.52 169 293 C113.23 293 57.46 293 0 293 C0 196.31 0 99.62 0 0 Z " fill="#DFC98D" transform="translate(216,670)"/>
<path d="M0 0 C7.59 0 15.18 0 23 0 C23 89.43 23 178.86 23 271 C68.54 271 114.08 271 161 271 C161 278.26 161 285.52 161 293 C107.87 293 54.74 293 0 293 C0 196.31 0 99.62 0 0 Z " fill="#D4BA76" transform="translate(550,670)"/>
<path d="M0 0 C7.59 0 15.18 0 23 0 C23 89.43 23 178.86 23 271 C68.54 271 114.08 271 161 271 C161 278.26 161 285.52 161 293 C107.87 293 54.74 293 0 293 C0 196.31 0 99.62 0 0 Z " fill="#D8C07F" transform="translate(10,670)"/>
<path d="M0 0 C0 26.4 0 52.8 0 80 C-5.21680715 81.95630268 -10.04996023 83.65664002 -15.37817383 85.0847168 C-16.06702667 85.27047272 -16.75587952 85.45622864 -17.46560669 85.64761353 C-19.71169974 86.25213637 -21.95928353 86.85088038 -24.20703125 87.44921875 C-25.78031278 87.870674 -27.35352849 88.29237502 -28.92668152 88.71430969 C-32.20816613 89.59346135 -35.49039526 90.4697603 -38.77319336 91.34399414 C-42.98236021 92.46515793 -47.18961553 93.59331458 -51.39635181 94.72355938 C-54.63748433 95.59358344 -57.87956706 96.4600211 -61.12195396 97.32535744 C-62.67440525 97.74012499 -64.22656349 98.15599106 -65.7784214 98.57297325 C-67.94092986 99.15344293 -70.10466359 99.72909657 -72.26879883 100.3034668 C-74.11457268 100.79619331 -74.11457268 100.79619331 -75.99763489 101.2988739 C-79 102 -79 102 -82 102 C-82 74.28 -82 46.56 -82 18 C-69.398125 15.03 -56.79625 12.06 -43.8125 9 C-39.83807861 8.06027344 -35.86365723 7.12054687 -31.76879883 6.15234375 C-26.90368652 5.00976563 -26.90368652 5.00976563 -24.62382507 4.47583008 C-23.03606345 4.10287339 -21.44881583 3.72772426 -19.86198425 3.35083008 C-17.4545058 2.7794745 -15.04547417 2.21515624 -12.63598633 1.65234375 C-11.93261296 1.48371323 -11.2292396 1.3150827 -10.50455189 1.14134216 C-6.817117 0.28843043 -3.84623348 0 0 0 Z " fill="#EEDDAA" transform="translate(1141,0)"/>
<path d="M0 0 C0 38.28 0 76.56 0 116 C-26.65384615 123.61538462 -26.65384615 123.61538462 -33 125.375 C-33.91265625 125.63410156 -34.8253125 125.89320313 -35.765625 126.16015625 C-36.64734375 126.40378906 -37.5290625 126.64742188 -38.4375 126.8984375 C-39.58025391 127.21820557 -39.58025391 127.21820557 -40.74609375 127.54443359 C-43 128 -43 128 -48 128 C-48 91.04 -48 54.08 -48 16 C-41.74833184 13.49933274 -35.59202128 11.09701009 -29.21875 8.984375 C-28.43858521 8.72368225 -27.65842041 8.4629895 -26.85461426 8.19439697 C-25.22843634 7.65188887 -23.6017641 7.11086032 -21.97460938 6.57128906 C-19.47633533 5.74214602 -16.9802943 4.90651377 -14.484375 4.0703125 C-12.89596166 3.54128121 -11.30742451 3.01262149 -9.71875 2.484375 C-8.97298706 2.23443787 -8.22722412 1.98450073 -7.4588623 1.72698975 C-2.23000188 0 -2.23000188 0 0 0 Z " fill="#E9D7A1" transform="translate(921,22)"/>
<path d="M0 0 C0 19.47 0 38.94 0 59 C-7.1775 60.98 -14.355 62.96 -21.75 65 C-24.01069336 65.62648438 -26.27138672 66.25296875 -28.60058594 66.8984375 C-30.39507145 67.39102898 -32.18966083 67.88324227 -33.984375 68.375 C-34.9139502 68.63410156 -35.84352539 68.89320313 -36.80126953 69.16015625 C-37.69410645 69.40378906 -38.58694336 69.64742188 -39.50683594 69.8984375 C-40.66599518 70.21820557 -40.66599518 70.21820557 -41.84857178 70.54443359 C-44 71 -44 71 -48 71 C-48 52.19 -48 33.38 -48 14 C-36.676875 10.535 -36.676875 10.535 -25.125 7 C-22.74168457 6.26910156 -20.35836914 5.53820312 -17.90283203 4.78515625 C-16.0212263 4.21071652 -14.13955746 3.63648346 -12.2578125 3.0625 C-11.27482178 2.76021484 -10.29183105 2.45792969 -9.27905273 2.14648438 C-8.34536865 1.86224609 -7.41168457 1.57800781 -6.44970703 1.28515625 C-5.6369632 1.03644775 -4.82421936 0.78773926 -3.98684692 0.53149414 C-2 0 -2 0 0 0 Z " fill="#F1E2B1" transform="translate(837,99)"/>
<path d="M0 0 C0 7.92 0 15.84 0 24 C-17.70356024 28.91765562 -35.42761985 33.75290854 -53.16833496 38.53460693 C-55.56240937 39.17989978 -57.95637044 39.82561326 -60.35021973 40.47174072 C-63.74873912 41.38877452 -67.14772623 42.30405226 -70.546875 43.21875 C-71.58726929 43.4996347 -72.62766357 43.78051941 -73.69958496 44.06991577 C-75.12204529 44.45199692 -75.12204529 44.45199692 -76.57324219 44.84179688 C-77.82436798 45.17866516 -77.82436798 45.17866516 -79.10076904 45.52233887 C-81 46 -81 46 -82 46 C-82 38.08 -82 30.16 -82 22 C-72.43642648 18.99763551 -62.82589044 16.26544064 -53.14453125 13.671875 C-51.66571016 13.27416095 -50.18692565 12.87631083 -48.70817566 12.47833252 C-45.64041611 11.653284 -42.57220878 10.82992851 -39.50366211 10.0078125 C-35.56747723 8.95308098 -31.63250566 7.89389792 -27.69785023 6.83347702 C-24.65896941 6.01500947 -21.61945808 5.19890442 -18.57974815 4.38352203 C-17.12704175 3.99352601 -15.67453699 3.60277803 -14.22223854 3.21126556 C-12.20584529 2.66804918 -10.18862331 2.12802844 -8.17114258 1.58886719 C-7.02454666 1.28116394 -5.87795074 0.97346069 -4.6966095 0.65643311 C-2 0 -2 0 0 0 Z " fill="#D9C182" transform="translate(1032,237)"/>
<path d="M0 0 C0 7.92 0 15.84 0 24 C-10.24745859 26.74200864 -20.495743 29.48087383 -30.74552631 32.21417999 C-35.50462795 33.48342323 -40.26335051 34.75405263 -45.02124023 36.02783203 C-49.61095947 37.25653465 -54.20163023 38.48161934 -58.79298973 39.70417786 C-60.54645513 40.1717649 -62.29957088 40.64066516 -64.05233192 41.11088562 C-66.50313835 41.76813573 -68.95513481 42.42074928 -71.4074707 43.07226562 C-72.13539322 43.26863113 -72.86331573 43.46499664 -73.61329651 43.66731262 C-76.50148242 44.43032442 -78.99767359 45 -82 45 C-82 37.08 -82 29.16 -82 21 C-71.75254141 18.25799136 -61.504257 15.51912617 -51.25447369 12.78582001 C-46.49537205 11.51657677 -41.73664949 10.24594737 -36.97875977 8.97216797 C-32.38904053 7.74346535 -27.79836977 6.51838066 -23.20701027 5.29582214 C-21.45354487 4.8282351 -19.70042912 4.35933484 -17.94766808 3.88911438 C-15.49686165 3.23186427 -13.04486519 2.57925072 -10.5925293 1.92773438 C-9.86460678 1.73136887 -9.13668427 1.53500336 -8.38670349 1.33268738 C-5.49851758 0.56967558 -3.00232641 0 0 0 Z " fill="#BF9D4C" transform="translate(1141,208)"/>
<path d="M0 0 C34 0 34 0 42 4 C46.2436402 9.09236824 46.62413369 13.5756224 46.38671875 20.125 C45.64633932 25.62923496 43.4285658 28.73377122 39.25 32.4375 C38.5075 32.953125 37.765 33.46875 37 34 C38.0725 34.495 39.145 34.99 40.25 35.5 C44.68735744 38.10120953 46.68795118 41.04076784 48 46 C48.71644245 52.66779962 49.18746731 59.41671025 45 65 C32.59388424 76.86671942 16.63973574 73 0 73 C0 48.91 0 24.82 0 0 Z M9 8 C9 15.59 9 23.18 9 31 C22.00211923 31.65314179 22.00211923 31.65314179 33.5 26.5 C36.67807305 23.32192695 36.93003094 22.71135206 37.375 18.1875 C37.34874901 14.5779882 37.05911955 14.07312154 34.625 11.0625 C31.12721834 8.31424298 29.57029036 7.87608259 25.2109375 7.90234375 C24.36321777 7.90484131 23.51549805 7.90733887 22.64208984 7.90991211 C21.5639502 7.91901611 20.48581055 7.92812012 19.375 7.9375 C14.239375 7.9684375 14.239375 7.9684375 9 8 Z M9 39 C9 47.58 9 56.16 9 65 C22.85732397 65.87638502 22.85732397 65.87638502 35 60.5 C38.53001634 56.08747958 38.51551965 52.50842293 38 47 C36.67213888 43.60657714 35.56539433 42.37126368 32.53125 40.37890625 C27.7901881 38.52758451 23.655572 38.67364933 18.625 38.8125 C15.44875 38.874375 12.2725 38.93625 9 39 Z " fill="#DBC588" transform="translate(422,1115)"/>
<path d="M0 0 C4.10034345 1.43623645 6.74294602 4.35447742 9 8 C10.10418923 14.39402603 9.94381219 20.42177605 6.4375 26 C3.45173719 29.86937758 0.13678898 32.43519083 -4 35 C-0.41762785 39.95124605 3.35704873 44.72876198 7.25 49.4375 C7.90427979 50.23559082 7.90427979 50.23559082 8.57177734 51.04980469 C10.93212647 53.94634077 10.93212647 53.94634077 14 56 C15.485 48.08 15.485 48.08 17 40 C19.64 40 22.28 40 25 40 C25.70692647 49.22931781 23.82240236 56.69280162 18 64 C20.64 64.99 23.28 65.98 26 67 C26 69.31 26 71.62 26 74 C18.49530957 74.37523452 18.49530957 74.37523452 15.9375 72.4375 C13.94903042 70.64201541 13.94903042 70.64201541 10.625 71.1875 C7.11573927 71.87921139 7.11573927 71.87921139 4.35546875 73.02734375 C-3.84937032 75.4056964 -15.39658147 75.61496692 -23.375 72.375 C-28.42154065 69.50559517 -31.65659096 65.78623279 -33.4375 60.1875 C-34.52303002 54.60021313 -33.74823275 49.6343893 -30.58203125 44.86328125 C-26.648407 40.13753129 -22.054331 36.46582697 -17 33 C-17.49371094 32.2265625 -17.98742187 31.453125 -18.49609375 30.65625 C-25.22754452 19.71256343 -25.22754452 19.71256343 -25 13 C-23.3029711 7.11031147 -20.80357977 4.47493005 -16 1 C-11.35399707 -1.32300146 -5.05622479 -0.419914 0 0 Z M-16 10 C-17.4225155 13.31920284 -16.98139482 15.62463778 -15.875 18.9375 C-14.22756686 22.97562682 -11.9484414 25.81249578 -9 29 C-2.03145843 23.75177434 -2.03145843 23.75177434 1.27734375 16.015625 C1.46707754 11.91083359 1.46707754 11.91083359 -0.21484375 8.28125 C-2.56220944 6.59648863 -4.06774867 6.59910751 -6.9375 6.625 C-7.79214844 6.61726563 -8.64679687 6.60953125 -9.52734375 6.6015625 C-12.46491895 7.07491585 -13.83310432 7.99343516 -16 10 Z M-12 39 C-13.4425402 40.07661281 -14.87883161 41.16160103 -16.3125 42.25 C-17.11300781 42.85328125 -17.91351562 43.4565625 -18.73828125 44.078125 C-21.84323811 46.71653394 -23.66159661 48.91227482 -24.875 52.8125 C-25.04157959 57.06027946 -24.16596538 59.34493341 -22 63 C-16.63665566 67.64823176 -11.34235931 67.5840092 -4.40234375 67.40625 C0.21115107 66.85538495 3.11114484 65.4888673 7 63 C3.39694314 57.25335234 -0.5771409 51.84022139 -4.75 46.5 C-5.23380127 45.87657715 -5.71760254 45.2531543 -6.21606445 44.61083984 C-8.6894109 41.32537601 -8.6894109 41.32537601 -12 39 Z " fill="#D5BC7B" transform="translate(709,1114)"/>
<path d="M0 0 C34 0 34 0 42 4 C46.72810584 10.50114553 46.9909852 17.13098879 46 25 C44.5862119 29.42757054 42.5312157 32.94146672 39 36 C38.34 36 37.68 36 37 36 C37 36.66 37 37.32 37 38 C37.598125 38.2475 38.19625 38.495 38.8125 38.75 C41.39158837 40.22376478 42.43786729 41.47967162 44 44 C44.41650391 46.47021484 44.41650391 46.47021484 44.4765625 49.2109375 C44.5075 50.20867187 44.5384375 51.20640625 44.5703125 52.234375 C44.58835937 53.27078125 44.60640625 54.3071875 44.625 55.375 C44.77451907 64.23791508 44.77451907 64.23791508 46 73 C42.7 73 39.4 73 36 73 C35.24957143 69.63749554 34.87076854 66.5009337 34.82421875 63.05859375 C34.78844727 61.68864258 34.78844727 61.68864258 34.75195312 60.29101562 C34.70890134 58.38499564 34.67769603 56.4786721 34.65820312 54.57226562 C34.54147061 50.73095149 34.43343094 47.82364228 32.62890625 44.39453125 C28.35697651 42.12844074 24.01140114 42.32093605 19.25 42.25 C14.17625 42.12625 14.17625 42.12625 9 42 C9 52.23 9 62.46 9 73 C6.03 73 3.06 73 0 73 C0 48.91 0 24.82 0 0 Z M9 8 C9 16.58 9 25.16 9 34 C11.495625 34.061875 13.99125 34.12375 16.5625 34.1875 C17.33408447 34.21481201 18.10566895 34.24212402 18.90063477 34.27026367 C25.00853105 34.3426524 29.59879653 33.02206608 34.375 29 C37.47086919 25.18969946 37.38689495 21.16200989 37.359375 16.44921875 C37.15906337 13.68694975 37.15906337 13.68694975 34.625 10.9375 C31.11042149 8.34340634 29.50622386 7.87646853 25.2109375 7.90234375 C24.36321777 7.90484131 23.51549805 7.90733887 22.64208984 7.90991211 C21.5639502 7.91901611 20.48581055 7.92812012 19.375 7.9375 C14.239375 7.9684375 14.239375 7.9684375 9 8 Z " fill="#D5BC7A" transform="translate(1592,1115)"/>
<path d="M0 0 C0.76441406 -0.02449219 1.52882813 -0.04898437 2.31640625 -0.07421875 C8.61852627 -0.10631783 13.8976929 1.47104147 18.65527344 5.75195312 C24.11236041 11.8312352 24.36007123 17.61764937 24.125 25.375 C21.155 25.375 18.185 25.375 15.125 25.375 C15.02703125 24.62734375 14.9290625 23.8796875 14.828125 23.109375 C13.99956691 17.04813559 13.99956691 17.04813559 11.1875 11.75 C7.43335566 9.24723711 4.156906 9.18550672 -0.25 9.125 C-1.37148437 9.09921875 -2.49296875 9.0734375 -3.6484375 9.046875 C-7.20139283 9.40819249 -9.03750117 10.24945542 -11.875 12.375 C-13.49950662 15.62401323 -13.41318405 18.86367724 -12.875 22.375 C-9.15198841 29.15619968 -2.84073864 30.78155077 4.125 33.375 C6.27571235 34.21680626 8.42176516 35.07063453 10.5625 35.9375 C11.50996094 36.31003906 12.45742187 36.68257812 13.43359375 37.06640625 C18.35297004 39.45826555 21.88943492 42.32161655 24.125 47.375 C24.44040185 50.12268999 24.59046861 52.57411849 24.5625 55.3125 C24.5924707 56.34793945 24.5924707 56.34793945 24.62304688 57.40429688 C24.61816915 62.55029693 23.39046463 65.45071356 20.125 69.375 C14.4389289 74.37502162 7.74529523 74.85485671 0.5 74.9375 C-0.29929932 74.95216309 -1.09859863 74.96682617 -1.92211914 74.98193359 C-8.22460223 74.87402104 -13.68609847 73.31852309 -18.40429688 68.96337891 C-23.938525 62.68817466 -24.15482975 57.38124001 -23.875 49.375 C-20.905 49.375 -17.935 49.375 -14.875 49.375 C-14.72804688 50.38820313 -14.72804688 50.38820313 -14.578125 51.421875 C-13.93690596 55.24707823 -13.38369843 58.52716929 -11.375 61.875 C-5.16073382 65.60355971 1.3029879 65.81907184 8.21484375 64.17578125 C10.45572689 63.23635171 11.61228856 62.27044566 13.125 60.375 C14.33132996 55.45688553 14.36490644 51.96147508 12.125 47.375 C9.49758479 45.82172979 6.7436293 44.83362912 3.859375 43.859375 C2.64701172 43.43591797 2.64701172 43.43591797 1.41015625 43.00390625 C-0.26118849 42.4244724 -1.93564808 41.85393557 -3.61328125 41.29296875 C-11.64498325 38.45450671 -18.72035603 34.2400997 -23.03125 26.65234375 C-25.08275254 21.11518644 -24.58754937 15.51264812 -22.75 10 C-16.78216981 1.64503774 -9.6563342 0.01612076 0 0 Z " fill="#D0B572" transform="translate(1890.875,1113.625)"/>
<path d="M0 0 C0 6.27 0 12.54 0 19 C-5.21680715 20.95630268 -10.04996023 22.65664002 -15.37817383 24.0847168 C-16.41145309 24.36335068 -16.41145309 24.36335068 -17.46560669 24.64761353 C-19.71169974 25.25213637 -21.95928353 25.85088038 -24.20703125 26.44921875 C-25.78031278 26.870674 -27.35352849 27.29237502 -28.92668152 27.71430969 C-32.20816613 28.59346135 -35.49039526 29.4697603 -38.77319336 30.34399414 C-42.98236021 31.46515793 -47.18961553 32.59331458 -51.39635181 33.72355938 C-54.63748433 34.59358344 -57.87956706 35.4600211 -61.12195396 36.32535744 C-62.67440525 36.74012499 -64.22656349 37.15599106 -65.7784214 37.57297325 C-67.94092986 38.15344293 -70.10466359 38.72909657 -72.26879883 39.3034668 C-73.49931473 39.63195114 -74.72983063 39.96043549 -75.99763489 40.2988739 C-79 41 -79 41 -82 41 C-82 34.4 -82 27.8 -82 21 C-71.75254141 18.25799136 -61.504257 15.51912617 -51.25447369 12.78582001 C-46.49537205 11.51657677 -41.73664949 10.24594737 -36.97875977 8.97216797 C-32.38904053 7.74346535 -27.79836977 6.51838066 -23.20701027 5.29582214 C-21.45354487 4.8282351 -19.70042912 4.35933484 -17.94766808 3.88911438 C-15.49686165 3.23186427 -13.04486519 2.57925072 -10.5925293 1.92773438 C-9.86460678 1.73136887 -9.13668427 1.53500336 -8.38670349 1.33268738 C-5.49851758 0.56967558 -3.00232641 0 0 0 Z " fill="#D0B56F" transform="translate(1032,271)"/>
<path d="M0 0 C0 6.6 0 13.2 0 20 C-10.24745859 22.74200864 -20.495743 25.48087383 -30.74552631 28.21417999 C-35.50462795 29.48342323 -40.26335051 30.75405263 -45.02124023 32.02783203 C-49.61095947 33.25653465 -54.20163023 34.48161934 -58.79298973 35.70417786 C-60.54645513 36.1717649 -62.29957088 36.64066516 -64.05233192 37.11088562 C-66.50313835 37.76813573 -68.95513481 38.42074928 -71.4074707 39.07226562 C-72.13539322 39.26863113 -72.86331573 39.46499664 -73.61329651 39.66731262 C-76.50148242 40.43032442 -78.99767359 41 -82 41 C-82 34.73 -82 28.46 -82 22 C-76.78319285 20.04369732 -71.95003977 18.34335998 -66.62182617 16.9152832 C-65.58854691 16.63664932 -65.58854691 16.63664932 -64.53439331 16.35238647 C-62.28830026 15.74786363 -60.04071647 15.14911962 -57.79296875 14.55078125 C-56.21968722 14.129326 -54.64647151 13.70762498 -53.07331848 13.28569031 C-49.79183387 12.40653865 -46.50960474 11.5302397 -43.22680664 10.65600586 C-39.01763979 9.53484207 -34.81038447 8.40668542 -30.60364819 7.27644062 C-27.36251567 6.40641656 -24.12043294 5.5399789 -20.87804604 4.67464256 C-19.32559475 4.25987501 -17.77343651 3.84400894 -16.2215786 3.42702675 C-14.05907014 2.84655707 -11.89533641 2.27090343 -9.73120117 1.6965332 C-8.50068527 1.36804886 -7.27016937 1.03956451 -6.00236511 0.7011261 C-3 0 -3 0 0 0 Z " fill="#EBDAA6" transform="translate(1032,179)"/>
<path d="M0 0 C0 6.6 0 13.2 0 20 C-20.19622632 25.66647691 -40.41964445 31.21980522 -60.6875 36.625 C-62.19985733 37.02893982 -62.19985733 37.02893982 -63.74276733 37.44104004 C-66.6028307 38.20447081 -69.46340393 38.9659531 -72.32421875 39.7265625 C-73.62172058 40.0727211 -73.62172058 40.0727211 -74.94543457 40.4258728 C-80.88396926 42 -80.88396926 42 -82 42 C-82 35.4 -82 28.8 -82 22 C-65.52191138 17.10732219 -48.98146213 12.49456409 -32.37353516 8.06323242 C-29.83459928 7.3854222 -27.29610638 6.70617822 -24.75830078 6.02416992 C-21.04010077 5.02514841 -17.32100065 4.02955694 -13.6015625 3.03515625 C-11.89258286 2.57593529 -11.89258286 2.57593529 -10.14907837 2.10743713 C-9.10553192 1.8297197 -8.06198547 1.55200226 -6.98681641 1.26586914 C-6.06881256 1.02050919 -5.15080872 0.77514923 -4.20498657 0.52235413 C-2 0 -2 0 0 0 Z " fill="#F3E5B7" transform="translate(1032,149)"/>
<path d="M0 0 C0 6.6 0 13.2 0 20 C-16.67477155 24.83172082 -33.42013776 29.37002017 -50.1973877 33.82897949 C-52.97762639 34.56855771 -55.75722978 35.31050854 -58.53683853 36.05245018 C-61.22160778 36.7688319 -63.90670419 37.48398055 -66.59191132 38.19871902 C-68.48723151 38.70337729 -70.38231998 39.20890556 -72.27740479 39.71444702 C-73.41079285 40.0154129 -74.54418091 40.31637878 -75.71191406 40.62646484 C-76.7122467 40.8926059 -77.71257935 41.15874695 -78.7432251 41.43295288 C-81 42 -81 42 -82 42 C-82 35.4 -82 28.8 -82 22 C-65.32522845 17.16827918 -48.57986224 12.62997983 -31.8026123 8.17102051 C-29.02237361 7.43144229 -26.24277022 6.68949146 -23.46316147 5.94754982 C-20.77839222 5.2311681 -18.09329581 4.51601945 -15.40808868 3.80128098 C-13.51276849 3.29662271 -11.61768002 2.79109444 -9.72259521 2.28555298 C-8.58920715 1.9845871 -7.45581909 1.68362122 -6.28808594 1.37353516 C-5.2877533 1.1073941 -4.28742065 0.84125305 -3.2567749 0.56704712 C-1 0 -1 0 0 0 Z " fill="#DDC78A" transform="translate(1141,90)"/>
<path d="M0 0 C0 6.27 0 12.54 0 19 C-16.47808862 23.89267781 -33.01853787 28.50543591 -49.62646484 32.93676758 C-52.16540072 33.6145778 -54.70389362 34.29382178 -57.24169922 34.97583008 C-60.95989923 35.97485159 -64.67899935 36.97044306 -68.3984375 37.96484375 C-70.10741714 38.42406471 -70.10741714 38.42406471 -71.85092163 38.89256287 C-72.89446808 39.1702803 -73.93801453 39.44799774 -75.01318359 39.73413086 C-75.93118744 39.97949081 -76.84919128 40.22485077 -77.79501343 40.47764587 C-80 41 -80 41 -82 41 C-82 34.4 -82 27.8 -82 21 C-63.4480725 15.80726255 -44.88530603 10.65269417 -26.29049683 5.61538696 C-24.47603554 5.12293643 -22.66216696 4.62829666 -20.84890747 4.13143921 C-18.29801819 3.43308027 -15.74505752 2.74286769 -13.19140625 2.0546875 C-12.43456543 1.84579391 -11.67772461 1.63690033 -10.89794922 1.42167664 C-7.04063802 0.39218485 -4.05624487 0 0 0 Z " fill="#C8A95E" transform="translate(1032,301)"/>
<path d="M0 0 C0 6.6 0 13.2 0 20 C-10.24745859 22.74200864 -20.495743 25.48087383 -30.74552631 28.21417999 C-35.50462795 29.48342323 -40.26335051 30.75405263 -45.02124023 32.02783203 C-49.61095947 33.25653465 -54.20163023 34.48161934 -58.79298973 35.70417786 C-60.54645513 36.1717649 -62.29957088 36.64066516 -64.05233192 37.11088562 C-66.50313835 37.76813573 -68.95513481 38.42074928 -71.4074707 39.07226562 C-72.13539322 39.26863113 -72.86331573 39.46499664 -73.61329651 39.66731262 C-76.50148242 40.43032442 -78.99767359 41 -82 41 C-82 34.73 -82 28.46 -82 22 C-76.78319285 20.04369732 -71.95003977 18.34335998 -66.62182617 16.9152832 C-65.58854691 16.63664932 -65.58854691 16.63664932 -64.53439331 16.35238647 C-62.28830026 15.74786363 -60.04071647 15.14911962 -57.79296875 14.55078125 C-56.21968722 14.129326 -54.64647151 13.70762498 -53.07331848 13.28569031 C-49.79183387 12.40653865 -46.50960474 11.5302397 -43.22680664 10.65600586 C-39.01763979 9.53484207 -34.81038447 8.40668542 -30.60364819 7.27644062 C-27.36251567 6.40641656 -24.12043294 5.5399789 -20.87804604 4.67464256 C-19.32559475 4.25987501 -17.77343651 3.84400894 -16.2215786 3.42702675 C-14.05907014 2.84655707 -11.89533641 2.27090343 -9.73120117 1.6965332 C-8.50068527 1.36804886 -7.27016937 1.03956451 -6.00236511 0.7011261 C-3 0 -3 0 0 0 Z " fill="#D6BD7B" transform="translate(1141,120)"/>
<path d="M0 0 C0 6.27 0 12.54 0 19 C-16.47808862 23.89267781 -33.01853787 28.50543591 -49.62646484 32.93676758 C-52.16540072 33.6145778 -54.70389362 34.29382178 -57.24169922 34.97583008 C-60.95989923 35.97485159 -64.67899935 36.97044306 -68.3984375 37.96484375 C-70.10741714 38.42406471 -70.10741714 38.42406471 -71.85092163 38.89256287 C-72.89446808 39.1702803 -73.93801453 39.44799774 -75.01318359 39.73413086 C-75.93118744 39.97949081 -76.84919128 40.22485077 -77.79501343 40.47764587 C-80 41 -80 41 -82 41 C-82 34.4 -82 27.8 -82 21 C-74.58876839 18.97190691 -67.17704206 16.94563437 -59.76489258 14.92089844 C-57.25434606 14.23485 -54.74392498 13.54834233 -52.23364258 12.86132812 C-39.48013683 9.37127094 -26.72288453 5.89421976 -13.94140625 2.5078125 C-12.98958969 2.25200409 -12.03777313 1.99619568 -11.05711365 1.7326355 C-10.18176468 1.50262848 -9.30641571 1.27262146 -8.40454102 1.03564453 C-7.6460939 0.83439972 -6.88764679 0.63315491 -6.10621643 0.42581177 C-4 0 -4 0 0 0 Z " fill="#CEB26B" transform="translate(1141,150)"/>
<path d="M0 0 C0 6.6 0 13.2 0 20 C-10.09941698 22.74339468 -20.19996152 25.48253402 -30.30256271 28.21417999 C-34.9934515 29.48273386 -39.68381854 30.75315274 -44.37304688 32.02783203 C-48.89761421 33.25767774 -53.42348105 34.48262657 -57.95029449 35.70417786 C-59.67794321 36.17130531 -61.40511471 36.64020138 -63.13179779 37.11088562 C-65.54854335 37.76935419 -67.96690239 38.42153914 -70.38574219 39.07226562 C-71.10071869 39.26863113 -71.81569519 39.46499664 -72.55233765 39.66731262 C-75.86662567 40.5522071 -78.53490969 41 -82 41 C-82 34.73 -82 28.46 -82 22 C-76.50750461 20.1691682 -71.16273653 18.43072487 -65.60009766 16.9152832 C-64.58122971 16.63664932 -64.58122971 16.63664932 -63.54177856 16.35238647 C-61.3332486 15.74921508 -59.12372113 15.14980354 -56.9140625 14.55078125 C-55.36466369 14.12920016 -53.81529696 13.70750117 -52.26596069 13.28569031 C-49.03731871 12.4073736 -45.8081485 11.53103219 -42.57861328 10.65600586 C-38.43809452 9.53389521 -34.29919123 8.40594638 -30.16068459 7.27644062 C-26.9701547 6.40650343 -23.77868335 5.54006243 -20.58692551 4.67464256 C-19.0595635 4.25996942 -17.53252457 3.84410438 -16.00581741 3.42702675 C-13.87935314 2.84657118 -11.75164122 2.27093564 -9.62353516 1.6965332 C-8.41380035 1.36804886 -7.20406555 1.03956451 -5.95767212 0.7011261 C-3 0 -3 0 0 0 Z " fill="#BF9D4C" transform="translate(1032,330)"/>
<path d="M0 0 C0 30.03 0 60.06 0 91 C-8 94 -8 94 -17 95 C-17 65.3 -17 35.6 -17 5 C-3 0 -3 0 0 0 Z " fill="#E6D39B" transform="translate(753,89)"/>
<path d="M0 0 C0 5.94 0 11.88 0 18 C-8.32797665 20.92522445 -16.81739192 23.17715329 -25.33984375 25.44921875 C-26.91407211 25.87074692 -28.4882545 26.29244677 -30.06239319 26.71430969 C-33.34231132 27.59264882 -36.62274277 28.46903625 -39.90356445 29.34399414 C-44.1134546 30.46687713 -48.3220547 31.59451244 -52.53029537 32.72355938 C-55.77162817 33.59266945 -59.01359724 34.45938561 -62.25576973 35.32535744 C-63.80894785 35.74049755 -65.36193125 36.15636687 -66.91471672 36.57297325 C-69.07523686 37.15223023 -71.23658523 37.72828526 -73.39819336 38.3034668 C-74.62791367 38.63195114 -75.85763397 38.96043549 -77.12461853 39.2988739 C-80 40 -80 40 -82 40 C-82 33.73 -82 27.46 -82 21 C-73.21756872 18.5612544 -64.4303278 16.14028668 -55.64111328 13.72613525 C-52.75908922 12.93376513 -49.87758575 12.13951756 -46.99609375 11.34521484 C-41.58725192 9.85503589 -36.17639267 8.37235448 -30.7644043 6.89364624 C-28.5894739 6.29824867 -26.41515443 5.70061489 -24.24145508 5.10073853 C-21.15215688 4.24867172 -18.06075088 3.40469831 -14.96875 2.5625 C-14.03651611 2.30349411 -13.10428223 2.04448822 -12.14379883 1.77763367 C-11.27585693 1.54292862 -10.40791504 1.30822357 -9.51367188 1.06640625 C-8.75953003 0.85959229 -8.00538818 0.65277832 -7.22839355 0.43969727 C-5 0 -5 0 0 0 Z " fill="#E2CE94" transform="translate(1032,209)"/>
<path d="M0 0 C0 6.27 0 12.54 0 19 C-4.19009766 20.14275391 -4.19009766 20.14275391 -8.46484375 21.30859375 C-9.42551254 21.57065613 -10.38618134 21.83271851 -11.3759613 22.10272217 C-16.23475995 23.42812143 -21.09383791 24.75248441 -25.95336914 26.07519531 C-35.33900639 28.6308582 -44.72200129 31.19460737 -54.09375 33.80078125 C-56.33655523 34.4219306 -58.57951069 35.0425337 -60.82254028 35.66287231 C-62.22509807 36.05223222 -63.62702523 36.44387141 -65.02828979 36.83786011 C-66.96388863 37.38195511 -68.90181482 37.91775029 -70.83984375 38.453125 C-72.45427368 38.90413574 -72.45427368 38.90413574 -74.10131836 39.36425781 C-77 40 -77 40 -82 40 C-82 34.06 -82 28.12 -82 22 C-73.67202335 19.07477555 -65.18260808 16.82284671 -56.66015625 14.55078125 C-55.08592789 14.12925308 -53.5117455 13.70755323 -51.93760681 13.28569031 C-48.65768868 12.40735118 -45.37725723 11.53096375 -42.09643555 10.65600586 C-37.8865454 9.53312287 -33.6779453 8.40548756 -29.46970463 7.27644062 C-26.22837183 6.40733055 -22.98640276 5.54061439 -19.74423027 4.67464256 C-18.19105215 4.25950245 -16.63806875 3.84363313 -15.08528328 3.42702675 C-12.92476314 2.84776977 -10.76341477 2.27171474 -8.60180664 1.6965332 C-7.37208633 1.36804886 -6.14236603 1.03956451 -4.87538147 0.7011261 C-2 0 -2 0 0 0 Z " fill="#C7A85C" transform="translate(1141,179)"/>
<path d="M0 0 C4.95 0 9.9 0 15 0 C17.35210486 8.92604333 19.70006081 17.85314966 22.04072571 26.78219986 C23.12774782 30.92824119 24.21658301 35.07378859 25.30957031 39.21826172 C26.36423827 43.21770334 27.41413217 47.21837022 28.46072388 51.21993256 C28.86091235 52.74659609 29.26282076 54.27280984 29.66647339 55.7985611 C30.23142376 57.93518116 30.79024508 60.07331673 31.34765625 62.21191406 C31.66742432 63.4288092 31.98719238 64.64570435 32.31665039 65.8994751 C33 69 33 69 33 73 C30.03 73 27.06 73 24 73 C23.32713788 70.58490559 22.66153988 68.16819644 22 65.75 C21.80921875 65.06808594 21.6184375 64.38617187 21.421875 63.68359375 C20.50042956 60.29399088 20 57.54221024 20 54 C11.75 54 3.5 54 -5 54 C-5.99 57.63 -6.98 61.26 -8 65 C-8.96467347 67.67964852 -9.95089782 70.35226593 -11 73 C-13.97 73 -16.94 73 -20 73 C-16.77268909 59.53962495 -13.06404611 46.21765421 -9.34448242 32.88647461 C-8.30227509 29.15085047 -7.26319926 25.4143657 -6.22460938 21.67773438 C-5.56267907 19.29942932 -4.90057614 16.9211723 -4.23828125 14.54296875 C-3.92788406 13.4274614 -3.61748688 12.31195404 -3.29768372 11.16264343 C-3.01035873 10.13339249 -2.72303375 9.10414154 -2.42700195 8.04370117 C-2.174814 7.13931808 -1.92262604 6.234935 -1.66279602 5.30314636 C-1.15045829 3.52282672 -0.58583513 1.75750539 0 0 Z M6 9 C4.85461673 13.48253056 3.71547027 17.96658277 2.58203125 22.45214844 C2.19571476 23.97732074 1.80770854 25.50206608 1.41796875 27.02636719 C0.85750851 29.21959681 0.30317706 31.41429866 -0.25 33.609375 C-0.42499023 34.2886908 -0.59998047 34.96800659 -0.78027344 35.66790771 C-1.59613932 38.92983226 -2 41.60496249 -2 45 C4.27 45 10.54 45 17 45 C15.54203452 37.19259487 13.63425261 29.58598269 11.5 21.9375 C11.19191406 20.79861328 10.88382813 19.65972656 10.56640625 18.48632812 C10.26605469 17.40673828 9.96570312 16.32714844 9.65625 15.21484375 C9.38619141 14.23636475 9.11613281 13.25788574 8.83789062 12.24975586 C8.22780772 9.82969642 8.22780772 9.82969642 6 9 Z " fill="#D1B774" transform="translate(1362,1115)"/>
<path d="M0 0 C4.95 0 9.9 0 15 0 C17.35350355 8.77799796 19.70172912 17.55736136 22.04072571 26.33923626 C23.12705511 30.41706798 24.21567442 34.49425926 25.30957031 38.57006836 C26.36539253 42.50435538 27.4151426 46.44021677 28.46072388 50.37723732 C28.86045038 51.87808552 29.26235172 53.37835624 29.66647339 54.87802696 C30.2326575 56.98058671 30.79103447 59.0850773 31.34765625 61.19018555 C31.66742432 62.38709518 31.98719238 63.58400482 32.31665039 64.81718445 C32.92976578 67.67287232 33.14459837 70.09549134 33 73 C30.36 73 27.72 73 25 73 C20 60.04545455 20 60.04545455 20 54 C11.75 54 3.5 54 -5 54 C-5.99 57.96 -6.98 61.92 -8 66 C-8.93682373 68.35940792 -9.90655373 70.70896973 -11 73 C-13.64 73 -16.28 73 -19 73 C-20.53896002 69.92207997 -19.30663724 67.84683165 -18.38525391 64.57836914 C-18.20168839 63.91965317 -18.01812286 63.26093719 -17.82899475 62.58226013 C-17.21839604 60.39789695 -16.5975527 58.21658587 -15.9765625 56.03515625 C-15.55093569 54.52079569 -15.12592533 53.00626175 -14.70150757 51.49156189 C-13.58051978 47.49764962 -12.45074081 43.50627427 -11.3192749 39.51531982 C-10.17077444 35.45775603 -9.03125968 31.39767102 -7.890625 27.33789062 C-6.22257178 21.40771689 -4.55233109 15.47816783 -2.87353516 9.55102539 C-2.5352066 8.35570694 -2.19687805 7.16038849 -1.84829712 5.92884827 C-1.2723959 3.94047975 -0.65461986 1.96385957 0 0 Z M6 9 C4.85461673 13.48253056 3.71547027 17.96658277 2.58203125 22.45214844 C2.19571476 23.97732074 1.80770854 25.50206608 1.41796875 27.02636719 C0.85750851 29.21959681 0.30317706 31.41429866 -0.25 33.609375 C-0.42499023 34.2886908 -0.59998047 34.96800659 -0.78027344 35.66790771 C-1.59613932 38.92983226 -2 41.60496249 -2 45 C4.27 45 10.54 45 17 45 C15.50956137 37.00582915 13.52517371 29.21526757 11.375 21.375 C11.05015625 20.18003906 10.7253125 18.98507812 10.390625 17.75390625 C9.59671391 14.83511547 8.79978098 11.91718675 8 9 C7.34 9 6.68 9 6 9 Z " fill="#D5BC7B" transform="translate(961,1115)"/>
<path d="M0 0 C2.97 0 5.94 0 9 0 C9.01981934 1.40693115 9.03963867 2.8138623 9.06005859 4.26342773 C9.13647984 9.51360111 9.22513972 14.76351048 9.31738281 20.01342773 C9.35552223 22.27997604 9.39040057 24.54658177 9.421875 26.81323242 C9.4678534 30.08272746 9.52579266 33.35183225 9.5859375 36.62109375 C9.59748871 37.62458359 9.60903992 38.62807343 9.62094116 39.66197205 C9.73583936 50.58317628 9.73583936 50.58317628 14.5 60 C18.43869708 63.15095766 20.78356066 63.2124478 25.8125 63.3125 C27.03582031 63.34988281 28.25914062 63.38726563 29.51953125 63.42578125 C33.64096598 62.92158778 35.16343074 61.98934678 38 59 C39.75034849 55.39594577 40.26282563 52.46224253 40.31884766 48.4753418 C40.33871735 47.39459885 40.35858704 46.3138559 40.37905884 45.20036316 C40.39638565 43.46729668 40.39638565 43.46729668 40.4140625 41.69921875 C40.43342865 40.50770706 40.4527948 39.31619537 40.4727478 38.08857727 C40.53245896 34.28829068 40.57889581 30.48797366 40.625 26.6875 C40.6631875 24.10871085 40.70223968 21.52993435 40.7421875 18.95117188 C40.83815384 12.63421749 40.92221673 6.31720339 41 0 C44.3 0 47.6 0 51 0 C51.07442033 7.52561302 51.12873064 15.05100953 51.16479492 22.5769043 C51.1798371 25.13455947 51.20027589 27.69218904 51.22631836 30.24975586 C51.26290204 33.93609963 51.27977268 37.62210091 51.29296875 41.30859375 C51.30845261 42.44332626 51.32393646 43.57805878 51.33988953 44.74717712 C51.34152657 52.55294711 50.31734417 58.92147427 46.4375 65.75 C39.41488844 72.23241067 32.41794704 73.69241547 23.125 73.52099609 C15.3149312 73.13852627 10.8906674 71.2658931 5.625 65.625 C-0.71350051 57.55157117 -0.14632186 47.36311022 -0.09765625 37.59765625 C-0.0962413 36.51995468 -0.09482635 35.44225311 -0.09336853 34.33189392 C-0.08779611 30.90873371 -0.07524868 27.48564025 -0.0625 24.0625 C-0.05748144 21.73372491 -0.05291915 19.40494878 -0.04882812 17.07617188 C-0.0378357 11.38408908 -0.02059011 5.69205584 0 0 Z " fill="#DBC385" transform="translate(276,1115)"/>
<path d="M0 0 C1.05658813 0.01353516 1.05658813 0.01353516 2.13452148 0.02734375 C10.02570966 0.29059664 14.34000984 2.43059166 19.8125 7.9375 C23.76242056 12.74806838 25.83937776 18.36685652 27.0625 24.4375 C26.5675 25.9225 26.5675 25.9225 26.0625 27.4375 C23.4225 27.4375 20.7825 27.4375 18.0625 27.4375 C17.75957031 26.62925781 17.45664062 25.82101562 17.14453125 24.98828125 C13.99031048 16.72109698 13.99031048 16.72109698 8.0625 10.4375 C2.75927473 8.66975824 -2.98804423 8.2725889 -8.26171875 10.35546875 C-14.51522881 14.41727242 -17.32794163 20.3168731 -18.9375 27.4375 C-20.0406772 37.15355607 -20.80389475 49.08851501 -14.9375 57.4375 C-11.64764069 60.97648006 -8.28238831 64.22337098 -3.328125 64.67578125 C5.11299249 64.90529296 5.11299249 64.90529296 12.0625 60.4375 C15.03889866 56.63432394 16.73879182 53.07047862 18.0625 48.4375 C21.0325 48.4375 24.0025 48.4375 27.0625 48.4375 C25.70888341 58.29667756 22.53615611 64.76870545 14.90625 71.2109375 C8.18485194 75.68237604 -0.16304611 75.39387346 -7.9375 74.4375 C-14.83085818 72.46545373 -20.18333225 68.55714648 -23.9375 62.4375 C-27.95898888 54.05832059 -29.13859266 47.0193069 -29.1875 37.8125 C-29.208125 36.86503906 -29.22875 35.91757813 -29.25 34.94140625 C-29.30709417 24.50744743 -26.83135371 14.70686239 -19.52734375 6.9375 C-13.69750367 1.71396328 -7.67576206 -0.11765029 0 0 Z " fill="#DEC98E" transform="translate(28.9375,1113.5625)"/>
<path d="M0 0 C13.2 0 26.4 0 40 0 C40 2.64 40 5.28 40 8 C29.77 8 19.54 8 9 8 C9 15.92 9 23.84 9 32 C17.58 32 26.16 32 35 32 C35 34.64 35 37.28 35 40 C26.42 40 17.84 40 9 40 C9 48.25 9 56.5 9 65 C19.23 65 29.46 65 40 65 C40 67.64 40 70.28 40 73 C26.8 73 13.6 73 0 73 C0 48.91 0 24.82 0 0 Z " fill="#D1B772" transform="translate(1733,1115)"/>
<path d="M0 0 C0 7.92 0 15.84 0 24 C-6.9965991 26.01272029 -13.99549034 28.01520392 -21 30 C-22.01416992 30.28810547 -23.02833984 30.57621094 -24.07324219 30.87304688 C-27.04680314 31.71445873 -30.02292632 32.54611289 -33 33.375 C-33.92441895 33.63748535 -34.84883789 33.8999707 -35.80126953 34.17041016 C-37.10620361 34.53078369 -37.10620361 34.53078369 -38.4375 34.8984375 C-39.58025391 35.21820557 -39.58025391 35.21820557 -40.74609375 35.54443359 C-43 36 -43 36 -48 36 C-48 28.41 -48 20.82 -48 13 C-38.72371759 10.08822237 -29.41132486 7.40160046 -20.0300293 4.85302734 C-17.77621589 4.24013302 -15.52382798 3.6221776 -13.27148438 3.00390625 C-11.83341511 2.61167921 -10.39526707 2.21974084 -8.95703125 1.828125 C-8.28630081 1.6438092 -7.61557037 1.45949341 -6.92451477 1.26959229 C-2.22966034 0 -2.22966034 0 0 0 Z " fill="#C5A559" transform="translate(837,285)"/>
<path d="M0 0 C13.2 0 26.4 0 40 0 C40 2.64 40 5.28 40 8 C29.77 8 19.54 8 9 8 C9 16.25 9 24.5 9 33 C17.91 33 26.82 33 36 33 C36 35.64 36 38.28 36 41 C27.09 41 18.18 41 9 41 C9 51.56 9 62.12 9 73 C6.03 73 3.06 73 0 73 C0 48.91 0 24.82 0 0 Z " fill="#DAC386" transform="translate(1220,1115)"/>
<path d="M0 0 C13.2 0 26.4 0 40 0 C40 2.64 40 5.28 40 8 C29.77 8 19.54 8 9 8 C9 16.25 9 24.5 9 33 C17.91 33 26.82 33 36 33 C36 35.64 36 38.28 36 41 C27.09 41 18.18 41 9 41 C9 51.56 9 62.12 9 73 C6.03 73 3.06 73 0 73 C0 48.91 0 24.82 0 0 Z " fill="#DCC588" transform="translate(1086,1115)"/>
<path d="M0 0 C0 6.6 0 13.2 0 20 C-6.35248789 21.71374741 -12.70625929 23.42261937 -19.0612793 25.12695312 C-21.22375034 25.7076392 -23.38586224 26.28966443 -25.54760742 26.87304688 C-28.65190049 27.7105437 -31.7574462 28.54324248 -34.86328125 29.375 C-35.83211746 29.63748535 -36.80095367 29.8999707 -37.79914856 30.17041016 C-39.15020943 30.53078369 -39.15020943 30.53078369 -40.52856445 30.8984375 C-41.32132278 31.11161621 -42.11408112 31.32479492 -42.93086243 31.54443359 C-45 32 -45 32 -48 32 C-48 25.4 -48 18.8 -48 12 C-41.64751211 10.28625259 -35.29374071 8.57738063 -28.9387207 6.87304688 C-26.77624966 6.2923608 -24.61413776 5.71033557 -22.45239258 5.12695312 C-19.34809951 4.2894563 -16.2425538 3.45675752 -13.13671875 2.625 C-12.16788254 2.36251465 -11.19904633 2.1000293 -10.20085144 1.82958984 C-9.3001442 1.58934082 -8.39943695 1.3490918 -7.47143555 1.1015625 C-6.67867722 0.88838379 -5.88591888 0.67520508 -5.06913757 0.45556641 C-3 0 -3 0 0 0 Z " fill="#BD9A49" transform="translate(837,319)"/>
<path d="M0 0 C0 6.6 0 13.2 0 20 C-6.35248789 21.71374741 -12.70625929 23.42261937 -19.0612793 25.12695312 C-21.22375034 25.7076392 -23.38586224 26.28966443 -25.54760742 26.87304688 C-28.65190049 27.7105437 -31.7574462 28.54324248 -34.86328125 29.375 C-35.83211746 29.63748535 -36.80095367 29.8999707 -37.79914856 30.17041016 C-39.15020943 30.53078369 -39.15020943 30.53078369 -40.52856445 30.8984375 C-41.32132278 31.11161621 -42.11408112 31.32479492 -42.93086243 31.54443359 C-45 32 -45 32 -48 32 C-48 25.4 -48 18.8 -48 12 C-41.64751211 10.28625259 -35.29374071 8.57738063 -28.9387207 6.87304688 C-26.77624966 6.2923608 -24.61413776 5.71033557 -22.45239258 5.12695312 C-19.34809951 4.2894563 -16.2425538 3.45675752 -13.13671875 2.625 C-12.16788254 2.36251465 -11.19904633 2.1000293 -10.20085144 1.82958984 C-9.3001442 1.58934082 -8.39943695 1.3490918 -7.47143555 1.1015625 C-6.67867722 0.88838379 -5.88591888 0.67520508 -5.06913757 0.45556641 C-3 0 -3 0 0 0 Z " fill="#D4BB78" transform="translate(837,227)"/>
<path d="M0 0 C0 6.6 0 13.2 0 20 C-6.35248789 21.71374741 -12.70625929 23.42261937 -19.0612793 25.12695312 C-21.22375034 25.7076392 -23.38586224 26.28966443 -25.54760742 26.87304688 C-28.65190049 27.7105437 -31.7574462 28.54324248 -34.86328125 29.375 C-35.83211746 29.63748535 -36.80095367 29.8999707 -37.79914856 30.17041016 C-39.15020943 30.53078369 -39.15020943 30.53078369 -40.52856445 30.8984375 C-41.32132278 31.11161621 -42.11408112 31.32479492 -42.93086243 31.54443359 C-45 32 -45 32 -48 32 C-48 25.4 -48 18.8 -48 12 C-41.64751211 10.28625259 -35.29374071 8.57738063 -28.9387207 6.87304688 C-26.77624966 6.2923608 -24.61413776 5.71033557 -22.45239258 5.12695312 C-19.34809951 4.2894563 -16.2425538 3.45675752 -13.13671875 2.625 C-12.16788254 2.36251465 -11.19904633 2.1000293 -10.20085144 1.82958984 C-9.3001442 1.58934082 -8.39943695 1.3490918 -7.47143555 1.1015625 C-6.67867722 0.88838379 -5.88591888 0.67520508 -5.06913757 0.45556641 C-3 0 -3 0 0 0 Z " fill="#D4BA78" transform="translate(921,148)"/>
<path d="M0 0 C0 6.6 0 13.2 0 20 C-6.19179636 21.7137097 -12.38428168 23.42429462 -18.57910156 25.12695312 C-20.68637783 25.70715176 -22.79315347 26.28917185 -24.89941406 26.87304688 C-27.92643644 27.71182593 -30.95519685 28.54404491 -33.984375 29.375 C-34.92617615 29.63748535 -35.86797729 29.8999707 -36.83831787 30.17041016 C-38.15923431 30.53078369 -38.15923431 30.53078369 -39.50683594 30.8984375 C-40.27960876 31.11161621 -41.05238159 31.32479492 -41.84857178 31.54443359 C-44 32 -44 32 -48 32 C-48 25.73 -48 19.46 -48 13 C-38.9986765 9.62450369 -38.9986765 9.62450369 -35.63525391 8.74145508 C-34.88152496 8.54147415 -34.12779602 8.34149323 -33.35122681 8.13545227 C-32.56758759 7.93219833 -31.78394836 7.7289444 -30.9765625 7.51953125 C-29.73548233 7.19295784 -29.73548233 7.19295784 -28.46932983 6.85978699 C-26.73707652 6.404929 -25.00429 5.95209714 -23.27099609 5.5012207 C-20.61028419 4.80866965 -17.95154014 4.10892134 -15.29296875 3.40820312 C-13.60427717 2.96572389 -11.91547884 2.52365181 -10.2265625 2.08203125 C-9.43077789 1.87270462 -8.63499329 1.66337799 -7.81509399 1.44770813 C-2.23156339 0 -2.23156339 0 0 0 Z " fill="#C5A558" transform="translate(921,207)"/>
<path d="M0 0 C0 6.27 0 12.54 0 19 C-9.00222165 22.37583312 -9.00222165 22.37583312 -12.25708008 23.25854492 C-13.35280083 23.55851631 -13.35280083 23.55851631 -14.47065735 23.86454773 C-15.22928574 24.06780167 -15.98791412 24.2710556 -16.76953125 24.48046875 C-17.97375984 24.80704216 -17.97375984 24.80704216 -19.20231628 25.14021301 C-20.88330304 25.59498206 -22.56481451 26.04781571 -24.24682617 26.4987793 C-26.82435036 27.19068107 -29.39953522 27.89083845 -31.97460938 28.59179688 C-33.61445041 29.03434701 -35.25441992 29.47642141 -36.89453125 29.91796875 C-37.66328079 30.12729538 -38.43203033 30.33662201 -39.22407532 30.55229187 C-42.23390406 31.35462872 -44.87025691 32 -48 32 C-48 25.4 -48 18.8 -48 12 C-41.64751211 10.28625259 -35.29374071 8.57738063 -28.9387207 6.87304688 C-26.77624966 6.2923608 -24.61413776 5.71033557 -22.45239258 5.12695312 C-19.34809951 4.2894563 -16.2425538 3.45675752 -13.13671875 2.625 C-12.16788254 2.36251465 -11.19904633 2.1000293 -10.20085144 1.82958984 C-9.3001442 1.58934082 -8.39943695 1.3490918 -7.47143555 1.1015625 C-6.67867722 0.88838379 -5.88591888 0.67520508 -5.06913757 0.45556641 C-3 0 -3 0 0 0 Z " fill="#E4D097" transform="translate(837,168)"/>
<path d="M0 0 C0 6.6 0 13.2 0 20 C-6.9965991 22.01272029 -13.99549034 24.01520392 -21 26 C-22.01416992 26.28810547 -23.02833984 26.57621094 -24.07324219 26.87304688 C-27.04680314 27.71445873 -30.02292632 28.54611289 -33 29.375 C-34.38662842 29.76872803 -34.38662842 29.76872803 -35.80126953 30.17041016 C-37.10620361 30.53078369 -37.10620361 30.53078369 -38.4375 30.8984375 C-39.19933594 31.11161621 -39.96117187 31.32479492 -40.74609375 31.54443359 C-43 32 -43 32 -48 32 C-48 25.73 -48 19.46 -48 13 C-35.73061811 9.35263757 -23.45116216 5.78542252 -11.0625 2.5625 C-9.57157837 2.17457275 -9.57157837 2.17457275 -8.05053711 1.77880859 C-1.14561424 0 -1.14561424 0 0 0 Z " fill="#DCC588" transform="translate(837,197)"/>
<path d="M0 0 C0 6.27 0 12.54 0 19 C-9.27628241 21.91177763 -18.58867514 24.59839954 -27.9699707 27.14697266 C-30.22378411 27.75986698 -32.47617202 28.3778224 -34.72851562 28.99609375 C-36.16658489 29.38832079 -37.60473293 29.78025916 -39.04296875 30.171875 C-39.71369919 30.3561908 -40.38442963 30.54050659 -41.07548523 30.73040771 C-45.77033966 32 -45.77033966 32 -48 32 C-48 25.4 -48 18.8 -48 12 C-43.01980071 10.61148765 -38.0394276 9.2236321 -33.05859375 7.83740234 C-31.36708222 7.36642614 -29.6756741 6.89507835 -27.984375 6.42333984 C-25.54194331 5.74216638 -23.0991328 5.06236615 -20.65625 4.3828125 C-19.91008423 4.17439728 -19.16391846 3.96598206 -18.3951416 3.75125122 C-16.26547689 3.15962805 -14.13369795 2.57689836 -12 2 C-11.28158936 1.80436462 -10.56317871 1.60872925 -9.82299805 1.40716553 C-6.39830793 0.50630077 -3.56824068 0 0 0 Z " fill="#CDB068" transform="translate(921,178)"/>
<path d="M0 0 C0 6.27 0 12.54 0 19 C-6.35248789 20.71374741 -12.70625929 22.42261937 -19.0612793 24.12695312 C-21.22375034 24.7076392 -23.38586224 25.28966443 -25.54760742 25.87304688 C-28.65190049 26.7105437 -31.7574462 27.54324248 -34.86328125 28.375 C-35.83211746 28.63748535 -36.80095367 28.8999707 -37.79914856 29.17041016 C-39.15020943 29.53078369 -39.15020943 29.53078369 -40.52856445 29.8984375 C-41.32132278 30.11161621 -42.11408112 30.32479492 -42.93086243 30.54443359 C-45 31 -45 31 -48 31 C-48 24.73 -48 18.46 -48 12 C-41.80874228 10.28451518 -35.61569741 8.57569963 -29.42089844 6.87304688 C-27.31362217 6.29284824 -25.20684653 5.71082815 -23.10058594 5.12695312 C-20.07356356 4.28817407 -17.04480315 3.45595509 -14.015625 2.625 C-13.07382385 2.36251465 -12.13202271 2.1000293 -11.16168213 1.82958984 C-10.28107117 1.58934082 -9.40046021 1.3490918 -8.49316406 1.1015625 C-7.72039124 0.88838379 -6.94761841 0.67520508 -6.15142822 0.45556641 C-4 0 -4 0 0 0 Z " fill="#BD9A49" transform="translate(921,237)"/>
<path d="M0 0 C0 5.94 0 11.88 0 18 C-9.0013235 21.37549631 -9.0013235 21.37549631 -12.36474609 22.25854492 C-13.49533951 22.55851631 -13.49533951 22.55851631 -14.64877319 22.86454773 C-15.82423203 23.16942863 -15.82423203 23.16942863 -17.0234375 23.48046875 C-17.85082428 23.69818436 -18.67821106 23.91589996 -19.53067017 24.14021301 C-21.26292348 24.595071 -22.99571 25.04790286 -24.72900391 25.4987793 C-27.38971581 26.19133035 -30.04845986 26.89107866 -32.70703125 27.59179688 C-34.39572283 28.03427611 -36.08452116 28.47634819 -37.7734375 28.91796875 C-38.56922211 29.12729538 -39.36500671 29.33662201 -40.18490601 29.55229187 C-45.76843661 31 -45.76843661 31 -48 31 C-48 24.73 -48 18.46 -48 12 C-40.15494946 9.82930771 -32.30906233 7.66177785 -24.4606781 5.50317383 C-20.93096298 4.53228145 -17.40250585 3.55700787 -13.875 2.578125 C-12.56261897 2.21831579 -11.25013358 1.85888678 -9.9375 1.5 C-8.85339844 1.2009375 -7.76929688 0.901875 -6.65234375 0.59375 C-4 0 -4 0 0 0 Z " fill="#CEB169" transform="translate(837,257)"/>
<path d="M0 0 C2.97 0 5.94 0 9 0 C9 21.45 9 42.9 9 65 C18.57 65 28.14 65 38 65 C38 67.64 38 70.28 38 73 C25.46 73 12.92 73 0 73 C0 48.91 0 24.82 0 0 Z " fill="#D8BE7E" transform="translate(149,1115)"/>
<path d="M0 0 C2.97 0 5.94 0 9 0 C9 24.09 9 48.18 9 73 C6.03 73 3.06 73 0 73 C0 48.91 0 24.82 0 0 Z " fill="#D4BA77" transform="translate(1487,1115)"/>
<path d="M0 0 C0 7.92 0 15.84 0 24 C-13.625 28 -13.625 28 -17 28 C-17 20.41 -17 12.82 -17 5 C-3.66666667 0 -3.66666667 0 0 0 Z " fill="#D3B975" transform="translate(1179,198)"/>
<path d="M0 0 C0 6.6 0 13.2 0 20 C-5.61 21.32 -11.22 22.64 -17 24 C-17 17.4 -17 10.8 -17 4 C-3.375 0 -3.375 0 0 0 Z " fill="#BD9B4A" transform="translate(753,220)"/>
<path d="M0 0 C0 6.6 0 13.2 0 20 C-5.61 21.32 -11.22 22.64 -17 24 C-17 17.4 -17 10.8 -17 4 C-3.375 0 -3.375 0 0 0 Z " fill="#C7A85D" transform="translate(1179,232)"/>
<path d="M0 0 C0 6.6 0 13.2 0 20 C-5.61 21.32 -11.22 22.64 -17 24 C-17 17.4 -17 10.8 -17 4 C-3.375 0 -3.375 0 0 0 Z " fill="#E8D6A0" transform="translate(1179,140)"/>
<path d="M0 0 C0 6.6 0 13.2 0 20 C-13.625 24 -13.625 24 -17 24 C-17 17.73 -17 11.46 -17 5 C-3.66666667 0 -3.66666667 0 0 0 Z " fill="#CAAC63" transform="translate(753,190)"/>
<path d="M0 0 C0 6.6 0 13.2 0 20 C-12.5 24 -12.5 24 -17 24 C-17 17.73 -17 11.46 -17 5 C-3.66666667 0 -3.66666667 0 0 0 Z " fill="#F2E4B6" transform="translate(1179,110)"/>
<path d="M0 0 C0 6.27 0 12.54 0 19 C-12.5 23 -12.5 23 -17 23 C-17 16.73 -17 10.46 -17 4 C-5 0 -5 0 0 0 Z " fill="#BD9A48" transform="translate(1179,262)"/>
<path d="M0 0 C0 5.94 0 11.88 0 18 C-9 21.375 -9 21.375 -13 21.6875 C-14.32 21.790625 -15.64 21.89375 -17 22 C-17 16.06 -17 10.12 -17 4 C-4.5 0 -4.5 0 0 0 Z " fill="#DEC78B" transform="translate(1179,170)"/>
<path d="M0 0 C0.99 0.495 0.99 0.495 2 1 C1.01 1.495 1.01 1.495 0 2 C0 1.34 0 0.68 0 0 Z " fill="#CACAB2" transform="translate(1162,103)"/>
</svg>
