<?xml version="1.0" encoding="UTF-8"?>
<svg version="1.1" xmlns="http://www.w3.org/2000/svg" width="1200" height="600">
<path d="M0 0 C1.27271869 -0.01564648 1.27271869 -0.01564648 2.57114887 -0.03160906 C3.49837852 -0.02268617 4.42560816 -0.01376328 5.38093567 -0.00457001 C6.86415833 -0.01392995 6.86415833 -0.01392995 8.37734509 -0.02347898 C11.7001529 -0.03947009 15.02223337 -0.02678047 18.345047 -0.01421356 C20.72335743 -0.01963194 23.10166452 -0.02675299 25.47996521 -0.0354538 C31.27478258 -0.05182508 37.06936769 -0.04939402 42.86419225 -0.03780323 C47.57327173 -0.02877368 52.28229313 -0.02754282 56.99137878 -0.0318985 C57.66131935 -0.03251143 58.33125992 -0.03312436 59.02150172 -0.03375587 C60.38242668 -0.03503476 61.74335162 -0.03633161 63.10427654 -0.03764623 C75.86897812 -0.04905542 88.63356485 -0.03593307 101.3982476 -0.01444477 C112.35355337 0.00342656 123.3086896 0.00032255 134.26399231 -0.01811981 C146.98266676 -0.03952061 159.70124052 -0.04795675 172.41993046 -0.03567076 C173.77587953 -0.03439655 175.13182861 -0.03313906 176.48777771 -0.0318985 C177.1549496 -0.0312814 177.82212148 -0.03066429 178.5095107 -0.03002849 C183.21353361 -0.0265732 187.91749271 -0.03240776 192.62150574 -0.04181671 C198.95151298 -0.05334888 205.28119925 -0.04539733 211.61117172 -0.02223969 C213.93802227 -0.01693854 216.26489971 -0.01849022 218.59173965 -0.02729034 C221.76093471 -0.03817359 224.9290924 -0.02456894 228.09822083 -0.00457001 C229.48906529 -0.01795434 229.48906529 -0.01795434 230.90800762 -0.03160906 C237.08517349 0.04433147 237.08517349 0.04433147 240.27966309 2.28511047 C242.7889173 6.09777273 242.86436309 9.56019529 242.86262608 14.05558395 C242.86461712 15.19216831 242.86660817 16.32875268 242.86865956 17.49977899 C242.86574671 18.74879487 242.86283387 19.99781075 242.85983276 21.2846756 C242.86026877 22.62456334 242.86114421 23.96445101 242.86242193 25.30433822 C242.86466118 28.98942161 242.86065336 32.67447602 242.85564387 36.35955572 C242.85133141 40.332256 242.85278636 44.3049546 242.85354614 48.27765656 C242.85407087 55.16169625 242.85092939 62.04572648 242.8453083 68.92976379 C242.83718641 78.88296546 242.83457737 88.83616255 242.83332031 98.78936717 C242.83113088 114.93719963 242.82447373 131.08502703 242.8150177 147.23285675 C242.80584078 162.92035649 242.79876131 178.60785487 242.79450989 194.29535675 C242.79424716 195.26209242 242.79398444 196.2288281 242.79371376 197.22485879 C242.79240873 202.07461533 242.79114502 206.92437188 242.78990185 211.77412844 C242.77953262 252.01721066 242.76191725 292.26028732 242.73957825 332.50336456 C243.67030151 332.49448212 244.60102478 332.48559967 245.55995178 332.47644806 C254.32945885 332.39537512 263.09888993 332.33540549 271.86868668 332.29611588 C276.37740442 332.27523754 280.88581973 332.24691567 285.3943634 332.20160675 C289.74507877 332.15815737 294.09550318 332.13422931 298.44641876 332.12385559 C300.10664704 332.11646255 301.76685933 332.10202559 303.42696381 332.08044434 C305.75189674 332.05142136 308.07562623 332.04740793 310.40071106 332.049263 C311.08763535 332.0348819 311.77455963 332.02050079 312.4822998 332.0056839 C315.77910376 332.03416195 317.49215409 332.31926285 320.16679716 334.30939341 C322.47402238 337.52788683 322.29275179 340.62301859 322.24751282 344.43634796 C322.25687276 345.64393084 322.25687276 345.64393084 322.26642179 346.87590933 C322.28239264 349.57689435 322.26973185 352.27698202 322.25715637 354.97797394 C322.26257568 356.91294126 322.26969726 358.84790445 322.27839661 360.7828598 C322.2966556 366.04109089 322.28955175 371.29900858 322.27688026 376.55724525 C322.26676596 382.05536632 322.27614157 387.55346023 322.28242493 393.05158234 C322.2897059 402.28539609 322.28010178 411.51908194 322.26106262 420.75287628 C322.23929307 431.43435652 322.24634412 442.11553138 322.26836824 452.79700422 C322.28650938 461.96142936 322.28908685 471.12576247 322.27861357 480.29019976 C322.27237157 485.76655363 322.27156243 491.24276388 322.28475952 496.71910858 C322.29629864 501.86722576 322.28832767 507.01494851 322.2651825 512.16302299 C322.25988504 514.05448183 322.26142682 515.94597376 322.27023315 517.83741951 C322.28113148 520.41552431 322.26749501 522.99235783 322.24751282 525.57038116 C322.26089715 526.69858662 322.26089715 526.69858662 322.27455187 527.8495841 C322.22541308 531.10820028 322.0691139 533.0754241 320.05248117 535.69425678 C317.20860213 537.91868378 315.80872856 538.00434403 312.22976685 538.00672913 C311.10261607 538.01716012 309.9754653 538.0275911 308.81415844 538.03833818 C307.57565293 538.0294153 306.33714743 538.02049241 305.06111145 538.01129913 C303.74561215 538.0175391 302.43011286 538.02377906 301.07474995 538.03020811 C297.42006473 538.04693874 293.76579617 538.03863844 290.11110926 538.02626324 C286.17102359 538.0172302 282.23101065 538.03117376 278.29093933 538.04218292 C270.57106981 538.05999148 262.85135564 538.0561178 255.13147998 538.04453236 C248.85871271 538.03550748 242.58598906 538.03426993 236.31321716 538.03862762 C234.97526296 538.03954702 234.97526296 538.03954702 233.61027938 538.04048499 C231.79839443 538.04176387 229.98650949 538.04306072 228.17462456 538.04437536 C211.17512422 538.055788 194.17571008 538.04265674 177.17622387 538.02117389 C162.58238996 538.00330229 147.9886833 538.0064062 133.39485168 538.02484894 C116.45716728 538.04624359 99.51955848 538.0546893 82.58186245 538.04239988 C80.77655476 538.04112565 78.97124705 538.03986817 77.16593933 538.03862762 C76.27763862 538.03801052 75.38933792 538.03739342 74.47411901 538.03675762 C68.20716911 538.03330049 61.94026707 538.03914085 55.67332458 538.04854584 C48.0384413 538.05975161 40.40372257 538.05675585 32.76885819 538.03542286 C28.87162991 538.02489316 24.9746762 538.020823 21.0774498 538.03401947 C16.85740801 538.04809316 12.63806257 538.03131644 8.41804504 538.01129913 C7.17953954 538.02022202 5.94103403 538.02914491 4.66499805 538.03833818 C3.53784728 538.0279072 2.41069651 538.01747621 1.24938965 538.00672913 C0.27491725 538.00607972 -0.69955515 538.00543031 -1.70355701 538.00476122 C-4.26042175 537.50336456 -4.26042175 537.50336456 -6.57332468 536.01831722 C-9.00469423 532.39387889 -8.81096314 528.97759108 -8.76378632 524.76075745 C-8.77250696 523.41590744 -8.77250696 523.41590744 -8.78140378 522.04388875 C-8.79608592 519.01778304 -8.78208018 515.99247803 -8.76835632 512.96637726 C-8.77296198 510.78375217 -8.77931263 508.60113018 -8.7872653 506.41851473 C-8.80402768 500.40375826 -8.79568087 494.3892543 -8.78332043 488.3744967 C-8.77430047 481.89452126 -8.78822445 475.41459041 -8.79924011 468.93462372 C-8.81681083 456.96840501 -8.81453027 445.00226662 -8.80359424 433.03604315 C-8.79354158 421.98246278 -8.79090074 410.92891207 -8.79568481 399.87532806 C-8.79599035 399.14280607 -8.7962959 398.41028409 -8.79661069 397.65556446 C-8.797856 394.68219954 -8.79912959 391.70883463 -8.80044975 388.73546975 C-8.81269241 360.82925515 -8.80158137 332.92309211 -8.78006216 305.01688547 C-8.76107899 280.21075583 -8.76277747 255.40470832 -8.78190613 230.59857941 C-8.80331345 202.74419694 -8.81182425 174.88986004 -8.79945707 147.03547049 C-8.79817416 144.06744735 -8.7969228 141.09942421 -8.79568481 138.13140106 C-8.79536851 137.40057015 -8.7950522 136.66973924 -8.7947263 135.91676194 C-8.79017177 124.86871779 -8.79550613 113.82070653 -8.80560303 102.77266693 C-8.81702349 90.21357331 -8.81382995 77.65457999 -8.79248005 65.09549773 C-8.78193964 58.68292457 -8.7778987 52.27051846 -8.79107666 45.8579464 C-8.80294446 39.9944059 -8.79653099 34.13118821 -8.77516645 28.26767725 C-8.77067649 26.13988295 -8.77301979 24.01206171 -8.7826696 21.88428456 C-8.79473416 19.00445248 -8.78246012 16.12574385 -8.76378632 13.24597168 C-8.77315098 12.40892439 -8.78251565 11.57187709 -8.79216409 10.70946473 C-8.74563718 7.14938857 -8.56713825 4.94036009 -6.49523783 1.9884119 C-4.05265468 0.36530222 -2.8986187 0.0025735 0 0 Z " fill="#933B24" transform="translate(8.260421752929688,29.49663543701172)"/>
<path d="M0 0 C0.99289866 -0.00709439 1.98579732 -0.01418877 3.00878382 -0.02149814 C6.34556098 -0.03914131 9.68118306 -0.02094042 13.01794434 -0.00291443 C15.40610791 -0.0080508 17.7942677 -0.01532994 20.18241882 -0.02459717 C26.00135207 -0.04122646 31.81991382 -0.03445272 37.63883626 -0.01650894 C42.36746872 -0.0024896 47.09601001 0.00141132 51.82466125 -0.00195122 C52.49737718 -0.00242866 53.17009311 -0.0029061 53.86319438 -0.00339801 C55.22975634 -0.00442433 56.59631828 -0.00547969 57.96288019 -0.00656378 C70.04982423 -0.01513358 82.13660615 0.00155315 94.22351074 0.03126526 C105.95502533 0.06010341 117.68630637 0.06718662 129.41784668 0.05177307 C142.18926645 0.03501627 154.96057531 0.03097133 167.73199797 0.04848343 C169.09356402 0.05032784 170.45513009 0.05216257 171.81669617 0.0539875 C172.82160016 0.05535564 172.82160016 0.05535564 173.84680524 0.05675141 C178.57035926 0.06236008 183.29385919 0.05904657 188.01741028 0.05244255 C194.37369547 0.04479638 200.72964316 0.0568517 207.08587074 0.08429146 C209.42239187 0.09119385 211.75894441 0.09125355 214.09546471 0.08407593 C217.277809 0.07542458 220.45910136 0.09126486 223.64135742 0.11352539 C224.57247801 0.10528462 225.5035986 0.09704386 226.46293497 0.08855337 C227.74087876 0.1051249 227.74087876 0.1051249 229.04463959 0.12203121 C229.77912874 0.12322269 230.51361789 0.12441418 231.27036428 0.12564176 C234.33615961 0.87709101 235.46735524 2.09226286 237.32067871 4.62818909 C237.8209247 7.84861958 237.8209247 7.84861958 237.82124996 11.7543354 C237.82952121 12.83710527 237.82952121 12.83710527 237.83795956 13.94174927 C237.85161358 16.37371552 237.83662643 18.80467002 237.82188416 21.23661804 C237.82577501 22.99266094 237.83141372 24.74870069 237.83865505 26.50473297 C237.85346073 31.34092947 237.84319793 36.17680207 237.82891834 41.01298833 C237.81784024 46.22532483 237.82974117 51.43761471 237.83876038 56.64994812 C237.85272055 66.86908846 237.84511421 77.08810552 237.83008479 87.30724002 C237.81323992 99.21394499 237.81643347 111.1206191 237.82017887 123.02733229 C237.82606347 144.28574826 237.81186724 165.54410511 237.78723145 186.80250549 C237.76335128 207.41125205 237.75620995 228.01991946 237.76672363 248.62867737 C237.77815147 271.06952151 237.78003659 293.51032899 237.76562554 315.95117271 C237.76409974 318.34819976 237.76257939 320.74522682 237.76106453 323.14225388 C237.76030672 324.3215803 237.7595489 325.50090673 237.75876812 326.71597032 C237.75403638 335.00513715 237.75586916 343.29428756 237.76012993 351.58345413 C237.76507422 361.70362922 237.75899526 371.82372966 237.73923563 381.94388773 C237.72940979 387.10251001 237.72420699 392.26101901 237.73212814 397.41964722 C237.73924834 402.15389702 237.73223404 406.88791957 237.71452451 411.62213968 C237.71052032 413.3235361 237.71141095 415.02495365 237.71804338 416.72634186 C237.76948124 431.1723652 236.58239198 445.83013037 231.75817871 459.56568909 C231.38572021 460.64946838 231.38572021 460.64946838 231.0057373 461.75514221 C226.29017262 474.81190479 219.6561761 487.31292662 210.32067871 497.62818909 C209.65938965 498.42998596 208.99810059 499.23178284 208.31677246 500.05787659 C190.19007659 521.48943966 162.94529692 534.31855241 135.32067871 537.62818909 C132.2013575 537.77052684 129.08616833 537.7802659 125.96394348 537.78208923 C125.04198549 537.78647149 124.1200275 537.79085374 123.17013139 537.79536879 C120.09181231 537.8086858 117.01352181 537.81491939 113.93518066 537.82106018 C111.72391635 537.82896617 109.51265331 537.83723542 107.3013916 537.84584045 C100.0539268 537.87198287 92.80645641 537.88735107 85.55895996 537.90162659 C83.06308679 537.90698772 80.56721366 537.91236524 78.07134056 537.91775894 C67.69554461 537.93936796 57.31974926 537.95825881 46.94393635 537.96938133 C44.25661019 537.97231078 41.56928407 537.9752725 38.88195801 537.97828674 C38.21407744 537.97903279 37.54619687 537.97977884 36.85807749 537.9805475 C26.02001328 537.99322259 15.1821123 538.02648247 4.34412453 538.06808858 C-6.78898951 538.11047728 -17.92204469 538.13366417 -29.05524474 538.1393019 C-35.30403987 538.14296217 -41.5525572 538.15505733 -47.80127525 538.18740463 C-53.67251921 538.2173664 -59.54331546 538.22383961 -65.41461945 538.21202087 C-67.57217638 538.21179921 -69.72975343 538.2201808 -71.88723946 538.23767471 C-74.82655154 538.26021684 -77.76421902 538.25214126 -80.70353699 538.2361908 C-81.56257415 538.25007288 -82.42161131 538.26395497 -83.3066799 538.27825773 C-87.38955086 538.22344029 -89.06416698 538.17249182 -92.21024418 535.3887701 C-93.71962074 532.55246135 -94.17485008 531.02511226 -94.16033936 527.85089111 C-94.16583801 526.91846085 -94.17133667 525.98603058 -94.17700195 525.02534485 C-94.16262085 524.01473999 -94.14823975 523.00413513 -94.13342285 521.96290588 C-94.13400696 520.88928299 -94.13459106 519.8156601 -94.13519287 518.70950317 C-94.13240889 515.16514113 -94.10130055 511.62162276 -94.06994629 508.07740784 C-94.06248506 505.6183315 -94.05679157 503.15924921 -94.05279541 500.70016479 C-94.03753 494.2309576 -93.99823968 487.76211019 -93.95397949 481.29304504 C-93.91304677 474.69061652 -93.89478862 468.08812982 -93.87463379 461.48561096 C-93.83174689 448.5329836 -93.76425398 435.58060549 -93.67932129 422.62818909 C-86.09777832 423.55982971 -86.09777832 423.55982971 -82.33166504 424.17506409 C-38.00177616 429.67481501 11.8856949 414.19123588 51.32067871 394.62818909 C52.68059046 393.97814804 54.04125938 393.32968849 55.40270996 392.68287659 C80.35994819 380.6818643 103.70343391 365.43690544 124.09802246 346.66725159 C126.11629974 344.81568614 128.17417006 343.02985908 130.25817871 341.25318909 C138.20187282 334.32255718 145.54499598 326.69888285 152.32067871 318.62818909 C152.65067871 319.28818909 152.98067871 319.94818909 153.32067871 320.62818909 C152.17691811 323.07293885 150.97587672 325.35658356 149.63317871 327.69068909 C149.22889648 328.39878723 148.82461426 329.10688538 148.40808105 329.83644104 C140.70103686 343.06284525 131.53542265 355.24711453 121.32067871 366.62818909 C120.78765137 367.2229303 120.25462402 367.81767151 119.70544434 368.43043518 C113.57113404 375.23624228 107.4186235 381.8121925 100.32067871 387.62818909 C99.47763184 388.35908752 98.63458496 389.08998596 97.76599121 389.84303284 C84.95328647 400.83279178 71.04003981 410.37800105 56.32067871 418.62818909 C55.57431152 419.04922913 54.82794434 419.47026917 54.05895996 419.90406799 C15.04961521 441.69170977 -27.59508653 453.07152044 -71.67932129 458.62818909 C-50.37846813 465.42633371 -20.28569205 463.78196293 1.32067871 458.62818909 C2.27764648 458.40244202 3.23461426 458.17669495 4.22058105 457.94410706 C40.54359098 449.10415909 73.49285439 431.37923562 100.84802246 405.91334534 C102.9192797 403.99915026 105.02982572 402.18231298 107.19567871 400.37818909 C117.84711938 391.07723783 126.90875556 379.94454513 135.32067871 368.62818909 C135.80391602 367.98011292 136.28715332 367.33203674 136.78503418 366.6643219 C164.05196682 329.80560462 186.9335261 282.72021728 186.38317871 235.94068909 C186.36964355 234.41895081 186.36964355 234.41895081 186.35583496 232.86647034 C186.3442334 232.12783752 186.33263184 231.38920471 186.32067871 230.62818909 C185.78442871 231.10127502 185.24817871 231.57436096 184.69567871 232.06178284 C156.4960575 255.85521323 119.14949889 261.47114319 83.39099121 261.90943909 C82.19875946 261.92784851 81.00652771 261.94625793 79.77816772 261.96522522 C76.00071594 262.02331567 72.22322061 262.07631576 68.44567871 262.12818909 C35.48932549 262.31277276 35.48932549 262.31277276 2.69567871 265.19068909 C0.62049988 265.46542027 -1.45501115 265.73765663 -3.53088379 266.00709534 C-4.84306885 266.18607361 -4.84306885 266.18607361 -6.1817627 266.3686676 C-8.70114367 266.63045665 -11.14844268 266.64570308 -13.67932129 266.62818909 C-13.77084759 233.46346203 -13.84134512 200.2987677 -13.88358261 167.13394319 C-13.88858552 163.21983419 -13.8937628 159.30572545 -13.89904785 155.39161682 C-13.90009709 154.61237792 -13.90114634 153.83313901 -13.90222737 153.03028681 C-13.91963955 140.40773308 -13.95118169 127.78525212 -13.98793247 115.16274158 C-14.02531933 102.21390988 -14.04755236 89.26511632 -14.05567527 76.31623286 C-14.06116774 68.32401938 -14.07852419 60.33201155 -14.11098716 52.33986136 C-14.13460152 46.214703 -14.13714684 40.0897019 -14.13175201 33.96450424 C-14.13285508 31.44938959 -14.14084627 28.93426736 -14.15614319 26.41919899 C-14.17597123 22.99185342 -14.17128593 19.56539606 -14.16033936 16.13803101 C-14.17199072 15.13705771 -14.18364209 14.13608441 -14.19564652 13.10477859 C-14.16054689 9.05404471 -13.95211207 6.22495411 -12.25421524 2.51058578 C-8.31766297 -0.36726206 -4.76360667 -0.06055151 0 0 Z " fill="#933B24" transform="translate(699.6793212890625,29.371810913085938)"/>
<path d="M0 0 C1.12568893 -0.00423477 2.25137787 -0.00846954 3.41117859 -0.01283264 C7.02545984 -0.0226508 10.63961412 -0.02276541 14.25390625 -0.01953125 C15.48904968 -0.018927 16.72419312 -0.01832275 17.99676514 -0.0177002 C36.01628708 0.00629423 53.88936356 0.18032806 71.81640625 2.16796875 C73.54624756 2.35335205 73.54624756 2.35335205 75.31103516 2.54248047 C116.70637228 7.15065118 159.61895216 18.99578979 196.99508667 37.74891663 C197.89741468 38.20129228 198.7997427 38.65366793 199.72941399 39.11975193 C200.41812143 39.46566348 201.10682888 39.81157503 201.81640625 40.16796875 C201.90790628 89.38435283 201.97841675 138.60072834 202.02066757 187.8171807 C202.02567056 193.62397022 202.03084783 199.43075956 202.03613281 205.23754883 C202.03718205 206.39360519 202.0382313 207.54966156 202.03931233 208.74074993 C202.05673074 227.47415852 202.08827633 246.20751815 202.12501743 264.94089767 C202.16238692 284.1545196 202.18463364 303.36811584 202.19276023 322.58177263 C202.19825629 334.44334941 202.21563235 346.30478782 202.24807212 358.16632203 C202.26917073 366.29362051 202.27561687 374.42084717 202.27041176 382.54817107 C202.26784272 387.24142804 202.27185732 391.93444274 202.29322815 396.62765694 C202.31263886 400.92164574 202.31371214 405.21522848 202.30000183 409.50923566 C202.29830639 411.06517711 202.30342709 412.62114352 202.31593898 414.17703559 C202.33193266 416.28812619 202.32337884 418.39774044 202.30859756 420.50880718 C202.31087589 422.26938049 202.31087589 422.26938049 202.31320024 424.06552094 C201.70425771 427.86832949 200.59491419 429.53051409 197.81640625 432.16796875 C195.76609182 432.7935639 195.76609182 432.7935639 193.54036713 432.79438114 C192.6884046 432.80680318 191.83644208 432.81922522 190.95866251 432.83202368 C190.02754192 432.82018795 189.09642133 432.80835222 188.13708496 432.79615784 C187.1441863 432.80325222 186.15128764 432.81034661 185.12830114 432.81765598 C181.79152398 432.83529914 178.4559019 432.81709826 175.11914062 432.79907227 C172.73097705 432.80420864 170.34281726 432.81148777 167.95466614 432.820755 C162.13573289 432.83738429 156.31717114 432.83061055 150.4982487 432.81266678 C145.76961625 432.79864744 141.04107495 432.79474652 136.31242371 432.79810905 C135.30334981 432.79882522 135.30334981 432.79882522 134.27389058 432.79955585 C132.90732862 432.80058217 131.54076668 432.80163753 130.17420477 432.80272161 C118.08726073 432.81129142 106.00047881 432.79460469 93.91357422 432.76489258 C82.18205963 432.73605443 70.45077859 432.72897121 58.71923828 432.74438477 C45.94781851 432.76114156 33.17650965 432.76518651 20.40508699 432.74767441 C19.04352094 432.74583 17.68195487 432.74399527 16.32038879 432.74217033 C15.6504528 432.74125824 14.9805168 432.74034615 14.29027972 432.73940643 C9.5667257 432.73379776 4.84322577 432.73711126 0.11967468 432.74371529 C-6.23661051 432.75136146 -12.5925582 432.73930614 -18.94878578 432.71186638 C-21.28530691 432.70496399 -23.62185945 432.70490429 -25.95837975 432.71208191 C-29.14072404 432.72073326 -32.3220164 432.70489298 -35.50427246 432.68263245 C-36.43539305 432.69087321 -37.36651364 432.69911398 -38.32585001 432.70760447 C-39.17781253 432.69655678 -40.02977506 432.68550909 -40.90755463 432.67412663 C-41.64204378 432.67293514 -42.37653293 432.67174366 -43.13327932 432.67051607 C-46.19810416 431.9193047 -47.33050913 430.70249497 -49.18359375 428.16796875 C-49.68038774 424.95888638 -49.68038774 424.95888638 -49.67578506 421.06962967 C-49.68040044 420.35083222 -49.68501582 419.63203478 -49.68977106 418.89145559 C-49.70040377 416.47001322 -49.68237863 414.04962345 -49.66461182 411.62823486 C-49.66635531 409.87998955 -49.66985613 408.13174525 -49.67496848 406.38350654 C-49.68393594 401.56954509 -49.66788056 396.7559379 -49.64785624 391.94202161 C-49.63062107 386.75458598 -49.63642514 381.56717116 -49.63946533 376.37971497 C-49.64156519 367.38881935 -49.62898957 358.39803962 -49.60651398 349.40717316 C-49.57403899 336.40782547 -49.56359157 323.40853395 -49.55856201 310.40915009 C-49.54980229 289.3197727 -49.52316833 268.23045711 -49.48535156 247.14111328 C-49.448649 226.65185862 -49.42032865 206.16262073 -49.40332031 185.67333984 C-49.40226942 184.41089161 -49.40121852 183.14844337 -49.40013579 181.84773913 C-49.39491573 175.51455963 -49.38986087 169.18138002 -49.38488817 162.84820032 C-49.34340505 110.28808041 -49.27293818 57.72802759 -49.18359375 5.16796875 C-45.26818767 4.51434121 -41.35107184 3.87155095 -37.43359375 3.23046875 C-35.79583984 2.95686523 -35.79583984 2.95686523 -34.125 2.67773438 C-22.73870785 0.82493536 -11.52846399 0.01333525 0 0 Z " fill="#933B24" transform="translate(392.18359375,134.83203125)"/>
<path d="M0 0 C1.74097458 -0.00537781 1.74097458 -0.00537781 3.51712036 -0.01086426 C38.2608164 -0.06870939 38.2608164 -0.06870939 51.4375 3.3125 C51.52898527 57.38688308 51.59950298 111.46125836 51.64176132 165.53570355 C51.64676436 171.91459026 51.65194162 178.29347681 51.65722656 184.67236328 C51.6582758 185.94232532 51.65932505 187.21228735 51.66040608 188.52073309 C51.677828 209.10424145 51.70937551 229.6877053 51.74611118 250.27118722 C51.78347091 271.37983539 51.80572532 292.48846019 51.81385398 313.59714007 C51.81935207 326.6302804 51.8367391 339.66329489 51.86916587 352.6963965 C51.89025245 361.62449701 51.89671336 370.55253213 51.89150551 379.48065576 C51.88893459 384.63756627 51.89297235 389.79425634 51.9143219 394.95112801 C51.93370624 399.66756622 51.93482313 404.3836346 51.92109558 409.1000894 C51.91939755 410.81078923 51.92454038 412.52151162 51.93703273 414.23216668 C51.95297849 416.54954495 51.94450141 418.86557072 51.92969131 421.18292618 C51.93196964 423.11722154 51.93196964 423.11722154 51.93429399 425.09059358 C51.4375 428.3125 51.4375 428.3125 49.6730144 430.72663808 C47.21929105 432.46729626 46.1423349 432.8132319 43.17707825 432.81586456 C41.90435956 432.83151105 41.90435956 432.83151105 40.60592937 432.84747362 C39.67869973 432.83855073 38.75147009 432.82962785 37.79614258 432.82043457 C36.31291992 432.82979451 36.31291992 432.82979451 34.79973316 432.83934355 C31.47692535 432.85533466 28.15484488 432.84264503 24.83203125 432.83007812 C22.45372081 432.8354965 20.07541373 432.84261756 17.69711304 432.85131836 C11.90229567 432.86768964 6.10771056 432.86525859 0.312886 432.8536678 C-4.39619348 432.84463825 -9.10521488 432.84340738 -13.81430054 432.84776306 C-14.48424111 432.84837599 -15.15418167 432.84898893 -15.84442347 432.84962043 C-17.20534843 432.85089932 -18.56627337 432.85219617 -19.92719829 432.8535108 C-32.69189988 432.86491998 -45.4564866 432.85179764 -58.22116935 432.83030933 C-69.17647512 432.812438 -80.13161136 432.81554201 -91.08691406 432.83398438 C-103.80558852 432.85538517 -116.52416227 432.86382131 -129.24285221 432.85153532 C-130.59880128 432.85026111 -131.95475036 432.84900363 -133.31069946 432.84776306 C-133.97787135 432.84714596 -134.64504323 432.84652886 -135.33243245 432.84589306 C-140.03645536 432.84243777 -144.74041446 432.84827232 -149.44442749 432.85768127 C-155.77443474 432.86921344 -162.104121 432.86126189 -168.43409348 432.83810425 C-170.76094402 432.83280311 -173.08782146 432.83435478 -175.41466141 432.84315491 C-178.58385646 432.85403815 -181.75201415 432.8404335 -184.92114258 432.82043457 C-186.31198704 432.8338189 -186.31198704 432.8338189 -187.73092937 432.84747362 C-193.90809524 432.7715331 -193.90809524 432.7715331 -197.10258484 430.53075409 C-199.77522655 426.46983428 -199.68713314 422.70456842 -199.68554783 417.9169426 C-199.68670167 417.27412197 -199.68785552 416.63130134 -199.68904433 415.96900129 C-199.69169965 413.80635503 -199.68719774 411.64378262 -199.68275452 409.48114014 C-199.68319044 407.9185132 -199.68406574 406.35588633 -199.68534368 404.79325986 C-199.68758449 400.49249305 -199.68357298 396.19175104 -199.67856562 391.8909874 C-199.6742554 387.25570424 -199.67570795 382.62042253 -199.6764679 377.98513794 C-199.67699277 369.95192889 -199.6738498 361.91872795 -199.66823006 353.88552094 C-199.66011009 342.27078849 -199.65749932 330.65605998 -199.65624207 319.041325 C-199.65405233 300.19812069 -199.64739436 281.35492071 -199.63793945 262.51171875 C-199.62876331 244.20507835 -199.62168346 225.89843911 -199.61743164 207.59179688 C-199.61716892 206.46376344 -199.61690619 205.33573001 -199.61663551 204.17351374 C-199.61533049 198.51461735 -199.61406678 192.85572095 -199.61282361 187.19682455 C-199.60245343 140.23538004 -199.58483724 93.27394024 -199.5625 46.3125 C-195.55807033 44.37838031 -191.55178497 42.44813456 -187.54516602 40.51855469 C-186.41749062 39.97383514 -185.28981522 39.4291156 -184.12796783 38.8678894 C-176.35136503 35.12580479 -168.56959639 31.63043121 -160.5 28.5625 C-159.33629883 28.11479248 -158.17259766 27.66708496 -156.97363281 27.20581055 C-105.66782402 7.66755843 -54.74441279 0.06819494 0 0 Z " fill="#933B24" transform="translate(1148.5625,134.6875)"/>
<path d="M0 0 C0.84449703 -0.00445784 1.68899406 -0.00891569 2.55908191 -0.01350862 C3.49213724 -0.01332426 4.42519256 -0.01313989 5.38652229 -0.01294994 C6.86718168 -0.01846498 6.86718168 -0.01846498 8.37775338 -0.02409142 C11.70653804 -0.03516082 15.03529153 -0.03897758 18.36409187 -0.04278088 C20.74210396 -0.04904296 23.12011506 -0.05568953 25.49812508 -0.0626936 C32.64901716 -0.08194375 39.79990986 -0.09252436 46.95082062 -0.10142139 C50.31645468 -0.10580274 53.68208715 -0.1111699 57.04771996 -0.11641026 C68.23225452 -0.1334221 79.4167881 -0.14791746 90.60133362 -0.155159 C93.5043494 -0.15706895 96.40736518 -0.15898928 99.31038094 -0.16094494 C100.39270373 -0.16167055 100.39270373 -0.16167055 101.49689163 -0.16241082 C113.1920575 -0.17071559 124.88712123 -0.19606018 136.58224247 -0.22852562 C148.58305887 -0.26156875 160.58382331 -0.27960521 172.58468544 -0.28280324 C179.32534501 -0.28497075 186.06585557 -0.29375448 192.80647087 -0.31926441 C199.14461993 -0.34245572 205.48250021 -0.34681442 211.82068062 -0.33650303 C214.15076908 -0.33600541 216.48087038 -0.34239188 218.81091881 -0.35605907 C221.98455875 -0.37363737 225.15721928 -0.36674103 228.33085823 -0.35352612 C229.25945211 -0.36449536 230.188046 -0.37546461 231.14477909 -0.38676625 C237.33748844 -0.32422866 237.33748844 -0.32422866 240.55903625 1.95431328 C242.60188075 5.0757875 242.5142535 7.95895938 242.43977547 11.56488514 C242.44035957 12.30674061 242.44094368 13.04859608 242.44154549 13.81293201 C242.43876415 16.25905009 242.40767176 18.70394155 242.3762989 21.14984608 C242.36883664 22.84806115 242.36314364 24.54628484 242.35914803 26.2445116 C242.34389042 30.70978117 242.3046078 35.17452861 242.26033211 39.63959217 C242.21938197 44.19762579 242.20113758 48.75574395 242.1809864 53.31390858 C242.13811344 62.25424189 242.06986076 71.19418803 241.9856739 80.13422108 C187.03304909 85.03391999 132.06729867 89.77911339 77.09598392 94.46382314 C70.97244789 94.98580403 64.849045 95.50932826 58.72569466 96.03348255 C51.1665517 96.68048458 43.6072231 97.32526571 36.04765409 97.96727139 C32.12804256 98.30018734 28.20851539 98.63402561 24.2891922 98.9703207 C20.6578159 99.28185505 17.02621245 99.59058948 13.39441288 99.89714873 C11.44770122 100.06217582 9.50123639 100.23010659 7.55478191 100.39813995 C2.01278846 100.86329486 -3.45222871 101.27344244 -9.0143261 101.13422108 C-9.08389468 89.12945939 -9.13717232 77.12474582 -9.16976261 65.11982346 C-9.18540581 59.54520443 -9.20661972 53.97072351 -9.24064445 48.39618397 C-9.27328558 43.01453834 -9.29118924 37.63302541 -9.29895782 32.25128841 C-9.30449277 30.2000218 -9.31530118 28.14876229 -9.33151627 26.0975523 C-9.35335351 23.22021236 -9.35629036 20.34341792 -9.35490227 17.46600819 C-9.3656881 16.62155643 -9.37647392 15.77710468 -9.38758659 14.90706348 C-9.35987077 9.5833928 -8.55115031 5.84694874 -6.0143261 1.13422108 C-3.74715007 0.00063306 -2.51668801 0.00614751 0 0 Z " fill="#933B24" transform="translate(958.014326095581,29.865778923034668)"/>
<path d="M0 0 C0.99289866 -0.00694553 1.98579732 -0.01389106 3.00878382 -0.02104706 C6.34539723 -0.03938543 9.68130513 -0.02903349 13.01794434 -0.01878357 C15.40610793 -0.02583852 17.79426706 -0.03458173 20.18241882 -0.04489136 C26.00129062 -0.06509795 31.8199393 -0.06640124 37.63883626 -0.05826581 C42.36746382 -0.05196882 47.09603431 -0.05310006 51.82466125 -0.05953789 C52.49737718 -0.06043954 53.17009311 -0.0613412 53.86319438 -0.06227018 C55.22975633 -0.06412135 56.59631827 -0.06598391 57.96288019 -0.06785773 C70.78051122 -0.08444064 83.59803221 -0.07571267 96.41565663 -0.05887216 C108.14630867 -0.0441727 119.87670464 -0.05880603 131.60732371 -0.08764232 C143.64890978 -0.11702291 155.69037761 -0.12801267 167.73199797 -0.11846012 C169.09356401 -0.11743755 170.45513008 -0.11644294 171.81669617 -0.11547661 C172.82160016 -0.11476202 172.82160016 -0.11476202 173.84680524 -0.114033 C178.57038577 -0.1118672 183.29385455 -0.12168164 188.01741028 -0.13624763 C194.37373159 -0.15454871 200.72957539 -0.14871386 207.08587074 -0.12404823 C209.42239962 -0.11902291 211.75896452 -0.12257434 214.09546471 -0.13519669 C217.27798461 -0.15103301 220.45891391 -0.13626435 223.64135742 -0.11352539 C225.03803831 -0.13127898 225.03803831 -0.13127898 226.46293497 -0.14939123 C232.67191354 -0.05886124 232.67191354 -0.05886124 235.89557266 2.79093552 C237.26940322 5.41666363 237.8171325 6.80901189 237.80169678 9.72250366 C237.80719543 10.52872162 237.81269409 11.33493958 237.81835938 12.16558838 C237.79678772 13.47110405 237.79678772 13.47110405 237.77478027 14.80299377 C237.77536438 15.73031311 237.77594849 16.65763245 237.77655029 17.61305237 C237.77376916 20.67048399 237.74267534 23.72693416 237.71130371 26.78419495 C237.70384144 28.90696683 237.69814844 31.02974561 237.69415283 33.15252686 C237.67889552 38.7340046 237.63961247 44.31506462 237.59533691 49.89637756 C237.55438655 55.59395192 237.53614229 61.29159391 237.51599121 66.98927307 C237.47311861 78.16459469 237.40327022 89.3395743 237.32067871 100.5146637 C223.8407285 99.85597415 210.41068511 98.83008347 196.96520996 97.67286682 C194.78178288 97.48692688 192.59833603 97.30121895 190.41487122 97.11572266 C184.54127975 96.61606063 178.66797175 96.11313795 172.79471588 95.60954857 C166.62432702 95.08101396 160.45368884 94.55540553 154.28308105 94.0294342 C143.93397141 93.14688071 133.58503104 92.26236503 123.23620605 91.3764801 C109.9697244 90.24084464 96.70297868 89.10833911 83.43614197 87.97686005 C71.99606208 87.00116704 60.55609209 86.0241879 49.11614609 85.0469265 C45.45293779 84.73403373 41.78971695 84.42128816 38.12649536 84.10855103 C32.36759922 83.61680624 26.608772 83.12426172 20.84999657 82.63110542 C18.74175287 82.45066999 16.63348855 82.27047533 14.5252018 82.09054375 C11.63942339 81.84420763 8.75372366 81.59696892 5.86804199 81.34950256 C5.04176709 81.27916951 4.21549219 81.20883645 3.36417866 81.13637209 C-2.32243484 80.64734755 -8.00136236 80.09538365 -13.67932129 79.5146637 C-13.77198598 69.8050432 -13.84306827 60.09552783 -13.88656998 50.38555527 C-13.90744831 45.87683752 -13.93577018 41.36842222 -13.9810791 36.85987854 C-14.02452848 32.50916317 -14.04845654 28.15873876 -14.05883026 23.80782318 C-14.06622331 22.1475949 -14.08066027 20.48738261 -14.10224152 18.82727814 C-14.13126449 16.50234521 -14.13527792 14.17861571 -14.13342285 11.85353088 C-14.14780396 11.1666066 -14.16218506 10.47968231 -14.17700195 9.77194214 C-14.15130267 6.79682605 -13.8971699 4.84727509 -12.25421524 2.33881092 C-8.33168429 -0.44005069 -4.69871992 -0.04158544 0 0 Z " fill="#933B24" transform="translate(356.6793212890625,29.485336303710938)"/>
</svg>
