<?xml version="1.0" encoding="UTF-8"?>
<!DOCTYPE svg PUBLIC "-//W3C//DTD SVG 1.1//EN" "http://www.w3.org/Graphics/SVG/1.1/DTD/svg11.dtd">
<!-- Creator: CorelDRAW -->
<svg xmlns="http://www.w3.org/2000/svg" xml:space="preserve" width="89.4274mm" height="95.0624mm" version="1.1" style="shape-rendering:geometricPrecision; text-rendering:geometricPrecision; image-rendering:optimizeQuality; fill-rule:evenodd; clip-rule:evenodd"
viewBox="0 0 426.55 453.43"
 xmlns:xlink="http://www.w3.org/1999/xlink"
 xmlns:xodm="http://www.corel.com/coreldraw/odm/2003">
 <defs>
  <style type="text/css">
   <![CDATA[
    .fil0 {fill:white}
   ]]>
  </style>
 </defs>
 <g id="Plan_x0020_1">
  <metadata id="CorelCorpID_0Corel-Layer"/>
  <path class="fil0" d="M71.28 363.07c2.25,4.5 4.51,9.01 6.76,13.51 83.31,-67.12 128.51,-107.99 198.09,-194.89 6.92,78.17 26.05,122.33 62.59,161.1 -7.85,-127.16 13.82,-244 87.84,-280.6 -1.25,-1.85 -5,-14.16 -6.64,-16.63 -23.68,5.58 -80.12,60.16 -100.05,117.28 -10.85,-58.35 13.91,-109.72 28.05,-131.21 -4.54,-6.02 -26.06,-38.7 -19.51,-30.24 -33.67,59.51 -67.33,119.02 -101,178.53 24.58,-127.08 -87.65,-181.95 -173.82,-121.69 -90.76,63.46 -55.85,210.84 27.66,197.8 40.5,-6.32 70.28,-63.22 57.61,-120.2 -4.74,-0.47 -9.48,-0.95 -14.23,-1.42 9.59,70.75 -53.67,137.12 -90.99,74.36 -36.48,-88.67 44.87,-157.87 101.25,-135.49 128.17,50.88 -18.44,248.96 -63.61,289.8zm-22.3 39.12l10.56 -3.96 14.52 41.36 10.12 -35.64 6.82 0 10.12 35.42 14.74 -39.6 9.9 2.64 -18.7 49.93 -8.8 0 -10.56 -30.14 -8.16 30.45 -9.44 0 -21.12 -50.47zm288.78 49.94l-10.24 0 0 -51.03 10.24 0 0 4.02c3.78,-2.96 8.47,-4.72 13.56,-4.72 12.47,0 22.59,10.54 22.59,23.55l0 28.19 -8.84 0 0 -30.04c-0.34,-6.28 -5.46,-14.06 -13.74,-14.06 -5.9,0 -11.02,3.49 -13.56,8.61l0 35.5zm-20.6 0l-10.24 0 0 -51.03 10.24 0 0 51.03zm-21.21 0l-10.24 0 0 -4.84c-4.63,3.83 -10.57,6.14 -17.06,6.14 -14.78,0 -26.76,-11.98 -26.76,-26.76 0,-14.78 11.98,-26.76 26.76,-26.76 6.48,0 12.42,2.31 17.06,6.14l0 -21.23 10.24 0 0 67.3zm-10.24 -19.42l0 -12.06c-2.48,-7.02 -9.18,-12.05 -17.06,-12.05 -9.99,0 -18.09,8.1 -18.09,18.09 0,9.99 8.1,18.09 18.09,18.09 7.87,0 14.57,-5.03 17.06,-12.05zm-74.83 -32.79c14.78,0 26.76,11.98 26.76,26.76 0,14.78 -11.98,26.76 -26.76,26.76 -14.78,0 -26.76,-11.98 -26.76,-26.76 0,-14.78 11.98,-26.76 26.76,-26.76zm0 8.67c9.99,0 18.09,8.1 18.09,18.09 0,9.99 -8.1,18.09 -18.09,18.09 -9.99,0 -18.09,-8.1 -18.09,-18.09 0,-9.99 8.1,-18.09 18.09,-18.09zm-58.1 -8.67c14.78,0 26.76,11.98 26.76,26.76 0,14.78 -11.98,26.76 -26.76,26.76 -14.78,0 -26.76,-11.98 -26.76,-26.76 0,-14.78 11.98,-26.76 26.76,-26.76zm0 8.67c9.99,0 18.09,8.1 18.09,18.09 0,9.99 -8.1,18.09 -18.09,18.09 -9.99,0 -18.09,-8.1 -18.09,-18.09 0,-9.99 8.1,-18.09 18.09,-18.09z"/>
 </g>
</svg>
